<?xml version="1.0" encoding="utf-8" standalone="no"?>
<!DOCTYPE svg PUBLIC "-//W3C//DTD SVG 1.1//EN"
  "http://www.w3.org/Graphics/SVG/1.1/DTD/svg11.dtd">
<svg xmlns:xlink="http://www.w3.org/1999/xlink" width="677.337627pt" height="216pt" viewBox="0 0 677.337627 216" xmlns="http://www.w3.org/2000/svg" version="1.1">
 <metadata>
  <rdf:RDF xmlns:dc="http://purl.org/dc/elements/1.1/" xmlns:cc="http://creativecommons.org/ns#" xmlns:rdf="http://www.w3.org/1999/02/22-rdf-syntax-ns#">
   <cc:Work>
    <dc:type rdf:resource="http://purl.org/dc/dcmitype/StillImage"/>
    <dc:date>2024-03-09T08:57:09.214902</dc:date>
    <dc:format>image/svg+xml</dc:format>
    <dc:creator>
     <cc:Agent>
      <dc:title>Matplotlib v3.7.1, https://matplotlib.org/</dc:title>
     </cc:Agent>
    </dc:creator>
   </cc:Work>
  </rdf:RDF>
 </metadata>
 <defs>
  <style type="text/css">*{stroke-linejoin: round; stroke-linecap: butt}</style>
 </defs>
 <g id="figure_1">
  <g id="patch_1">
   <path d="M 0 216 
L 677.337627 216 
L 677.337627 0 
L 0 0 
z
" style="fill: #ffffff"/>
  </g>
  <g id="axes_1">
   <g id="patch_2">
    <path d="M 63.926054 185.24 
L 344.385813 185.24 
L 344.385813 28.32 
L 63.926054 28.32 
z
" style="fill: #ffffff"/>
   </g>
   <g id="PolyCollection_1">
    <defs>
     <path id="ma10d2f5078" d="M 63.926054 -179.615463 
L 63.926054 -172.321787 
L 69.535249 -104.291803 
L 75.144444 -91.835482 
L 80.753639 -95.137562 
L 86.362835 -95.325805 
L 91.97203 -79.026725 
L 97.581225 -80.313237 
L 103.19042 -77.832672 
L 108.799615 -79.490824 
L 114.408811 -73.044297 
L 120.018006 -86.314303 
L 125.627201 -83.0786 
L 131.236396 -108.122489 
L 136.845591 -91.998508 
L 142.454787 -101.066225 
L 148.063982 -96.815141 
L 153.673177 -99.887563 
L 159.282372 -88.489371 
L 164.891567 -90.099836 
L 170.500763 -62.703721 
L 176.109958 -72.996552 
L 181.719153 -75.268835 
L 187.328348 -78.894384 
L 192.937543 -75.482446 
L 198.546738 -94.593423 
L 204.155934 -63.682229 
L 209.765129 -61.82549 
L 215.374324 -72.619091 
L 220.983519 -70.808353 
L 226.592714 -78.250192 
L 232.20191 -79.95199 
L 237.811105 -71.480461 
L 243.4203 -86.164321 
L 249.029495 -81.018501 
L 254.63869 -95.346488 
L 260.247886 -82.534443 
L 265.857081 -85.767687 
L 271.466276 -76.594376 
L 277.075471 -80.183197 
L 282.684666 -65.939823 
L 288.293862 -74.177397 
L 293.903057 -76.890139 
L 299.512252 -79.749017 
L 305.121447 -89.303949 
L 310.730642 -69.70174 
L 316.339838 -68.724856 
L 321.949033 -68.819303 
L 327.558228 -70.068783 
L 333.167423 -78.355384 
L 338.776618 -88.313835 
L 344.385813 -80.852835 
L 344.385813 -94.129423 
L 344.385813 -94.129423 
L 338.776618 -99.588318 
L 333.167423 -97.49593 
L 327.558228 -85.776374 
L 321.949033 -99.891224 
L 316.339838 -98.753743 
L 310.730642 -77.428677 
L 305.121447 -104.402568 
L 299.512252 -102.368794 
L 293.903057 -94.233194 
L 288.293862 -104.024766 
L 282.684666 -92.209915 
L 277.075471 -108.115351 
L 271.466276 -98.567422 
L 265.857081 -110.913204 
L 260.247886 -106.374103 
L 254.63869 -111.965733 
L 249.029495 -109.400013 
L 243.4203 -105.92225 
L 237.811105 -98.960215 
L 232.20191 -102.505368 
L 226.592714 -113.121903 
L 220.983519 -108.43986 
L 215.374324 -108.730861 
L 209.765129 -95.752877 
L 204.155934 -112.096939 
L 198.546738 -116.105533 
L 192.937543 -114.708959 
L 187.328348 -100.537321 
L 181.719153 -102.027475 
L 176.109958 -104.775286 
L 170.500763 -100.980956 
L 164.891567 -120.44737 
L 159.282372 -118.481609 
L 153.673177 -112.882635 
L 148.063982 -118.068716 
L 142.454787 -113.888643 
L 136.845591 -116.323754 
L 131.236396 -122.216758 
L 125.627201 -108.243947 
L 120.018006 -108.551231 
L 114.408811 -115.139165 
L 108.799615 -109.919007 
L 103.19042 -111.444102 
L 97.581225 -120.850696 
L 91.97203 -129.351041 
L 86.362835 -135.86268 
L 80.753639 -137.741278 
L 75.144444 -140.824921 
L 69.535249 -150.731378 
L 63.926054 -179.615463 
z
" style="stroke: #0173b2; stroke-opacity: 0.2"/>
    </defs>
    <g clip-path="url(#pc557c757f0)">
     <use xlink:href="#ma10d2f5078" x="0" y="216" style="fill: #0173b2; fill-opacity: 0.2; stroke: #0173b2; stroke-opacity: 0.2"/>
    </g>
   </g>
   <g id="PolyCollection_2">
    <defs>
     <path id="md7dcbfdaae" d="M 63.926054 -179.615463 
L 63.926054 -172.321787 
L 69.535249 -37.928211 
L 75.144444 -87.953004 
L 80.753639 -66.310865 
L 86.362835 -65.938093 
L 91.97203 -58.027759 
L 97.581225 -64.169871 
L 103.19042 -73.852586 
L 108.799615 -82.231869 
L 114.408811 -82.948392 
L 120.018006 -83.633618 
L 125.627201 -81.021701 
L 131.236396 -84.734211 
L 136.845591 -85.201063 
L 142.454787 -85.654207 
L 148.063982 -85.772421 
L 153.673177 -85.876004 
L 159.282372 -85.933454 
L 164.891567 -84.804397 
L 170.500763 -86.643589 
L 176.109958 -87.036798 
L 181.719153 -87.458888 
L 187.328348 -86.871483 
L 192.937543 -88.128782 
L 198.546738 -87.8349 
L 204.155934 -88.840699 
L 209.765129 -89.073387 
L 215.374324 -89.077902 
L 220.983519 -89.072053 
L 226.592714 -88.999433 
L 232.20191 -88.436332 
L 237.811105 -88.922292 
L 243.4203 -88.915198 
L 249.029495 -89.110731 
L 254.63869 -88.976097 
L 260.247886 -89.359726 
L 265.857081 -89.837625 
L 271.466276 -90.027317 
L 277.075471 -90.398647 
L 282.684666 -90.723245 
L 288.293862 -91.077493 
L 293.903057 -91.052547 
L 299.512252 -91.666425 
L 305.121447 -91.96471 
L 310.730642 -92.295121 
L 316.339838 -92.520034 
L 321.949033 -92.299918 
L 327.558228 -93.116166 
L 333.167423 -93.423358 
L 338.776618 -93.597669 
L 344.385813 -93.807942 
L 344.385813 -104.276332 
L 344.385813 -104.276332 
L 338.776618 -104.65886 
L 333.167423 -104.473457 
L 327.558228 -104.269678 
L 321.949033 -104.145917 
L 316.339838 -103.842363 
L 310.730642 -104.280594 
L 305.121447 -104.087076 
L 299.512252 -104.926263 
L 293.903057 -103.750129 
L 288.293862 -103.550214 
L 282.684666 -103.421528 
L 277.075471 -103.220036 
L 271.466276 -103.202203 
L 265.857081 -103.984978 
L 260.247886 -103.009908 
L 254.63869 -102.968715 
L 249.029495 -102.83826 
L 243.4203 -102.790896 
L 237.811105 -103.743372 
L 232.20191 -102.609684 
L 226.592714 -102.560917 
L 220.983519 -102.424254 
L 215.374324 -102.374396 
L 209.765129 -102.192303 
L 204.155934 -102.054913 
L 198.546738 -101.886521 
L 192.937543 -101.843452 
L 187.328348 -101.698203 
L 181.719153 -101.652258 
L 176.109958 -101.605447 
L 170.500763 -102.875232 
L 164.891567 -101.405752 
L 159.282372 -102.88168 
L 153.673177 -101.411133 
L 148.063982 -101.499844 
L 142.454787 -101.584416 
L 136.845591 -101.447063 
L 131.236396 -101.464401 
L 125.627201 -101.468197 
L 120.018006 -101.376549 
L 114.408811 -101.427639 
L 108.799615 -101.49025 
L 103.19042 -93.119882 
L 97.581225 -92.03709 
L 91.97203 -91.841445 
L 86.362835 -103.374024 
L 80.753639 -111.109618 
L 75.144444 -128.94037 
L 69.535249 -131.620246 
L 63.926054 -179.615463 
z
" style="stroke: #de8f05; stroke-opacity: 0.2"/>
    </defs>
    <g clip-path="url(#pc557c757f0)">
     <use xlink:href="#md7dcbfdaae" x="0" y="216" style="fill: #de8f05; fill-opacity: 0.2; stroke: #de8f05; stroke-opacity: 0.2"/>
    </g>
   </g>
   <g id="PolyCollection_3">
    <defs>
     <path id="m61efc873a9" d="M 63.926054 -179.615463 
L 63.926054 -172.321787 
L 69.535249 -37.928211 
L 75.144444 -88.70712 
L 80.753639 -59.656486 
L 86.362835 -67.060117 
L 91.97203 -59.489413 
L 97.581225 -75.614871 
L 103.19042 -74.385009 
L 108.799615 -82.234573 
L 114.408811 -82.105584 
L 120.018006 -81.110697 
L 125.627201 -80.070165 
L 131.236396 -78.96692 
L 136.845591 -75.879563 
L 142.454787 -77.473147 
L 148.063982 -78.295718 
L 153.673177 -79.075725 
L 159.282372 -79.816917 
L 164.891567 -80.52095 
L 170.500763 -79.614271 
L 176.109958 -78.911019 
L 181.719153 -79.54084 
L 187.328348 -80.147152 
L 192.937543 -80.727209 
L 198.546738 -81.289101 
L 204.155934 -81.544895 
L 209.765129 -81.656142 
L 215.374324 -82.217141 
L 220.983519 -82.783169 
L 226.592714 -83.43984 
L 232.20191 -84.078393 
L 237.811105 -84.689778 
L 243.4203 -85.276635 
L 249.029495 -85.848343 
L 254.63869 -86.342039 
L 260.247886 -86.799964 
L 265.857081 -87.244059 
L 271.466276 -87.659676 
L 277.075471 -91.211929 
L 282.684666 -88.503798 
L 288.293862 -88.899386 
L 293.903057 -89.286603 
L 299.512252 -91.617872 
L 305.121447 -90.02649 
L 310.730642 -90.385768 
L 316.339838 -90.7294 
L 321.949033 -91.060978 
L 327.558228 -91.130469 
L 333.167423 -91.156476 
L 338.776618 -89.444458 
L 344.385813 -91.978076 
L 344.385813 -107.926992 
L 344.385813 -107.926992 
L 338.776618 -107.842387 
L 333.167423 -107.756417 
L 327.558228 -107.66979 
L 321.949033 -107.601167 
L 316.339838 -107.548034 
L 310.730642 -107.47896 
L 305.121447 -107.408654 
L 299.512252 -107.354511 
L 293.903057 -107.28419 
L 288.293862 -107.918865 
L 282.684666 -107.86529 
L 277.075471 -107.792451 
L 271.466276 -107.704679 
L 265.857081 -107.616138 
L 260.247886 -107.527522 
L 254.63869 -107.43782 
L 249.029495 -107.509859 
L 243.4203 -107.255414 
L 237.811105 -107.882652 
L 232.20191 -107.793579 
L 226.592714 -107.723893 
L 220.983519 -107.671337 
L 215.374324 -107.559992 
L 209.765129 -107.447101 
L 204.155934 -107.334034 
L 198.546738 -107.335734 
L 192.937543 -107.103789 
L 187.328348 -106.986229 
L 181.719153 -106.869275 
L 176.109958 -106.74996 
L 170.500763 -106.629687 
L 164.891567 -106.508375 
L 159.282372 -106.386072 
L 153.673177 -106.261892 
L 148.063982 -106.137968 
L 142.454787 -106.020206 
L 136.845591 -105.885106 
L 131.236396 -105.755625 
L 125.627201 -105.625818 
L 120.018006 -105.508831 
L 114.408811 -105.466725 
L 108.799615 -105.434806 
L 103.19042 -95.525105 
L 97.581225 -95.696201 
L 91.97203 -92.246664 
L 86.362835 -100.923769 
L 80.753639 -108.964999 
L 75.144444 -128.175038 
L 69.535249 -131.620246 
L 63.926054 -179.615463 
z
" style="stroke: #029e73; stroke-opacity: 0.2"/>
    </defs>
    <g clip-path="url(#pc557c757f0)">
     <use xlink:href="#m61efc873a9" x="0" y="216" style="fill: #029e73; fill-opacity: 0.2; stroke: #029e73; stroke-opacity: 0.2"/>
    </g>
   </g>
   <g id="PolyCollection_4">
    <defs>
     <path id="me683adbc8d" d="M 63.926054 -179.615463 
L 63.926054 -172.321787 
L 69.535249 -67.20173 
L 75.144444 -57.065668 
L 80.753639 -68.871035 
L 86.362835 -72.350128 
L 91.97203 -68.657892 
L 97.581225 -77.01058 
L 103.19042 -91.171374 
L 108.799615 -66.557939 
L 114.408811 -79.671115 
L 120.018006 -84.211488 
L 125.627201 -102.86322 
L 131.236396 -88.397957 
L 136.845591 -76.131206 
L 142.454787 -89.298031 
L 148.063982 -74.836063 
L 153.673177 -73.798526 
L 159.282372 -86.949194 
L 164.891567 -95.502372 
L 170.500763 -92.657428 
L 176.109958 -97.244154 
L 181.719153 -91.206979 
L 187.328348 -86.869653 
L 192.937543 -99.118753 
L 198.546738 -102.017064 
L 204.155934 -102.905209 
L 209.765129 -98.690831 
L 215.374324 -90.210696 
L 220.983519 -75.51429 
L 226.592714 -76.745552 
L 232.20191 -79.548663 
L 237.811105 -76.450366 
L 243.4203 -72.663445 
L 249.029495 -71.958846 
L 254.63869 -48.815421 
L 260.247886 -48.553895 
L 265.857081 -45.425806 
L 271.466276 -45.425767 
L 277.075471 -45.424749 
L 282.684666 -57.605615 
L 288.293862 -65.093732 
L 293.903057 -38.751125 
L 299.512252 -42.292071 
L 305.121447 -41.011764 
L 310.730642 -45.424474 
L 316.339838 -57.421054 
L 321.949033 -37.851094 
L 327.558228 -62.267214 
L 333.167423 -37.848355 
L 338.776618 -58.770129 
L 344.385813 -45.42184 
L 344.385813 -85.77397 
L 344.385813 -85.77397 
L 338.776618 -90.600552 
L 333.167423 -84.816417 
L 327.558228 -86.842166 
L 321.949033 -87.55996 
L 316.339838 -87.578525 
L 310.730642 -90.736908 
L 305.121447 -72.104867 
L 299.512252 -89.017543 
L 293.903057 -91.267315 
L 288.293862 -92.824709 
L 282.684666 -91.456166 
L 277.075471 -88.626382 
L 271.466276 -102.053608 
L 265.857081 -101.986393 
L 260.247886 -101.98285 
L 254.63869 -101.921161 
L 249.029495 -103.922852 
L 243.4203 -104.239994 
L 237.811105 -104.084264 
L 232.20191 -105.54432 
L 226.592714 -104.350307 
L 220.983519 -102.746971 
L 215.374324 -105.487129 
L 209.765129 -112.04043 
L 204.155934 -114.775856 
L 198.546738 -116.391131 
L 192.937543 -104.457056 
L 187.328348 -116.760887 
L 181.719153 -111.171405 
L 176.109958 -116.162562 
L 170.500763 -112.822766 
L 164.891567 -118.974669 
L 159.282372 -120.024337 
L 153.673177 -120.523082 
L 148.063982 -112.369085 
L 142.454787 -119.073939 
L 136.845591 -113.622576 
L 131.236396 -109.633598 
L 125.627201 -114.040685 
L 120.018006 -112.751074 
L 114.408811 -113.97798 
L 108.799615 -109.239659 
L 103.19042 -106.581283 
L 97.581225 -92.028072 
L 91.97203 -98.579188 
L 86.362835 -84.855863 
L 80.753639 -98.338694 
L 75.144444 -102.559373 
L 69.535249 -123.031345 
L 63.926054 -179.615463 
z
" style="stroke: #d55e00; stroke-opacity: 0.2"/>
    </defs>
    <g clip-path="url(#pc557c757f0)">
     <use xlink:href="#me683adbc8d" x="0" y="216" style="fill: #d55e00; fill-opacity: 0.2; stroke: #d55e00; stroke-opacity: 0.2"/>
    </g>
   </g>
   <g id="matplotlib.axis_1">
    <g id="xtick_1">
     <g id="line2d_1">
      <defs>
       <path id="m20dafb491e" d="M 0 0 
L 0 3.5 
" style="stroke: #000000; stroke-width: 0.8"/>
      </defs>
      <g>
       <use xlink:href="#m20dafb491e" x="63.926054" y="185.24" style="stroke: #000000; stroke-width: 0.8"/>
      </g>
     </g>
     <g id="text_1">
      <!-- 0 -->
      <g transform="translate(60.108554 201.358125) scale(0.12 -0.12)">
       <defs>
        <path id="DejaVuSans-30" d="M 2034 4250 
Q 1547 4250 1301 3770 
Q 1056 3291 1056 2328 
Q 1056 1369 1301 889 
Q 1547 409 2034 409 
Q 2525 409 2770 889 
Q 3016 1369 3016 2328 
Q 3016 3291 2770 3770 
Q 2525 4250 2034 4250 
z
M 2034 4750 
Q 2819 4750 3233 4129 
Q 3647 3509 3647 2328 
Q 3647 1150 3233 529 
Q 2819 -91 2034 -91 
Q 1250 -91 836 529 
Q 422 1150 422 2328 
Q 422 3509 836 4129 
Q 1250 4750 2034 4750 
z
" transform="scale(0.015625)"/>
       </defs>
       <use xlink:href="#DejaVuSans-30"/>
      </g>
     </g>
    </g>
    <g id="xtick_2">
     <g id="line2d_2">
      <g>
       <use xlink:href="#m20dafb491e" x="120.018006" y="185.24" style="stroke: #000000; stroke-width: 0.8"/>
      </g>
     </g>
     <g id="text_2">
      <!-- 10 -->
      <g transform="translate(112.383006 201.358125) scale(0.12 -0.12)">
       <defs>
        <path id="DejaVuSans-31" d="M 794 531 
L 1825 531 
L 1825 4091 
L 703 3866 
L 703 4441 
L 1819 4666 
L 2450 4666 
L 2450 531 
L 3481 531 
L 3481 0 
L 794 0 
L 794 531 
z
" transform="scale(0.015625)"/>
       </defs>
       <use xlink:href="#DejaVuSans-31"/>
       <use xlink:href="#DejaVuSans-30" x="63.623047"/>
      </g>
     </g>
    </g>
    <g id="xtick_3">
     <g id="line2d_3">
      <g>
       <use xlink:href="#m20dafb491e" x="176.109958" y="185.24" style="stroke: #000000; stroke-width: 0.8"/>
      </g>
     </g>
     <g id="text_3">
      <!-- 20 -->
      <g transform="translate(168.474958 201.358125) scale(0.12 -0.12)">
       <defs>
        <path id="DejaVuSans-32" d="M 1228 531 
L 3431 531 
L 3431 0 
L 469 0 
L 469 531 
Q 828 903 1448 1529 
Q 2069 2156 2228 2338 
Q 2531 2678 2651 2914 
Q 2772 3150 2772 3378 
Q 2772 3750 2511 3984 
Q 2250 4219 1831 4219 
Q 1534 4219 1204 4116 
Q 875 4013 500 3803 
L 500 4441 
Q 881 4594 1212 4672 
Q 1544 4750 1819 4750 
Q 2544 4750 2975 4387 
Q 3406 4025 3406 3419 
Q 3406 3131 3298 2873 
Q 3191 2616 2906 2266 
Q 2828 2175 2409 1742 
Q 1991 1309 1228 531 
z
" transform="scale(0.015625)"/>
       </defs>
       <use xlink:href="#DejaVuSans-32"/>
       <use xlink:href="#DejaVuSans-30" x="63.623047"/>
      </g>
     </g>
    </g>
    <g id="xtick_4">
     <g id="line2d_4">
      <g>
       <use xlink:href="#m20dafb491e" x="232.20191" y="185.24" style="stroke: #000000; stroke-width: 0.8"/>
      </g>
     </g>
     <g id="text_4">
      <!-- 30 -->
      <g transform="translate(224.56691 201.358125) scale(0.12 -0.12)">
       <defs>
        <path id="DejaVuSans-33" d="M 2597 2516 
Q 3050 2419 3304 2112 
Q 3559 1806 3559 1356 
Q 3559 666 3084 287 
Q 2609 -91 1734 -91 
Q 1441 -91 1130 -33 
Q 819 25 488 141 
L 488 750 
Q 750 597 1062 519 
Q 1375 441 1716 441 
Q 2309 441 2620 675 
Q 2931 909 2931 1356 
Q 2931 1769 2642 2001 
Q 2353 2234 1838 2234 
L 1294 2234 
L 1294 2753 
L 1863 2753 
Q 2328 2753 2575 2939 
Q 2822 3125 2822 3475 
Q 2822 3834 2567 4026 
Q 2313 4219 1838 4219 
Q 1578 4219 1281 4162 
Q 984 4106 628 3988 
L 628 4550 
Q 988 4650 1302 4700 
Q 1616 4750 1894 4750 
Q 2613 4750 3031 4423 
Q 3450 4097 3450 3541 
Q 3450 3153 3228 2886 
Q 3006 2619 2597 2516 
z
" transform="scale(0.015625)"/>
       </defs>
       <use xlink:href="#DejaVuSans-33"/>
       <use xlink:href="#DejaVuSans-30" x="63.623047"/>
      </g>
     </g>
    </g>
    <g id="xtick_5">
     <g id="line2d_5">
      <g>
       <use xlink:href="#m20dafb491e" x="288.293862" y="185.24" style="stroke: #000000; stroke-width: 0.8"/>
      </g>
     </g>
     <g id="text_5">
      <!-- 40 -->
      <g transform="translate(280.658862 201.358125) scale(0.12 -0.12)">
       <defs>
        <path id="DejaVuSans-34" d="M 2419 4116 
L 825 1625 
L 2419 1625 
L 2419 4116 
z
M 2253 4666 
L 3047 4666 
L 3047 1625 
L 3713 1625 
L 3713 1100 
L 3047 1100 
L 3047 0 
L 2419 0 
L 2419 1100 
L 313 1100 
L 313 1709 
L 2253 4666 
z
" transform="scale(0.015625)"/>
       </defs>
       <use xlink:href="#DejaVuSans-34"/>
       <use xlink:href="#DejaVuSans-30" x="63.623047"/>
      </g>
     </g>
    </g>
    <g id="xtick_6">
     <g id="line2d_6">
      <g>
       <use xlink:href="#m20dafb491e" x="344.385813" y="185.24" style="stroke: #000000; stroke-width: 0.8"/>
      </g>
     </g>
     <g id="text_6">
      <!-- 50 -->
      <g transform="translate(336.750813 201.358125) scale(0.12 -0.12)">
       <defs>
        <path id="DejaVuSans-35" d="M 691 4666 
L 3169 4666 
L 3169 4134 
L 1269 4134 
L 1269 2991 
Q 1406 3038 1543 3061 
Q 1681 3084 1819 3084 
Q 2600 3084 3056 2656 
Q 3513 2228 3513 1497 
Q 3513 744 3044 326 
Q 2575 -91 1722 -91 
Q 1428 -91 1123 -41 
Q 819 9 494 109 
L 494 744 
Q 775 591 1075 516 
Q 1375 441 1709 441 
Q 2250 441 2565 725 
Q 2881 1009 2881 1497 
Q 2881 1984 2565 2268 
Q 2250 2553 1709 2553 
Q 1456 2553 1204 2497 
Q 953 2441 691 2322 
L 691 4666 
z
" transform="scale(0.015625)"/>
       </defs>
       <use xlink:href="#DejaVuSans-35"/>
       <use xlink:href="#DejaVuSans-30" x="63.623047"/>
      </g>
     </g>
    </g>
   </g>
   <g id="matplotlib.axis_2">
    <g id="ytick_1">
     <g id="line2d_7">
      <defs>
       <path id="m971a3aab42" d="M 0 0 
L -3.5 0 
" style="stroke: #000000; stroke-width: 0.8"/>
      </defs>
      <g>
       <use xlink:href="#m971a3aab42" x="63.926054" y="162.437238" style="stroke: #000000; stroke-width: 0.8"/>
      </g>
     </g>
     <g id="text_7">
      <!-- $\mathdefault{10^{-3}}$ -->
      <g transform="translate(33.426054 166.236457) scale(0.1 -0.1)">
       <defs>
        <path id="DejaVuSans-2212" d="M 678 2272 
L 4684 2272 
L 4684 1741 
L 678 1741 
L 678 2272 
z
" transform="scale(0.015625)"/>
       </defs>
       <use xlink:href="#DejaVuSans-31" transform="translate(0 0.765625)"/>
       <use xlink:href="#DejaVuSans-30" transform="translate(63.623047 0.765625)"/>
       <use xlink:href="#DejaVuSans-2212" transform="translate(128.203125 39.046875) scale(0.7)"/>
       <use xlink:href="#DejaVuSans-33" transform="translate(186.855469 39.046875) scale(0.7)"/>
      </g>
     </g>
    </g>
    <g id="ytick_2">
     <g id="line2d_8">
      <g>
       <use xlink:href="#m971a3aab42" x="63.926054" y="120.210102" style="stroke: #000000; stroke-width: 0.8"/>
      </g>
     </g>
     <g id="text_8">
      <!-- $\mathdefault{10^{-2}}$ -->
      <g transform="translate(33.426054 124.009321) scale(0.1 -0.1)">
       <use xlink:href="#DejaVuSans-31" transform="translate(0 0.765625)"/>
       <use xlink:href="#DejaVuSans-30" transform="translate(63.623047 0.765625)"/>
       <use xlink:href="#DejaVuSans-2212" transform="translate(128.203125 39.046875) scale(0.7)"/>
       <use xlink:href="#DejaVuSans-32" transform="translate(186.855469 39.046875) scale(0.7)"/>
      </g>
     </g>
    </g>
    <g id="ytick_3">
     <g id="line2d_9">
      <g>
       <use xlink:href="#m971a3aab42" x="63.926054" y="77.982966" style="stroke: #000000; stroke-width: 0.8"/>
      </g>
     </g>
     <g id="text_9">
      <!-- $\mathdefault{10^{-1}}$ -->
      <g transform="translate(33.426054 81.782185) scale(0.1 -0.1)">
       <use xlink:href="#DejaVuSans-31" transform="translate(0 0.684375)"/>
       <use xlink:href="#DejaVuSans-30" transform="translate(63.623047 0.684375)"/>
       <use xlink:href="#DejaVuSans-2212" transform="translate(128.203125 38.965625) scale(0.7)"/>
       <use xlink:href="#DejaVuSans-31" transform="translate(186.855469 38.965625) scale(0.7)"/>
      </g>
     </g>
    </g>
    <g id="ytick_4">
     <g id="line2d_10">
      <g>
       <use xlink:href="#m971a3aab42" x="63.926054" y="35.75583" style="stroke: #000000; stroke-width: 0.8"/>
      </g>
     </g>
     <g id="text_10">
      <!-- $\mathdefault{10^{0}}$ -->
      <g transform="translate(39.326054 39.555048) scale(0.1 -0.1)">
       <use xlink:href="#DejaVuSans-31" transform="translate(0 0.765625)"/>
       <use xlink:href="#DejaVuSans-30" transform="translate(63.623047 0.765625)"/>
       <use xlink:href="#DejaVuSans-30" transform="translate(128.203125 39.046875) scale(0.7)"/>
      </g>
     </g>
    </g>
    <g id="ytick_5">
     <g id="line2d_11">
      <defs>
       <path id="m703e00e4fe" d="M 0 0 
L -2 0 
" style="stroke: #000000; stroke-width: 0.6"/>
      </defs>
      <g>
       <use xlink:href="#m703e00e4fe" x="63.926054" y="184.51691" style="stroke: #000000; stroke-width: 0.6"/>
      </g>
     </g>
    </g>
    <g id="ytick_6">
     <g id="line2d_12">
      <g>
       <use xlink:href="#m703e00e4fe" x="63.926054" y="179.241105" style="stroke: #000000; stroke-width: 0.6"/>
      </g>
     </g>
    </g>
    <g id="ytick_7">
     <g id="line2d_13">
      <g>
       <use xlink:href="#m703e00e4fe" x="63.926054" y="175.148873" style="stroke: #000000; stroke-width: 0.6"/>
      </g>
     </g>
    </g>
    <g id="ytick_8">
     <g id="line2d_14">
      <g>
       <use xlink:href="#m703e00e4fe" x="63.926054" y="171.805276" style="stroke: #000000; stroke-width: 0.6"/>
      </g>
     </g>
    </g>
    <g id="ytick_9">
     <g id="line2d_15">
      <g>
       <use xlink:href="#m703e00e4fe" x="63.926054" y="168.978304" style="stroke: #000000; stroke-width: 0.6"/>
      </g>
     </g>
    </g>
    <g id="ytick_10">
     <g id="line2d_16">
      <g>
       <use xlink:href="#m703e00e4fe" x="63.926054" y="166.529471" style="stroke: #000000; stroke-width: 0.6"/>
      </g>
     </g>
    </g>
    <g id="ytick_11">
     <g id="line2d_17">
      <g>
       <use xlink:href="#m703e00e4fe" x="63.926054" y="164.369446" style="stroke: #000000; stroke-width: 0.6"/>
      </g>
     </g>
    </g>
    <g id="ytick_12">
     <g id="line2d_18">
      <g>
       <use xlink:href="#m703e00e4fe" x="63.926054" y="149.725604" style="stroke: #000000; stroke-width: 0.6"/>
      </g>
     </g>
    </g>
    <g id="ytick_13">
     <g id="line2d_19">
      <g>
       <use xlink:href="#m703e00e4fe" x="63.926054" y="142.289774" style="stroke: #000000; stroke-width: 0.6"/>
      </g>
     </g>
    </g>
    <g id="ytick_14">
     <g id="line2d_20">
      <g>
       <use xlink:href="#m703e00e4fe" x="63.926054" y="137.013969" style="stroke: #000000; stroke-width: 0.6"/>
      </g>
     </g>
    </g>
    <g id="ytick_15">
     <g id="line2d_21">
      <g>
       <use xlink:href="#m703e00e4fe" x="63.926054" y="132.921737" style="stroke: #000000; stroke-width: 0.6"/>
      </g>
     </g>
    </g>
    <g id="ytick_16">
     <g id="line2d_22">
      <g>
       <use xlink:href="#m703e00e4fe" x="63.926054" y="129.578139" style="stroke: #000000; stroke-width: 0.6"/>
      </g>
     </g>
    </g>
    <g id="ytick_17">
     <g id="line2d_23">
      <g>
       <use xlink:href="#m703e00e4fe" x="63.926054" y="126.751168" style="stroke: #000000; stroke-width: 0.6"/>
      </g>
     </g>
    </g>
    <g id="ytick_18">
     <g id="line2d_24">
      <g>
       <use xlink:href="#m703e00e4fe" x="63.926054" y="124.302334" style="stroke: #000000; stroke-width: 0.6"/>
      </g>
     </g>
    </g>
    <g id="ytick_19">
     <g id="line2d_25">
      <g>
       <use xlink:href="#m703e00e4fe" x="63.926054" y="122.14231" style="stroke: #000000; stroke-width: 0.6"/>
      </g>
     </g>
    </g>
    <g id="ytick_20">
     <g id="line2d_26">
      <g>
       <use xlink:href="#m703e00e4fe" x="63.926054" y="107.498467" style="stroke: #000000; stroke-width: 0.6"/>
      </g>
     </g>
    </g>
    <g id="ytick_21">
     <g id="line2d_27">
      <g>
       <use xlink:href="#m703e00e4fe" x="63.926054" y="100.062638" style="stroke: #000000; stroke-width: 0.6"/>
      </g>
     </g>
    </g>
    <g id="ytick_22">
     <g id="line2d_28">
      <g>
       <use xlink:href="#m703e00e4fe" x="63.926054" y="94.786833" style="stroke: #000000; stroke-width: 0.6"/>
      </g>
     </g>
    </g>
    <g id="ytick_23">
     <g id="line2d_29">
      <g>
       <use xlink:href="#m703e00e4fe" x="63.926054" y="90.6946" style="stroke: #000000; stroke-width: 0.6"/>
      </g>
     </g>
    </g>
    <g id="ytick_24">
     <g id="line2d_30">
      <g>
       <use xlink:href="#m703e00e4fe" x="63.926054" y="87.351003" style="stroke: #000000; stroke-width: 0.6"/>
      </g>
     </g>
    </g>
    <g id="ytick_25">
     <g id="line2d_31">
      <g>
       <use xlink:href="#m703e00e4fe" x="63.926054" y="84.524032" style="stroke: #000000; stroke-width: 0.6"/>
      </g>
     </g>
    </g>
    <g id="ytick_26">
     <g id="line2d_32">
      <g>
       <use xlink:href="#m703e00e4fe" x="63.926054" y="82.075198" style="stroke: #000000; stroke-width: 0.6"/>
      </g>
     </g>
    </g>
    <g id="ytick_27">
     <g id="line2d_33">
      <g>
       <use xlink:href="#m703e00e4fe" x="63.926054" y="79.915174" style="stroke: #000000; stroke-width: 0.6"/>
      </g>
     </g>
    </g>
    <g id="ytick_28">
     <g id="line2d_34">
      <g>
       <use xlink:href="#m703e00e4fe" x="63.926054" y="65.271331" style="stroke: #000000; stroke-width: 0.6"/>
      </g>
     </g>
    </g>
    <g id="ytick_29">
     <g id="line2d_35">
      <g>
       <use xlink:href="#m703e00e4fe" x="63.926054" y="57.835502" style="stroke: #000000; stroke-width: 0.6"/>
      </g>
     </g>
    </g>
    <g id="ytick_30">
     <g id="line2d_36">
      <g>
       <use xlink:href="#m703e00e4fe" x="63.926054" y="52.559697" style="stroke: #000000; stroke-width: 0.6"/>
      </g>
     </g>
    </g>
    <g id="ytick_31">
     <g id="line2d_37">
      <g>
       <use xlink:href="#m703e00e4fe" x="63.926054" y="48.467464" style="stroke: #000000; stroke-width: 0.6"/>
      </g>
     </g>
    </g>
    <g id="ytick_32">
     <g id="line2d_38">
      <g>
       <use xlink:href="#m703e00e4fe" x="63.926054" y="45.123867" style="stroke: #000000; stroke-width: 0.6"/>
      </g>
     </g>
    </g>
    <g id="ytick_33">
     <g id="line2d_39">
      <g>
       <use xlink:href="#m703e00e4fe" x="63.926054" y="42.296896" style="stroke: #000000; stroke-width: 0.6"/>
      </g>
     </g>
    </g>
    <g id="ytick_34">
     <g id="line2d_40">
      <g>
       <use xlink:href="#m703e00e4fe" x="63.926054" y="39.848062" style="stroke: #000000; stroke-width: 0.6"/>
      </g>
     </g>
    </g>
    <g id="ytick_35">
     <g id="line2d_41">
      <g>
       <use xlink:href="#m703e00e4fe" x="63.926054" y="37.688037" style="stroke: #000000; stroke-width: 0.6"/>
      </g>
     </g>
    </g>
    <g id="text_11">
     <!-- $99^{\rm{th}}$ Percentile Cost -->
     <g transform="translate(26.098554 185.82) rotate(-90) scale(0.16 -0.16)">
      <defs>
       <path id="DejaVuSans-39" d="M 703 97 
L 703 672 
Q 941 559 1184 500 
Q 1428 441 1663 441 
Q 2288 441 2617 861 
Q 2947 1281 2994 2138 
Q 2813 1869 2534 1725 
Q 2256 1581 1919 1581 
Q 1219 1581 811 2004 
Q 403 2428 403 3163 
Q 403 3881 828 4315 
Q 1253 4750 1959 4750 
Q 2769 4750 3195 4129 
Q 3622 3509 3622 2328 
Q 3622 1225 3098 567 
Q 2575 -91 1691 -91 
Q 1453 -91 1209 -44 
Q 966 3 703 97 
z
M 1959 2075 
Q 2384 2075 2632 2365 
Q 2881 2656 2881 3163 
Q 2881 3666 2632 3958 
Q 2384 4250 1959 4250 
Q 1534 4250 1286 3958 
Q 1038 3666 1038 3163 
Q 1038 2656 1286 2365 
Q 1534 2075 1959 2075 
z
" transform="scale(0.015625)"/>
       <path id="DejaVuSans-74" d="M 1172 4494 
L 1172 3500 
L 2356 3500 
L 2356 3053 
L 1172 3053 
L 1172 1153 
Q 1172 725 1289 603 
Q 1406 481 1766 481 
L 2356 481 
L 2356 0 
L 1766 0 
Q 1100 0 847 248 
Q 594 497 594 1153 
L 594 3053 
L 172 3053 
L 172 3500 
L 594 3500 
L 594 4494 
L 1172 4494 
z
" transform="scale(0.015625)"/>
       <path id="DejaVuSans-68" d="M 3513 2113 
L 3513 0 
L 2938 0 
L 2938 2094 
Q 2938 2591 2744 2837 
Q 2550 3084 2163 3084 
Q 1697 3084 1428 2787 
Q 1159 2491 1159 1978 
L 1159 0 
L 581 0 
L 581 4863 
L 1159 4863 
L 1159 2956 
Q 1366 3272 1645 3428 
Q 1925 3584 2291 3584 
Q 2894 3584 3203 3211 
Q 3513 2838 3513 2113 
z
" transform="scale(0.015625)"/>
       <path id="DejaVuSans-20" transform="scale(0.015625)"/>
       <path id="DejaVuSans-50" d="M 1259 4147 
L 1259 2394 
L 2053 2394 
Q 2494 2394 2734 2622 
Q 2975 2850 2975 3272 
Q 2975 3691 2734 3919 
Q 2494 4147 2053 4147 
L 1259 4147 
z
M 628 4666 
L 2053 4666 
Q 2838 4666 3239 4311 
Q 3641 3956 3641 3272 
Q 3641 2581 3239 2228 
Q 2838 1875 2053 1875 
L 1259 1875 
L 1259 0 
L 628 0 
L 628 4666 
z
" transform="scale(0.015625)"/>
       <path id="DejaVuSans-65" d="M 3597 1894 
L 3597 1613 
L 953 1613 
Q 991 1019 1311 708 
Q 1631 397 2203 397 
Q 2534 397 2845 478 
Q 3156 559 3463 722 
L 3463 178 
Q 3153 47 2828 -22 
Q 2503 -91 2169 -91 
Q 1331 -91 842 396 
Q 353 884 353 1716 
Q 353 2575 817 3079 
Q 1281 3584 2069 3584 
Q 2775 3584 3186 3129 
Q 3597 2675 3597 1894 
z
M 3022 2063 
Q 3016 2534 2758 2815 
Q 2500 3097 2075 3097 
Q 1594 3097 1305 2825 
Q 1016 2553 972 2059 
L 3022 2063 
z
" transform="scale(0.015625)"/>
       <path id="DejaVuSans-72" d="M 2631 2963 
Q 2534 3019 2420 3045 
Q 2306 3072 2169 3072 
Q 1681 3072 1420 2755 
Q 1159 2438 1159 1844 
L 1159 0 
L 581 0 
L 581 3500 
L 1159 3500 
L 1159 2956 
Q 1341 3275 1631 3429 
Q 1922 3584 2338 3584 
Q 2397 3584 2469 3576 
Q 2541 3569 2628 3553 
L 2631 2963 
z
" transform="scale(0.015625)"/>
       <path id="DejaVuSans-63" d="M 3122 3366 
L 3122 2828 
Q 2878 2963 2633 3030 
Q 2388 3097 2138 3097 
Q 1578 3097 1268 2742 
Q 959 2388 959 1747 
Q 959 1106 1268 751 
Q 1578 397 2138 397 
Q 2388 397 2633 464 
Q 2878 531 3122 666 
L 3122 134 
Q 2881 22 2623 -34 
Q 2366 -91 2075 -91 
Q 1284 -91 818 406 
Q 353 903 353 1747 
Q 353 2603 823 3093 
Q 1294 3584 2113 3584 
Q 2378 3584 2631 3529 
Q 2884 3475 3122 3366 
z
" transform="scale(0.015625)"/>
       <path id="DejaVuSans-6e" d="M 3513 2113 
L 3513 0 
L 2938 0 
L 2938 2094 
Q 2938 2591 2744 2837 
Q 2550 3084 2163 3084 
Q 1697 3084 1428 2787 
Q 1159 2491 1159 1978 
L 1159 0 
L 581 0 
L 581 3500 
L 1159 3500 
L 1159 2956 
Q 1366 3272 1645 3428 
Q 1925 3584 2291 3584 
Q 2894 3584 3203 3211 
Q 3513 2838 3513 2113 
z
" transform="scale(0.015625)"/>
       <path id="DejaVuSans-69" d="M 603 3500 
L 1178 3500 
L 1178 0 
L 603 0 
L 603 3500 
z
M 603 4863 
L 1178 4863 
L 1178 4134 
L 603 4134 
L 603 4863 
z
" transform="scale(0.015625)"/>
       <path id="DejaVuSans-6c" d="M 603 4863 
L 1178 4863 
L 1178 0 
L 603 0 
L 603 4863 
z
" transform="scale(0.015625)"/>
       <path id="DejaVuSans-43" d="M 4122 4306 
L 4122 3641 
Q 3803 3938 3442 4084 
Q 3081 4231 2675 4231 
Q 1875 4231 1450 3742 
Q 1025 3253 1025 2328 
Q 1025 1406 1450 917 
Q 1875 428 2675 428 
Q 3081 428 3442 575 
Q 3803 722 4122 1019 
L 4122 359 
Q 3791 134 3420 21 
Q 3050 -91 2638 -91 
Q 1578 -91 968 557 
Q 359 1206 359 2328 
Q 359 3453 968 4101 
Q 1578 4750 2638 4750 
Q 3056 4750 3426 4639 
Q 3797 4528 4122 4306 
z
" transform="scale(0.015625)"/>
       <path id="DejaVuSans-6f" d="M 1959 3097 
Q 1497 3097 1228 2736 
Q 959 2375 959 1747 
Q 959 1119 1226 758 
Q 1494 397 1959 397 
Q 2419 397 2687 759 
Q 2956 1122 2956 1747 
Q 2956 2369 2687 2733 
Q 2419 3097 1959 3097 
z
M 1959 3584 
Q 2709 3584 3137 3096 
Q 3566 2609 3566 1747 
Q 3566 888 3137 398 
Q 2709 -91 1959 -91 
Q 1206 -91 779 398 
Q 353 888 353 1747 
Q 353 2609 779 3096 
Q 1206 3584 1959 3584 
z
" transform="scale(0.015625)"/>
       <path id="DejaVuSans-73" d="M 2834 3397 
L 2834 2853 
Q 2591 2978 2328 3040 
Q 2066 3103 1784 3103 
Q 1356 3103 1142 2972 
Q 928 2841 928 2578 
Q 928 2378 1081 2264 
Q 1234 2150 1697 2047 
L 1894 2003 
Q 2506 1872 2764 1633 
Q 3022 1394 3022 966 
Q 3022 478 2636 193 
Q 2250 -91 1575 -91 
Q 1294 -91 989 -36 
Q 684 19 347 128 
L 347 722 
Q 666 556 975 473 
Q 1284 391 1588 391 
Q 1994 391 2212 530 
Q 2431 669 2431 922 
Q 2431 1156 2273 1281 
Q 2116 1406 1581 1522 
L 1381 1569 
Q 847 1681 609 1914 
Q 372 2147 372 2553 
Q 372 3047 722 3315 
Q 1072 3584 1716 3584 
Q 2034 3584 2315 3537 
Q 2597 3491 2834 3397 
z
" transform="scale(0.015625)"/>
      </defs>
      <use xlink:href="#DejaVuSans-39" transform="translate(0 0.529687)"/>
      <use xlink:href="#DejaVuSans-39" transform="translate(63.623047 0.529687)"/>
      <use xlink:href="#DejaVuSans-74" transform="translate(128.203125 38.810937) scale(0.7)"/>
      <use xlink:href="#DejaVuSans-68" transform="translate(155.649414 38.810937) scale(0.7)"/>
      <use xlink:href="#DejaVuSans-20" transform="translate(202.749023 0.529687)"/>
      <use xlink:href="#DejaVuSans-50" transform="translate(234.536133 0.529687)"/>
      <use xlink:href="#DejaVuSans-65" transform="translate(294.838867 0.529687)"/>
      <use xlink:href="#DejaVuSans-72" transform="translate(356.362305 0.529687)"/>
      <use xlink:href="#DejaVuSans-63" transform="translate(397.475586 0.529687)"/>
      <use xlink:href="#DejaVuSans-65" transform="translate(452.456055 0.529687)"/>
      <use xlink:href="#DejaVuSans-6e" transform="translate(513.979492 0.529687)"/>
      <use xlink:href="#DejaVuSans-74" transform="translate(577.358398 0.529687)"/>
      <use xlink:href="#DejaVuSans-69" transform="translate(616.567383 0.529687)"/>
      <use xlink:href="#DejaVuSans-6c" transform="translate(644.350586 0.529687)"/>
      <use xlink:href="#DejaVuSans-65" transform="translate(672.133789 0.529687)"/>
      <use xlink:href="#DejaVuSans-20" transform="translate(733.657227 0.529687)"/>
      <use xlink:href="#DejaVuSans-43" transform="translate(765.444336 0.529687)"/>
      <use xlink:href="#DejaVuSans-6f" transform="translate(835.268555 0.529687)"/>
      <use xlink:href="#DejaVuSans-73" transform="translate(896.450195 0.529687)"/>
      <use xlink:href="#DejaVuSans-74" transform="translate(948.549805 0.529687)"/>
     </g>
    </g>
   </g>
   <g id="line2d_42">
    <path d="M 63.926054 39.269424 
L 69.535249 77.989037 
L 75.144444 89.81482 
L 80.753639 93.039243 
L 86.362835 95.380202 
L 91.97203 102.984984 
L 97.581225 106.32513 
L 103.19042 115.286604 
L 108.799615 118.991655 
L 114.408811 117.395688 
L 120.018006 118.105063 
L 125.627201 116.577676 
L 131.236396 99.581689 
L 136.845591 107.455965 
L 142.454787 106.361799 
L 148.063982 105.63745 
L 153.673177 108.487163 
L 159.282372 106.45613 
L 164.891567 106.742411 
L 170.500763 125.586414 
L 176.109958 120.951088 
L 181.719153 122.851335 
L 187.328348 122.870174 
L 192.937543 116.343035 
L 198.546738 106.21188 
L 204.155934 115.350568 
L 209.765129 130.935923 
L 215.374324 121.942908 
L 220.983519 118.094681 
L 226.592714 113.037103 
L 232.20191 121.033117 
L 237.811105 127.402035 
L 243.4203 117.602294 
L 249.029495 116.507231 
L 254.63869 111.203498 
L 260.247886 117.917449 
L 265.857081 113.89887 
L 271.466276 123.896778 
L 277.075471 117.521543 
L 282.684666 134.033916 
L 288.293862 121.179918 
L 293.903057 127.53494 
L 299.512252 120.798505 
L 305.121447 117.634892 
L 310.730642 142.379494 
L 316.339838 131.004382 
L 321.949033 129.890777 
L 327.558228 137.528161 
L 333.167423 127.715831 
L 338.776618 121.807694 
L 344.385813 127.899539 
" clip-path="url(#pc557c757f0)" style="fill: none; stroke: #0173b2; stroke-width: 1.5; stroke-linecap: square"/>
   </g>
   <g id="line2d_43">
    <path d="M 63.926054 39.269424 
L 69.535249 103.834664 
L 75.144444 100.918545 
L 80.753639 116.073562 
L 86.362835 125.174823 
L 91.97203 136.348567 
L 97.581225 136.213896 
L 103.19042 130.119089 
L 108.799615 122.089594 
L 114.408811 121.975156 
L 120.018006 121.846951 
L 125.627201 121.658846 
L 131.236396 121.462499 
L 136.845591 121.287394 
L 142.454787 121.042314 
L 148.063982 120.968995 
L 153.673177 120.9029 
L 159.282372 120.767194 
L 164.891567 120.665601 
L 170.500763 120.493358 
L 176.109958 120.26871 
L 181.719153 120.104279 
L 187.328348 119.988659 
L 192.937543 119.760641 
L 198.546738 119.615003 
L 204.155934 119.386893 
L 209.765129 119.21826 
L 215.374324 119.094297 
L 220.983519 119.062597 
L 226.592714 118.993818 
L 232.20191 118.962623 
L 237.811105 118.952839 
L 243.4203 118.864779 
L 249.029495 118.769963 
L 254.63869 118.616005 
L 260.247886 118.50222 
L 265.857081 118.390149 
L 271.466276 118.242662 
L 277.075471 118.092281 
L 282.684666 117.849825 
L 288.293862 117.645607 
L 293.903057 117.431237 
L 299.512252 117.173373 
L 305.121447 116.990195 
L 310.730642 116.749948 
L 316.339838 116.95855 
L 321.949033 116.661621 
L 327.558228 116.471908 
L 333.167423 116.231612 
L 338.776618 116.050132 
L 344.385813 116.220835 
" clip-path="url(#pc557c757f0)" style="fill: none; stroke: #de8f05; stroke-width: 1.5; stroke-linecap: square"/>
   </g>
   <g id="line2d_44">
    <path d="M 63.926054 39.269424 
L 69.535249 103.834664 
L 75.144444 100.914132 
L 80.753639 117.903984 
L 86.362835 125.116472 
L 91.97203 135.359062 
L 97.581225 127.723072 
L 103.19042 128.153891 
L 108.799615 119.339676 
L 114.408811 119.396763 
L 120.018006 119.576898 
L 125.627201 119.632875 
L 131.236396 119.665343 
L 136.845591 119.697156 
L 142.454787 119.624542 
L 148.063982 119.411838 
L 153.673177 119.205372 
L 159.282372 119.000238 
L 164.891567 118.799026 
L 170.500763 118.811136 
L 176.109958 118.791953 
L 181.719153 118.607335 
L 187.328348 118.426735 
L 192.937543 118.24721 
L 198.546738 118.071743 
L 204.155934 117.935162 
L 209.765129 117.822662 
L 215.374324 117.665293 
L 220.983519 117.510314 
L 226.592714 117.384557 
L 232.20191 117.234924 
L 237.811105 117.058293 
L 243.4203 117.267211 
L 249.029495 117.090079 
L 254.63869 116.926038 
L 260.247886 116.767564 
L 265.857081 116.611077 
L 271.466276 116.455607 
L 277.075471 116.302108 
L 282.684666 116.173973 
L 288.293862 116.076295 
L 293.903057 116.313483 
L 299.512252 116.193799 
L 305.121447 116.096785 
L 310.730642 115.976374 
L 316.339838 115.860414 
L 321.949033 115.76979 
L 327.558228 115.706928 
L 333.167423 115.626586 
L 338.776618 115.54592 
L 344.385813 115.468359 
" clip-path="url(#pc557c757f0)" style="fill: none; stroke: #029e73; stroke-width: 1.5; stroke-linecap: square"/>
   </g>
   <g id="line2d_45">
    <path d="M 63.926054 39.269424 
L 69.535249 110.489014 
L 75.144444 130.127797 
L 80.753639 129.484133 
L 86.362835 134.712874 
L 91.97203 127.867034 
L 97.581225 130.704742 
L 103.19042 116.081881 
L 108.799615 122.948788 
L 114.408811 114.32358 
L 120.018006 113.025797 
L 125.627201 106.60799 
L 131.236396 114.561176 
L 136.845591 116.333461 
L 142.454787 106.510707 
L 148.063982 114.114666 
L 153.673177 106.806872 
L 159.282372 105.86459 
L 164.891567 107.440027 
L 170.500763 111.971544 
L 176.109958 108.502605 
L 181.719153 112.218493 
L 187.328348 108.539513 
L 192.937543 114.013599 
L 198.546738 105.246319 
L 204.155934 105.998607 
L 209.765129 109.01496 
L 215.374324 116.604394 
L 220.983519 123.066541 
L 226.592714 120.41896 
L 232.20191 119.419707 
L 237.811105 121.542186 
L 243.4203 121.621914 
L 249.029495 122.459933 
L 254.63869 126.677165 
L 260.247886 126.855718 
L 265.857081 126.391832 
L 271.466276 126.288005 
L 277.075471 140.825256 
L 282.684666 133.432193 
L 288.293862 133.326276 
L 293.903057 136.426641 
L 299.512252 144.233849 
L 305.121447 157.651298 
L 310.730642 136.486824 
L 316.339838 137.894959 
L 321.949033 139.970968 
L 327.558228 137.22822 
L 333.167423 145.734834 
L 338.776618 135.133577 
L 344.385813 146.413435 
" clip-path="url(#pc557c757f0)" style="fill: none; stroke: #d55e00; stroke-width: 1.5; stroke-linecap: square"/>
   </g>
   <g id="line2d_46"/>
   <g id="line2d_47"/>
   <g id="line2d_48"/>
   <g id="line2d_49"/>
   <g id="patch_3">
    <path d="M 63.926054 185.24 
L 63.926054 28.32 
" style="fill: none; stroke: #000000; stroke-width: 0.8; stroke-linejoin: miter; stroke-linecap: square"/>
   </g>
   <g id="patch_4">
    <path d="M 63.926054 185.24 
L 344.385813 185.24 
" style="fill: none; stroke: #000000; stroke-width: 0.8; stroke-linejoin: miter; stroke-linecap: square"/>
   </g>
   <g id="text_12">
    <!-- Power 14 -->
    <g transform="translate(167.250934 22.32) scale(0.16 -0.16)">
     <defs>
      <path id="DejaVuSans-77" d="M 269 3500 
L 844 3500 
L 1563 769 
L 2278 3500 
L 2956 3500 
L 3675 769 
L 4391 3500 
L 4966 3500 
L 4050 0 
L 3372 0 
L 2619 2869 
L 1863 0 
L 1184 0 
L 269 3500 
z
" transform="scale(0.015625)"/>
     </defs>
     <use xlink:href="#DejaVuSans-50"/>
     <use xlink:href="#DejaVuSans-6f" x="56.677734"/>
     <use xlink:href="#DejaVuSans-77" x="117.859375"/>
     <use xlink:href="#DejaVuSans-65" x="199.646484"/>
     <use xlink:href="#DejaVuSans-72" x="261.169922"/>
     <use xlink:href="#DejaVuSans-20" x="302.283203"/>
     <use xlink:href="#DejaVuSans-31" x="334.070312"/>
     <use xlink:href="#DejaVuSans-34" x="397.693359"/>
    </g>
   </g>
  </g>
  <g id="axes_2">
   <g id="patch_5">
    <path d="M 386.077867 185.24 
L 666.537627 185.24 
L 666.537627 28.32 
L 386.077867 28.32 
z
" style="fill: #ffffff"/>
   </g>
   <g id="PolyCollection_5">
    <defs>
     <path id="m234818bec6" d="M 386.077867 -174.116346 
L 386.077867 -145.145377 
L 391.687063 -128.567577 
L 397.296258 -123.937581 
L 402.905453 -115.896593 
L 408.514648 -115.522931 
L 414.123843 -109.012119 
L 419.733039 -105.354918 
L 425.342234 -100.706221 
L 430.951429 -97.437474 
L 436.560624 -95.961119 
L 442.169819 -93.470265 
L 447.779014 -91.643118 
L 453.38821 -85.736176 
L 458.997405 -89.234568 
L 464.6066 -87.30731 
L 470.215795 -83.662525 
L 475.82499 -83.483264 
L 481.434186 -79.889274 
L 487.043381 -76.319812 
L 492.652576 -82.757129 
L 498.261771 -81.374161 
L 503.870966 -82.905508 
L 509.480162 -82.223857 
L 515.089357 -81.625201 
L 520.698552 -82.816278 
L 526.307747 -82.651134 
L 531.916942 -81.196909 
L 537.526138 -82.048936 
L 543.135333 -80.220616 
L 548.744528 -78.723287 
L 554.353723 -74.065744 
L 559.962918 -78.478526 
L 565.572114 -76.176169 
L 571.181309 -74.773126 
L 576.790504 -73.126243 
L 582.399699 -71.327758 
L 588.008894 -73.109347 
L 593.618089 -72.527154 
L 599.227285 -70.268272 
L 604.83648 -75.214931 
L 610.445675 -74.1255 
L 616.05487 -74.411552 
L 621.664065 -73.39614 
L 627.273261 -76.207707 
L 632.882456 -74.497396 
L 638.491651 -75.426322 
L 644.100846 -74.038328 
L 649.710041 -75.128342 
L 655.319237 -64.352494 
L 660.928432 -69.427143 
L 666.537627 -68.720723 
L 666.537627 -102.74457 
L 666.537627 -102.74457 
L 660.928432 -103.001538 
L 655.319237 -104.223655 
L 649.710041 -102.712343 
L 644.100846 -103.193541 
L 638.491651 -102.912304 
L 632.882456 -103.503288 
L 627.273261 -103.33085 
L 621.664065 -104.912665 
L 616.05487 -105.272744 
L 610.445675 -104.597428 
L 604.83648 -104.790353 
L 599.227285 -105.407519 
L 593.618089 -106.178755 
L 588.008894 -107.106733 
L 582.399699 -105.780602 
L 576.790504 -105.642761 
L 571.181309 -105.590208 
L 565.572114 -105.437735 
L 559.962918 -104.026485 
L 554.353723 -105.224198 
L 548.744528 -105.835839 
L 543.135333 -109.535016 
L 537.526138 -108.357003 
L 531.916942 -106.659856 
L 526.307747 -106.401592 
L 520.698552 -105.857634 
L 515.089357 -109.303135 
L 509.480162 -111.751734 
L 503.870966 -105.978206 
L 498.261771 -106.385858 
L 492.652576 -105.9818 
L 487.043381 -106.481764 
L 481.434186 -106.247867 
L 475.82499 -106.593793 
L 470.215795 -109.274751 
L 464.6066 -111.010281 
L 458.997405 -112.908738 
L 453.38821 -115.310142 
L 447.779014 -118.99774 
L 442.169819 -128.872828 
L 436.560624 -129.435276 
L 430.951429 -131.295002 
L 425.342234 -136.02278 
L 419.733039 -134.301013 
L 414.123843 -135.736613 
L 408.514648 -138.72843 
L 402.905453 -141.217908 
L 397.296258 -143.237153 
L 391.687063 -147.191078 
L 386.077867 -174.116346 
z
" style="stroke: #0173b2; stroke-opacity: 0.2"/>
    </defs>
    <g clip-path="url(#p2aa904be31)">
     <use xlink:href="#m234818bec6" x="0" y="216" style="fill: #0173b2; fill-opacity: 0.2; stroke: #0173b2; stroke-opacity: 0.2"/>
    </g>
   </g>
   <g id="PolyCollection_6">
    <defs>
     <path id="m4e8f8a8e97" d="M 386.077867 -175.127286 
L 386.077867 -145.145377 
L 391.687063 -92.886278 
L 397.296258 -72.355227 
L 402.905453 -54.00491 
L 408.514648 -63.037945 
L 414.123843 -61.379873 
L 419.733039 -55.309591 
L 425.342234 -64.288108 
L 430.951429 -60.568179 
L 436.560624 -56.237348 
L 442.169819 -56.156581 
L 447.779014 -55.354047 
L 453.38821 -55.053928 
L 458.997405 -52.64208 
L 464.6066 -55.826867 
L 470.215795 -53.827893 
L 475.82499 -58.154981 
L 481.434186 -55.359865 
L 487.043381 -52.347315 
L 492.652576 -55.14471 
L 498.261771 -56.058446 
L 503.870966 -54.591904 
L 509.480162 -67.098171 
L 515.089357 -65.714837 
L 520.698552 -67.402164 
L 526.307747 -69.967929 
L 531.916942 -66.950833 
L 537.526138 -65.694226 
L 543.135333 -64.985551 
L 548.744528 -62.151235 
L 554.353723 -64.038676 
L 559.962918 -66.062298 
L 565.572114 -63.636705 
L 571.181309 -64.112888 
L 576.790504 -65.226655 
L 582.399699 -59.75767 
L 588.008894 -64.855728 
L 593.618089 -71.823039 
L 599.227285 -61.732806 
L 604.83648 -62.151614 
L 610.445675 -63.056882 
L 616.05487 -53.119794 
L 621.664065 -62.653839 
L 627.273261 -57.190569 
L 632.882456 -67.682377 
L 638.491651 -47.718266 
L 644.100846 -57.406512 
L 649.710041 -48.917679 
L 655.319237 -57.657782 
L 660.928432 -56.715295 
L 666.537627 -52.413122 
L 666.537627 -95.934418 
L 666.537627 -95.934418 
L 660.928432 -96.254213 
L 655.319237 -96.591407 
L 649.710041 -96.276675 
L 644.100846 -96.157819 
L 638.491651 -97.466748 
L 632.882456 -99.084602 
L 627.273261 -96.388106 
L 621.664065 -96.328448 
L 616.05487 -97.889057 
L 610.445675 -97.303352 
L 604.83648 -96.439608 
L 599.227285 -96.537326 
L 593.618089 -98.57159 
L 588.008894 -96.708808 
L 582.399699 -96.464021 
L 576.790504 -97.663769 
L 571.181309 -98.36474 
L 565.572114 -96.649893 
L 559.962918 -96.981711 
L 554.353723 -96.729984 
L 548.744528 -96.451719 
L 543.135333 -96.680642 
L 537.526138 -96.756044 
L 531.916942 -98.321506 
L 526.307747 -98.410594 
L 520.698552 -98.455525 
L 515.089357 -96.89439 
L 509.480162 -96.964278 
L 503.870966 -96.818518 
L 498.261771 -97.22136 
L 492.652576 -97.896191 
L 487.043381 -98.505755 
L 481.434186 -98.421509 
L 475.82499 -98.425216 
L 470.215795 -97.954269 
L 464.6066 -98.118858 
L 458.997405 -96.782278 
L 453.38821 -97.293348 
L 447.779014 -98.373811 
L 442.169819 -97.063194 
L 436.560624 -96.672719 
L 430.951429 -98.232269 
L 425.342234 -98.349697 
L 419.733039 -96.878107 
L 414.123843 -88.210232 
L 408.514648 -87.328919 
L 402.905453 -85.358769 
L 397.296258 -93.425979 
L 391.687063 -121.964135 
L 386.077867 -175.127286 
z
" style="stroke: #de8f05; stroke-opacity: 0.2"/>
    </defs>
    <g clip-path="url(#p2aa904be31)">
     <use xlink:href="#m4e8f8a8e97" x="0" y="216" style="fill: #de8f05; fill-opacity: 0.2; stroke: #de8f05; stroke-opacity: 0.2"/>
    </g>
   </g>
   <g id="PolyCollection_7">
    <defs>
     <path id="mf447b3c8da" d="M 386.077867 -174.116346 
L 386.077867 -145.145377 
L 391.687063 -88.99105 
L 397.296258 -72.338038 
L 402.905453 -54.008055 
L 408.514648 -60.947455 
L 414.123843 -57.873425 
L 419.733039 -56.146719 
L 425.342234 -59.826098 
L 430.951429 -71.289417 
L 436.560624 -72.69539 
L 442.169819 -71.752039 
L 447.779014 -68.991798 
L 453.38821 -79.144903 
L 458.997405 -69.123296 
L 464.6066 -79.91176 
L 470.215795 -67.667126 
L 475.82499 -72.810827 
L 481.434186 -66.701594 
L 487.043381 -74.817538 
L 492.652576 -73.740947 
L 498.261771 -67.515223 
L 503.870966 -66.363966 
L 509.480162 -71.514067 
L 515.089357 -71.61912 
L 520.698552 -66.739708 
L 526.307747 -68.809112 
L 531.916942 -68.369964 
L 537.526138 -68.544587 
L 543.135333 -70.59583 
L 548.744528 -66.131678 
L 554.353723 -72.904807 
L 559.962918 -61.610913 
L 565.572114 -66.537382 
L 571.181309 -62.775352 
L 576.790504 -71.571465 
L 582.399699 -65.658105 
L 588.008894 -64.560194 
L 593.618089 -64.828356 
L 599.227285 -61.880651 
L 604.83648 -58.037052 
L 610.445675 -72.376579 
L 616.05487 -61.363541 
L 621.664065 -60.400904 
L 627.273261 -69.952305 
L 632.882456 -56.392965 
L 638.491651 -59.826914 
L 644.100846 -57.271338 
L 649.710041 -74.91489 
L 655.319237 -75.796991 
L 660.928432 -48.31829 
L 666.537627 -51.598816 
L 666.537627 -101.814082 
L 666.537627 -101.814082 
L 660.928432 -101.969922 
L 655.319237 -101.895377 
L 649.710041 -102.037699 
L 644.100846 -101.965007 
L 638.491651 -102.023633 
L 632.882456 -101.949991 
L 627.273261 -102.105122 
L 621.664065 -96.474925 
L 616.05487 -97.288945 
L 610.445675 -97.770121 
L 604.83648 -96.414778 
L 599.227285 -96.689865 
L 593.618089 -97.741352 
L 588.008894 -96.941513 
L 582.399699 -98.133988 
L 576.790504 -99.463403 
L 571.181309 -96.555137 
L 565.572114 -96.915253 
L 559.962918 -97.014355 
L 554.353723 -99.16985 
L 548.744528 -98.432016 
L 543.135333 -97.775594 
L 537.526138 -97.286871 
L 531.916942 -98.435227 
L 526.307747 -98.182467 
L 520.698552 -97.08652 
L 515.089357 -98.732765 
L 509.480162 -98.029717 
L 503.870966 -97.100009 
L 498.261771 -97.216271 
L 492.652576 -98.212737 
L 487.043381 -98.403072 
L 481.434186 -97.011026 
L 475.82499 -97.976593 
L 470.215795 -97.107877 
L 464.6066 -98.44973 
L 458.997405 -97.309777 
L 453.38821 -87.829778 
L 447.779014 -86.424555 
L 442.169819 -87.433467 
L 436.560624 -86.889993 
L 430.951429 -87.1747 
L 425.342234 -86.007552 
L 419.733039 -86.27083 
L 414.123843 -86.610931 
L 408.514648 -86.246775 
L 402.905453 -85.35338 
L 397.296258 -95.156741 
L 391.687063 -121.964135 
L 386.077867 -174.116346 
z
" style="stroke: #029e73; stroke-opacity: 0.2"/>
    </defs>
    <g clip-path="url(#p2aa904be31)">
     <use xlink:href="#mf447b3c8da" x="0" y="216" style="fill: #029e73; fill-opacity: 0.2; stroke: #029e73; stroke-opacity: 0.2"/>
    </g>
   </g>
   <g id="PolyCollection_8">
    <defs>
     <path id="m13b8e75901" d="M 386.077867 -174.116346 
L 386.077867 -145.145377 
L 391.687063 -93.933604 
L 397.296258 -66.345004 
L 402.905453 -61.323447 
L 408.514648 -62.10841 
L 414.123843 -64.574607 
L 419.733039 -57.795117 
L 425.342234 -53.811598 
L 430.951429 -51.184744 
L 436.560624 -55.978791 
L 442.169819 -60.241794 
L 447.779014 -67.892169 
L 453.38821 -72.119486 
L 458.997405 -67.417713 
L 464.6066 -65.633912 
L 470.215795 -59.291327 
L 475.82499 -66.534994 
L 481.434186 -67.299547 
L 487.043381 -66.29671 
L 492.652576 -64.520689 
L 498.261771 -58.952405 
L 503.870966 -58.952405 
L 509.480162 -61.184057 
L 515.089357 -47.318876 
L 520.698552 -54.173837 
L 526.307747 -50.401034 
L 531.916942 -62.525022 
L 537.526138 -61.158336 
L 543.135333 -59.525129 
L 548.744528 -65.200921 
L 554.353723 -59.70031 
L 559.962918 -63.616613 
L 565.572114 -87.488359 
L 571.181309 -55.901751 
L 576.790504 -54.613091 
L 582.399699 -54.452314 
L 588.008894 -55.73485 
L 593.618089 -52.706374 
L 599.227285 -53.545821 
L 604.83648 -53.830568 
L 610.445675 -53.899844 
L 616.05487 -54.639775 
L 621.664065 -53.808292 
L 627.273261 -45.086133 
L 632.882456 -50.410194 
L 638.491651 -53.593067 
L 644.100846 -51.678486 
L 649.710041 -40.662908 
L 655.319237 -50.837244 
L 660.928432 -52.498868 
L 666.537627 -37.634633 
L 666.537627 -76.924697 
L 666.537627 -76.924697 
L 660.928432 -81.193222 
L 655.319237 -79.790165 
L 649.710041 -79.548735 
L 644.100846 -78.535318 
L 638.491651 -80.848942 
L 632.882456 -79.964832 
L 627.273261 -77.637337 
L 621.664065 -78.369611 
L 616.05487 -80.544525 
L 610.445675 -79.771042 
L 604.83648 -78.906973 
L 599.227285 -78.791904 
L 593.618089 -77.51722 
L 588.008894 -81.073445 
L 582.399699 -77.738715 
L 576.790504 -80.194259 
L 571.181309 -81.590909 
L 565.572114 -92.161106 
L 559.962918 -98.050584 
L 554.353723 -93.974922 
L 548.744528 -91.760083 
L 543.135333 -91.760083 
L 537.526138 -93.77878 
L 531.916942 -92.020111 
L 526.307747 -93.653185 
L 520.698552 -93.528121 
L 515.089357 -93.528121 
L 509.480162 -93.528121 
L 503.870966 -92.786652 
L 498.261771 -92.391117 
L 492.652576 -92.401072 
L 487.043381 -93.108107 
L 481.434186 -93.807716 
L 475.82499 -93.531437 
L 470.215795 -93.146156 
L 464.6066 -93.531437 
L 458.997405 -94.175163 
L 453.38821 -92.21002 
L 447.779014 -93.893691 
L 442.169819 -94.44542 
L 436.560624 -94.072357 
L 430.951429 -94.072357 
L 425.342234 -94.072357 
L 419.733039 -94.072357 
L 414.123843 -94.44542 
L 408.514648 -94.072357 
L 402.905453 -94.072357 
L 397.296258 -98.289494 
L 391.687063 -124.678026 
L 386.077867 -174.116346 
z
" style="stroke: #d55e00; stroke-opacity: 0.2"/>
    </defs>
    <g clip-path="url(#p2aa904be31)">
     <use xlink:href="#m13b8e75901" x="0" y="216" style="fill: #d55e00; fill-opacity: 0.2; stroke: #d55e00; stroke-opacity: 0.2"/>
    </g>
   </g>
   <g id="matplotlib.axis_3">
    <g id="xtick_7">
     <g id="line2d_50">
      <g>
       <use xlink:href="#m20dafb491e" x="386.077867" y="185.24" style="stroke: #000000; stroke-width: 0.8"/>
      </g>
     </g>
     <g id="text_13">
      <!-- 0 -->
      <g transform="translate(382.260367 201.358125) scale(0.12 -0.12)">
       <use xlink:href="#DejaVuSans-30"/>
      </g>
     </g>
    </g>
    <g id="xtick_8">
     <g id="line2d_51">
      <g>
       <use xlink:href="#m20dafb491e" x="442.169819" y="185.24" style="stroke: #000000; stroke-width: 0.8"/>
      </g>
     </g>
     <g id="text_14">
      <!-- 10 -->
      <g transform="translate(434.534819 201.358125) scale(0.12 -0.12)">
       <use xlink:href="#DejaVuSans-31"/>
       <use xlink:href="#DejaVuSans-30" x="63.623047"/>
      </g>
     </g>
    </g>
    <g id="xtick_9">
     <g id="line2d_52">
      <g>
       <use xlink:href="#m20dafb491e" x="498.261771" y="185.24" style="stroke: #000000; stroke-width: 0.8"/>
      </g>
     </g>
     <g id="text_15">
      <!-- 20 -->
      <g transform="translate(490.626771 201.358125) scale(0.12 -0.12)">
       <use xlink:href="#DejaVuSans-32"/>
       <use xlink:href="#DejaVuSans-30" x="63.623047"/>
      </g>
     </g>
    </g>
    <g id="xtick_10">
     <g id="line2d_53">
      <g>
       <use xlink:href="#m20dafb491e" x="554.353723" y="185.24" style="stroke: #000000; stroke-width: 0.8"/>
      </g>
     </g>
     <g id="text_16">
      <!-- 30 -->
      <g transform="translate(546.718723 201.358125) scale(0.12 -0.12)">
       <use xlink:href="#DejaVuSans-33"/>
       <use xlink:href="#DejaVuSans-30" x="63.623047"/>
      </g>
     </g>
    </g>
    <g id="xtick_11">
     <g id="line2d_54">
      <g>
       <use xlink:href="#m20dafb491e" x="610.445675" y="185.24" style="stroke: #000000; stroke-width: 0.8"/>
      </g>
     </g>
     <g id="text_17">
      <!-- 40 -->
      <g transform="translate(602.810675 201.358125) scale(0.12 -0.12)">
       <use xlink:href="#DejaVuSans-34"/>
       <use xlink:href="#DejaVuSans-30" x="63.623047"/>
      </g>
     </g>
    </g>
    <g id="xtick_12">
     <g id="line2d_55">
      <g>
       <use xlink:href="#m20dafb491e" x="666.537627" y="185.24" style="stroke: #000000; stroke-width: 0.8"/>
      </g>
     </g>
     <g id="text_18">
      <!-- 50 -->
      <g transform="translate(658.902627 201.358125) scale(0.12 -0.12)">
       <use xlink:href="#DejaVuSans-35"/>
       <use xlink:href="#DejaVuSans-30" x="63.623047"/>
      </g>
     </g>
    </g>
   </g>
   <g id="matplotlib.axis_4">
    <g id="ytick_36">
     <g id="line2d_56">
      <g>
       <use xlink:href="#m971a3aab42" x="386.077867" y="171.377601" style="stroke: #000000; stroke-width: 0.8"/>
      </g>
     </g>
     <g id="text_19">
      <!-- $\mathdefault{10^{-2}}$ -->
      <g transform="translate(355.577867 175.17682) scale(0.1 -0.1)">
       <use xlink:href="#DejaVuSans-31" transform="translate(0 0.765625)"/>
       <use xlink:href="#DejaVuSans-30" transform="translate(63.623047 0.765625)"/>
       <use xlink:href="#DejaVuSans-2212" transform="translate(128.203125 39.046875) scale(0.7)"/>
       <use xlink:href="#DejaVuSans-32" transform="translate(186.855469 39.046875) scale(0.7)"/>
      </g>
     </g>
    </g>
    <g id="ytick_37">
     <g id="line2d_57">
      <g>
       <use xlink:href="#m971a3aab42" x="386.077867" y="105.636976" style="stroke: #000000; stroke-width: 0.8"/>
      </g>
     </g>
     <g id="text_20">
      <!-- $\mathdefault{10^{-1}}$ -->
      <g transform="translate(355.577867 109.436194) scale(0.1 -0.1)">
       <use xlink:href="#DejaVuSans-31" transform="translate(0 0.684375)"/>
       <use xlink:href="#DejaVuSans-30" transform="translate(63.623047 0.684375)"/>
       <use xlink:href="#DejaVuSans-2212" transform="translate(128.203125 38.965625) scale(0.7)"/>
       <use xlink:href="#DejaVuSans-31" transform="translate(186.855469 38.965625) scale(0.7)"/>
      </g>
     </g>
    </g>
    <g id="ytick_38">
     <g id="line2d_58">
      <g>
       <use xlink:href="#m971a3aab42" x="386.077867" y="39.89635" style="stroke: #000000; stroke-width: 0.8"/>
      </g>
     </g>
     <g id="text_21">
      <!-- $\mathdefault{10^{0}}$ -->
      <g transform="translate(361.477867 43.695568) scale(0.1 -0.1)">
       <use xlink:href="#DejaVuSans-31" transform="translate(0 0.765625)"/>
       <use xlink:href="#DejaVuSans-30" transform="translate(63.623047 0.765625)"/>
       <use xlink:href="#DejaVuSans-30" transform="translate(128.203125 39.046875) scale(0.7)"/>
      </g>
     </g>
    </g>
    <g id="ytick_39">
     <g id="line2d_59">
      <g>
       <use xlink:href="#m703e00e4fe" x="386.077867" y="181.560953" style="stroke: #000000; stroke-width: 0.6"/>
      </g>
     </g>
    </g>
    <g id="ytick_40">
     <g id="line2d_60">
      <g>
       <use xlink:href="#m703e00e4fe" x="386.077867" y="177.748526" style="stroke: #000000; stroke-width: 0.6"/>
      </g>
     </g>
    </g>
    <g id="ytick_41">
     <g id="line2d_61">
      <g>
       <use xlink:href="#m703e00e4fe" x="386.077867" y="174.385728" style="stroke: #000000; stroke-width: 0.6"/>
      </g>
     </g>
    </g>
    <g id="ytick_42">
     <g id="line2d_62">
      <g>
       <use xlink:href="#m703e00e4fe" x="386.077867" y="151.587701" style="stroke: #000000; stroke-width: 0.6"/>
      </g>
     </g>
    </g>
    <g id="ytick_43">
     <g id="line2d_63">
      <g>
       <use xlink:href="#m703e00e4fe" x="386.077867" y="140.011352" style="stroke: #000000; stroke-width: 0.6"/>
      </g>
     </g>
    </g>
    <g id="ytick_44">
     <g id="line2d_64">
      <g>
       <use xlink:href="#m703e00e4fe" x="386.077867" y="131.797801" style="stroke: #000000; stroke-width: 0.6"/>
      </g>
     </g>
    </g>
    <g id="ytick_45">
     <g id="line2d_65">
      <g>
       <use xlink:href="#m703e00e4fe" x="386.077867" y="125.426876" style="stroke: #000000; stroke-width: 0.6"/>
      </g>
     </g>
    </g>
    <g id="ytick_46">
     <g id="line2d_66">
      <g>
       <use xlink:href="#m703e00e4fe" x="386.077867" y="120.221451" style="stroke: #000000; stroke-width: 0.6"/>
      </g>
     </g>
    </g>
    <g id="ytick_47">
     <g id="line2d_67">
      <g>
       <use xlink:href="#m703e00e4fe" x="386.077867" y="115.820327" style="stroke: #000000; stroke-width: 0.6"/>
      </g>
     </g>
    </g>
    <g id="ytick_48">
     <g id="line2d_68">
      <g>
       <use xlink:href="#m703e00e4fe" x="386.077867" y="112.0079" style="stroke: #000000; stroke-width: 0.6"/>
      </g>
     </g>
    </g>
    <g id="ytick_49">
     <g id="line2d_69">
      <g>
       <use xlink:href="#m703e00e4fe" x="386.077867" y="108.645102" style="stroke: #000000; stroke-width: 0.6"/>
      </g>
     </g>
    </g>
    <g id="ytick_50">
     <g id="line2d_70">
      <g>
       <use xlink:href="#m703e00e4fe" x="386.077867" y="85.847075" style="stroke: #000000; stroke-width: 0.6"/>
      </g>
     </g>
    </g>
    <g id="ytick_51">
     <g id="line2d_71">
      <g>
       <use xlink:href="#m703e00e4fe" x="386.077867" y="74.270726" style="stroke: #000000; stroke-width: 0.6"/>
      </g>
     </g>
    </g>
    <g id="ytick_52">
     <g id="line2d_72">
      <g>
       <use xlink:href="#m703e00e4fe" x="386.077867" y="66.057175" style="stroke: #000000; stroke-width: 0.6"/>
      </g>
     </g>
    </g>
    <g id="ytick_53">
     <g id="line2d_73">
      <g>
       <use xlink:href="#m703e00e4fe" x="386.077867" y="59.68625" style="stroke: #000000; stroke-width: 0.6"/>
      </g>
     </g>
    </g>
    <g id="ytick_54">
     <g id="line2d_74">
      <g>
       <use xlink:href="#m703e00e4fe" x="386.077867" y="54.480825" style="stroke: #000000; stroke-width: 0.6"/>
      </g>
     </g>
    </g>
    <g id="ytick_55">
     <g id="line2d_75">
      <g>
       <use xlink:href="#m703e00e4fe" x="386.077867" y="50.079701" style="stroke: #000000; stroke-width: 0.6"/>
      </g>
     </g>
    </g>
    <g id="ytick_56">
     <g id="line2d_76">
      <g>
       <use xlink:href="#m703e00e4fe" x="386.077867" y="46.267275" style="stroke: #000000; stroke-width: 0.6"/>
      </g>
     </g>
    </g>
    <g id="ytick_57">
     <g id="line2d_77">
      <g>
       <use xlink:href="#m703e00e4fe" x="386.077867" y="42.904476" style="stroke: #000000; stroke-width: 0.6"/>
      </g>
     </g>
    </g>
   </g>
   <g id="line2d_78">
    <path d="M 386.077867 50.738866 
L 391.687063 76.628355 
L 397.296258 80.812017 
L 402.905453 84.723054 
L 408.514648 86.578873 
L 414.123843 90.581055 
L 419.733039 92.650795 
L 425.342234 92.491096 
L 430.951429 96.884085 
L 436.560624 98.653641 
L 442.169819 101.044538 
L 447.779014 106.846184 
L 453.38821 112.050827 
L 458.997405 113.067988 
L 464.6066 114.349117 
L 470.215795 116.21018 
L 475.82499 117.972428 
L 481.434186 118.688928 
L 487.043381 118.519392 
L 492.652576 118.999214 
L 498.261771 118.744426 
L 503.870966 120.391712 
L 509.480162 116.491067 
L 515.089357 117.460445 
L 520.698552 117.822196 
L 526.307747 119.704497 
L 531.916942 120.286175 
L 537.526138 119.275676 
L 543.135333 120.23391 
L 548.744528 121.647262 
L 554.353723 122.928367 
L 559.962918 121.980415 
L 565.572114 121.597721 
L 571.181309 121.841215 
L 576.790504 122.216841 
L 582.399699 122.53668 
L 588.008894 121.105019 
L 593.618089 121.952013 
L 599.227285 122.479091 
L 604.83648 122.327649 
L 610.445675 122.752701 
L 616.05487 122.176501 
L 621.664065 122.701179 
L 627.273261 123.124156 
L 632.882456 123.084156 
L 638.491651 123.64343 
L 644.100846 123.813791 
L 649.710041 123.870443 
L 655.319237 124.235268 
L 660.928432 125.111044 
L 666.537627 125.473349 
" clip-path="url(#p2aa904be31)" style="fill: none; stroke: #0173b2; stroke-width: 1.5; stroke-linecap: square"/>
   </g>
   <g id="line2d_79">
    <path d="M 386.077867 50.738866 
L 391.687063 103.722736 
L 397.296258 131.20817 
L 402.905453 142.214482 
L 408.514648 137.14964 
L 414.123843 139.264028 
L 419.733039 135.047218 
L 425.342234 131.029449 
L 430.951429 134.102982 
L 436.560624 135.109333 
L 442.169819 134.757586 
L 447.779014 132.52271 
L 453.38821 134.80442 
L 458.997405 135.996519 
L 464.6066 133.301862 
L 470.215795 133.758456 
L 475.82499 132.222578 
L 481.434186 134.866143 
L 487.043381 135.753397 
L 492.652576 133.644643 
L 498.261771 134.724231 
L 503.870966 135.417637 
L 509.480162 132.450186 
L 515.089357 132.822429 
L 520.698552 132.278242 
L 526.307747 130.243033 
L 531.916942 130.982262 
L 537.526138 132.821887 
L 543.135333 133.038129 
L 548.744528 133.734924 
L 554.353723 133.31098 
L 559.962918 132.793346 
L 565.572114 133.407129 
L 571.181309 133.207018 
L 576.790504 131.917726 
L 582.399699 134.205256 
L 588.008894 132.941783 
L 593.618089 127.499569 
L 599.227285 133.661081 
L 604.83648 133.584868 
L 610.445675 132.609289 
L 616.05487 133.071636 
L 621.664065 133.455235 
L 627.273261 134.692532 
L 632.882456 127.850354 
L 638.491651 134.110541 
L 644.100846 134.663411 
L 649.710041 134.881583 
L 655.319237 134.289113 
L 660.928432 134.838989 
L 666.537627 135.651144 
" clip-path="url(#p2aa904be31)" style="fill: none; stroke: #de8f05; stroke-width: 1.5; stroke-linecap: square"/>
   </g>
   <g id="line2d_80">
    <path d="M 386.077867 50.738866 
L 391.687063 103.722736 
L 397.296258 131.212164 
L 402.905453 142.217737 
L 408.514648 139.687768 
L 414.123843 139.671282 
L 419.733039 140.872284 
L 425.342234 140.181692 
L 430.951429 136.243435 
L 436.560624 136.099975 
L 442.169819 135.918013 
L 447.779014 137.361499 
L 453.38821 133.163622 
L 458.997405 132.21093 
L 464.6066 127.780188 
L 470.215795 132.495811 
L 475.82499 130.772779 
L 481.434186 132.798531 
L 487.043381 129.549733 
L 492.652576 130.679283 
L 498.261771 132.498633 
L 503.870966 132.813027 
L 509.480162 130.954612 
L 515.089357 130.008924 
L 520.698552 132.774417 
L 526.307747 131.356376 
L 531.916942 130.884143 
L 537.526138 132.251677 
L 543.135333 131.475048 
L 548.744528 132.975985 
L 554.353723 127.043239 
L 559.962918 133.56452 
L 565.572114 132.892164 
L 571.181309 133.92286 
L 576.790504 127.203935 
L 582.399699 131.648259 
L 588.008894 133.447589 
L 593.618089 131.971629 
L 599.227285 133.639357 
L 604.83648 134.906065 
L 610.445675 130.655803 
L 616.05487 132.806161 
L 621.664065 134.265595 
L 627.273261 129.504705 
L 632.882456 130.201356 
L 638.491651 129.724563 
L 644.100846 130.007546 
L 649.710041 127.134645 
L 655.319237 126.958604 
L 660.928432 130.870347 
L 666.537627 130.566796 
" clip-path="url(#p2aa904be31)" style="fill: none; stroke: #029e73; stroke-width: 1.5; stroke-linecap: square"/>
   </g>
   <g id="line2d_81">
    <path d="M 386.077867 50.738866 
L 391.687063 103.34385 
L 397.296258 132.788422 
L 402.905453 136.032109 
L 408.514648 135.89437 
L 414.123843 135.440863 
L 419.733039 136.61381 
L 425.342234 137.201618 
L 430.951429 137.336886 
L 436.560624 136.890508 
L 442.169819 136.011123 
L 447.779014 134.376756 
L 453.38821 132.117556 
L 458.997405 132.802112 
L 464.6066 133.452783 
L 470.215795 136.882814 
L 475.82499 135.542268 
L 481.434186 135.040165 
L 487.043381 135.610689 
L 492.652576 136.338744 
L 498.261771 137.348668 
L 503.870966 137.348668 
L 509.480162 136.352521 
L 515.089357 138.337553 
L 520.698552 137.458938 
L 526.307747 137.893378 
L 531.916942 136.046522 
L 537.526138 136.220852 
L 543.135333 137.589577 
L 548.744528 136.529276 
L 554.353723 136.15411 
L 559.962918 130.262351 
L 565.572114 125.833217 
L 571.181309 141.52648 
L 576.790504 143.43643 
L 582.399699 144.508717 
L 588.008894 142.683468 
L 593.618089 145.110381 
L 599.227285 143.574512 
L 604.83648 146.681344 
L 610.445675 143.265301 
L 616.05487 142.325454 
L 621.664065 145.919941 
L 627.273261 150.562736 
L 632.882456 147.714722 
L 638.491651 144.624376 
L 644.100846 146.286095 
L 649.710041 152.915839 
L 655.319237 147.396399 
L 660.928432 147.018537 
L 666.537627 153.608405 
" clip-path="url(#p2aa904be31)" style="fill: none; stroke: #d55e00; stroke-width: 1.5; stroke-linecap: square"/>
   </g>
   <g id="line2d_82"/>
   <g id="line2d_83"/>
   <g id="line2d_84"/>
   <g id="line2d_85"/>
   <g id="patch_6">
    <path d="M 386.077867 185.24 
L 386.077867 28.32 
" style="fill: none; stroke: #000000; stroke-width: 0.8; stroke-linejoin: miter; stroke-linecap: square"/>
   </g>
   <g id="patch_7">
    <path d="M 386.077867 185.24 
L 666.537627 185.24 
" style="fill: none; stroke: #000000; stroke-width: 0.8; stroke-linejoin: miter; stroke-linecap: square"/>
   </g>
   <g id="text_22">
    <!-- Power 57 -->
    <g transform="translate(489.402747 22.32) scale(0.16 -0.16)">
     <defs>
      <path id="DejaVuSans-37" d="M 525 4666 
L 3525 4666 
L 3525 4397 
L 1831 0 
L 1172 0 
L 2766 4134 
L 525 4134 
L 525 4666 
z
" transform="scale(0.015625)"/>
     </defs>
     <use xlink:href="#DejaVuSans-50"/>
     <use xlink:href="#DejaVuSans-6f" x="56.677734"/>
     <use xlink:href="#DejaVuSans-77" x="117.859375"/>
     <use xlink:href="#DejaVuSans-65" x="199.646484"/>
     <use xlink:href="#DejaVuSans-72" x="261.169922"/>
     <use xlink:href="#DejaVuSans-20" x="302.283203"/>
     <use xlink:href="#DejaVuSans-35" x="334.070312"/>
     <use xlink:href="#DejaVuSans-37" x="397.693359"/>
    </g>
   </g>
  </g>
  <g id="legend_1">
   <g id="line2d_86">
    <path d="M 221.568813 201.420312 
L 231.568813 201.420312 
L 241.568813 201.420312 
" style="fill: none; stroke: #0173b2; stroke-width: 1.5; stroke-linecap: square"/>
   </g>
   <g id="text_23">
    <!-- $R_0$ -->
    <g transform="translate(249.568813 204.920312) scale(0.1 -0.1)">
     <defs>
      <path id="DejaVuSans-Oblique-52" d="M 1613 4147 
L 1294 2491 
L 2106 2491 
Q 2584 2491 2879 2755 
Q 3175 3019 3175 3444 
Q 3175 3784 2976 3965 
Q 2778 4147 2406 4147 
L 1613 4147 
z
M 2772 2241 
Q 2972 2194 3105 2009 
Q 3238 1825 3413 1275 
L 3809 0 
L 3144 0 
L 2778 1197 
Q 2638 1659 2453 1815 
Q 2269 1972 1888 1972 
L 1191 1972 
L 806 0 
L 172 0 
L 1081 4666 
L 2503 4666 
Q 3150 4666 3495 4373 
Q 3841 4081 3841 3531 
Q 3841 3044 3547 2687 
Q 3253 2331 2772 2241 
z
" transform="scale(0.015625)"/>
     </defs>
     <use xlink:href="#DejaVuSans-Oblique-52" transform="translate(0 0.09375)"/>
     <use xlink:href="#DejaVuSans-30" transform="translate(69.482422 -16.3125) scale(0.7)"/>
    </g>
   </g>
   <g id="line2d_87">
    <path d="M 281.268813 201.420312 
L 291.268813 201.420312 
L 301.268813 201.420312 
" style="fill: none; stroke: #de8f05; stroke-width: 1.5; stroke-linecap: square"/>
   </g>
   <g id="text_24">
    <!-- $GD_r$ -->
    <g transform="translate(309.268813 204.920312) scale(0.1 -0.1)">
     <defs>
      <path id="DejaVuSans-Oblique-47" d="M 3494 697 
L 3738 1919 
L 2700 1919 
L 2797 2438 
L 4453 2438 
L 4050 384 
Q 3634 156 3143 32 
Q 2653 -91 2156 -91 
Q 1278 -91 783 396 
Q 288 884 288 1753 
Q 288 2475 589 3126 
Q 891 3778 1422 4213 
Q 1756 4484 2153 4617 
Q 2550 4750 3034 4750 
Q 3472 4750 3873 4639 
Q 4275 4528 4641 4306 
L 4513 3634 
Q 4231 3928 3853 4083 
Q 3475 4238 3047 4238 
Q 2550 4238 2172 4048 
Q 1794 3859 1497 3463 
Q 1244 3125 1098 2667 
Q 953 2209 953 1734 
Q 953 1081 1287 751 
Q 1622 422 2284 422 
Q 2616 422 2925 492 
Q 3234 563 3494 697 
z
" transform="scale(0.015625)"/>
      <path id="DejaVuSans-Oblique-44" d="M 1081 4666 
L 2438 4666 
Q 3519 4666 4070 4208 
Q 4622 3750 4622 2847 
Q 4622 2250 4412 1698 
Q 4203 1147 3834 769 
Q 3463 381 2891 190 
Q 2319 0 1538 0 
L 172 0 
L 1081 4666 
z
M 1613 4147 
L 909 519 
L 1734 519 
Q 2794 519 3375 1128 
Q 3956 1738 3956 2847 
Q 3956 3519 3581 3833 
Q 3206 4147 2406 4147 
L 1613 4147 
z
" transform="scale(0.015625)"/>
      <path id="DejaVuSans-Oblique-72" d="M 2853 2969 
Q 2766 3016 2653 3041 
Q 2541 3066 2413 3066 
Q 1953 3066 1609 2717 
Q 1266 2369 1153 1784 
L 800 0 
L 225 0 
L 909 3500 
L 1484 3500 
L 1375 2956 
Q 1603 3259 1920 3421 
Q 2238 3584 2597 3584 
Q 2691 3584 2781 3573 
Q 2872 3563 2963 3538 
L 2853 2969 
z
" transform="scale(0.015625)"/>
     </defs>
     <use xlink:href="#DejaVuSans-Oblique-47" transform="translate(0 0.78125)"/>
     <use xlink:href="#DejaVuSans-Oblique-44" transform="translate(77.490234 0.78125)"/>
     <use xlink:href="#DejaVuSans-Oblique-72" transform="translate(154.492188 -15.625) scale(0.7)"/>
    </g>
   </g>
   <g id="line2d_88">
    <path d="M 347.968813 201.420312 
L 357.968813 201.420312 
L 367.968813 201.420312 
" style="fill: none; stroke: #029e73; stroke-width: 1.5; stroke-linecap: square"/>
   </g>
   <g id="text_25">
    <!-- $GD_a$ -->
    <g transform="translate(375.968813 204.920312) scale(0.1 -0.1)">
     <defs>
      <path id="DejaVuSans-Oblique-61" d="M 3438 1997 
L 3047 0 
L 2472 0 
L 2578 531 
Q 2325 219 2001 64 
Q 1678 -91 1281 -91 
Q 834 -91 548 182 
Q 263 456 263 884 
Q 263 1497 752 1853 
Q 1241 2209 2100 2209 
L 2900 2209 
L 2931 2363 
Q 2938 2388 2941 2417 
Q 2944 2447 2944 2509 
Q 2944 2788 2717 2942 
Q 2491 3097 2081 3097 
Q 1800 3097 1504 3025 
Q 1209 2953 897 2809 
L 997 3341 
Q 1322 3463 1633 3523 
Q 1944 3584 2234 3584 
Q 2853 3584 3176 3315 
Q 3500 3047 3500 2534 
Q 3500 2431 3484 2292 
Q 3469 2153 3438 1997 
z
M 2816 1759 
L 2241 1759 
Q 1534 1759 1195 1570 
Q 856 1381 856 984 
Q 856 709 1029 553 
Q 1203 397 1509 397 
Q 1978 397 2328 733 
Q 2678 1069 2791 1631 
L 2816 1759 
z
" transform="scale(0.015625)"/>
     </defs>
     <use xlink:href="#DejaVuSans-Oblique-47" transform="translate(0 0.78125)"/>
     <use xlink:href="#DejaVuSans-Oblique-44" transform="translate(77.490234 0.78125)"/>
     <use xlink:href="#DejaVuSans-Oblique-61" transform="translate(154.492188 -15.625) scale(0.7)"/>
    </g>
   </g>
   <g id="line2d_89">
    <path d="M 416.068813 201.420312 
L 426.068813 201.420312 
L 436.068813 201.420312 
" style="fill: none; stroke: #d55e00; stroke-width: 1.5; stroke-linecap: square"/>
   </g>
   <g id="text_26">
    <!-- $R_1$ -->
    <g transform="translate(444.068813 204.920312) scale(0.1 -0.1)">
     <use xlink:href="#DejaVuSans-Oblique-52" transform="translate(0 0.09375)"/>
     <use xlink:href="#DejaVuSans-31" transform="translate(69.482422 -16.3125) scale(0.7)"/>
    </g>
   </g>
  </g>
 </g>
 <defs>
  <clipPath id="pc557c757f0">
   <rect x="63.926054" y="28.32" width="280.45976" height="156.92"/>
  </clipPath>
  <clipPath id="p2aa904be31">
   <rect x="386.077867" y="28.32" width="280.45976" height="156.92"/>
  </clipPath>
 </defs>
</svg>
