<?xml version="1.0" encoding="utf-8" standalone="no"?>
<!DOCTYPE svg PUBLIC "-//W3C//DTD SVG 1.1//EN"
  "http://www.w3.org/Graphics/SVG/1.1/DTD/svg11.dtd">
<svg xmlns:xlink="http://www.w3.org/1999/xlink" width="1541.515518pt" height="216pt" viewBox="0 0 1541.515518 216" xmlns="http://www.w3.org/2000/svg" version="1.1">
 <metadata>
  <rdf:RDF xmlns:dc="http://purl.org/dc/elements/1.1/" xmlns:cc="http://creativecommons.org/ns#" xmlns:rdf="http://www.w3.org/1999/02/22-rdf-syntax-ns#">
   <cc:Work>
    <dc:type rdf:resource="http://purl.org/dc/dcmitype/StillImage"/>
    <dc:date>2024-03-08T11:02:34.457593</dc:date>
    <dc:format>image/svg+xml</dc:format>
    <dc:creator>
     <cc:Agent>
      <dc:title>Matplotlib v3.7.1, https://matplotlib.org/</dc:title>
     </cc:Agent>
    </dc:creator>
   </cc:Work>
  </rdf:RDF>
 </metadata>
 <defs>
  <style type="text/css">*{stroke-linejoin: round; stroke-linecap: butt}</style>
 </defs>
 <g id="figure_1">
  <g id="patch_1">
   <path d="M 0 216 
L 1541.515518 216 
L 1541.515518 0 
L 0 0 
z
" style="fill: #ffffff"/>
  </g>
  <g id="axes_1">
   <g id="patch_2">
    <path d="M 60.182054 185.24 
L 249.932538 185.24 
L 249.932538 28.32 
L 60.182054 28.32 
z
" style="fill: #ffffff"/>
   </g>
   <g id="PolyCollection_1">
    <defs>
     <path id="m617cc80bf8" d="M 60.182054 -137.809465 
L 60.182054 -134.869959 
L 79.157102 -132.937595 
L 98.132151 -134.822757 
L 117.107199 -134.199091 
L 136.082248 -131.936483 
L 155.057296 -134.101449 
L 174.032345 -133.904767 
L 193.007393 -135.70167 
L 211.982441 -134.052453 
L 230.95749 -136.578367 
L 249.932538 -133.756017 
L 249.932538 -139.269672 
L 249.932538 -139.269672 
L 230.95749 -139.497028 
L 211.982441 -138.012927 
L 193.007393 -138.214405 
L 174.032345 -138.807309 
L 155.057296 -137.645239 
L 136.082248 -138.053381 
L 117.107199 -136.67472 
L 98.132151 -137.059937 
L 79.157102 -138.093755 
L 60.182054 -137.809465 
z
" style="stroke: #0173b2; stroke-opacity: 0.2"/>
    </defs>
    <g clip-path="url(#p4393fddb4c)">
     <use xlink:href="#m617cc80bf8" x="0" y="216" style="fill: #0173b2; fill-opacity: 0.2; stroke: #0173b2; stroke-opacity: 0.2"/>
    </g>
   </g>
   <g id="PolyCollection_2">
    <defs>
     <path id="m4d2f4eb6da" d="M 60.182054 -137.850318 
L 60.182054 -134.680496 
L 79.157102 -126.916595 
L 98.132151 -105.956244 
L 117.107199 -96.402439 
L 136.082248 -118.784326 
L 155.057296 -141.091961 
L 174.032345 -97.001071 
L 193.007393 -100.766259 
L 211.982441 -63.578772 
L 230.95749 -46.266134 
L 249.932538 -37.892727 
L 249.932538 -142.212194 
L 249.932538 -142.212194 
L 230.95749 -159.261503 
L 211.982441 -140.091353 
L 193.007393 -145.644289 
L 174.032345 -154.405785 
L 155.057296 -148.194482 
L 136.082248 -148.707435 
L 117.107199 -161.508132 
L 98.132151 -131.048115 
L 79.157102 -140.454304 
L 60.182054 -137.850318 
z
" style="stroke: #de8f05; stroke-opacity: 0.2"/>
    </defs>
    <g clip-path="url(#p4393fddb4c)">
     <use xlink:href="#m4d2f4eb6da" x="0" y="216" style="fill: #de8f05; fill-opacity: 0.2; stroke: #de8f05; stroke-opacity: 0.2"/>
    </g>
   </g>
   <g id="PolyCollection_3">
    <defs>
     <path id="mea804801af" d="M 60.182054 -136.846815 
L 60.182054 -134.632858 
L 79.157102 -149.160804 
L 98.132151 -127.054732 
L 117.107199 -131.161273 
L 136.082248 -119.787015 
L 155.057296 -132.788205 
L 174.032345 -100.518935 
L 193.007393 -71.129811 
L 211.982441 -46.266134 
L 230.95749 -74.895 
L 249.932538 -142.442204 
L 249.932538 -175.990619 
L 249.932538 -175.990619 
L 230.95749 -174.614849 
L 211.982441 -142.894678 
L 193.007393 -175.964853 
L 174.032345 -156.543142 
L 155.057296 -175.990619 
L 136.082248 -175.416208 
L 117.107199 -175.796586 
L 98.132151 -180.547273 
L 79.157102 -152.847169 
L 60.182054 -136.846815 
z
" style="stroke: #029e73; stroke-opacity: 0.2"/>
    </defs>
    <g clip-path="url(#p4393fddb4c)">
     <use xlink:href="#mea804801af" x="0" y="216" style="fill: #029e73; fill-opacity: 0.2; stroke: #029e73; stroke-opacity: 0.2"/>
    </g>
   </g>
   <g id="PolyCollection_4">
    <defs>
     <path id="m67926e87f5" d="M 60.182054 -137.850318 
L 60.182054 -134.680496 
L 79.157102 -123.859834 
L 98.132151 -123.779323 
L 117.107199 -95.785935 
L 136.082248 -86.451827 
L 155.057296 -90.862423 
L 174.032345 -111.315503 
L 193.007393 -110.716871 
L 211.982441 -111.315502 
L 230.95749 -94.494804 
L 249.932538 -63.763987 
L 249.932538 -137.891091 
L 249.932538 -137.891091 
L 230.95749 -157.604894 
L 211.982441 -155.683597 
L 193.007393 -167.260083 
L 174.032345 -152.866903 
L 155.057296 -146.998074 
L 136.082248 -149.278475 
L 117.107199 -117.62205 
L 98.132151 -141.09196 
L 79.157102 -136.457563 
L 60.182054 -137.850318 
z
" style="stroke: #d55e00; stroke-opacity: 0.2"/>
    </defs>
    <g clip-path="url(#p4393fddb4c)">
     <use xlink:href="#m67926e87f5" x="0" y="216" style="fill: #d55e00; fill-opacity: 0.2; stroke: #d55e00; stroke-opacity: 0.2"/>
    </g>
   </g>
   <g id="matplotlib.axis_1">
    <g id="xtick_1">
     <g id="line2d_1">
      <defs>
       <path id="m27756e750f" d="M 0 0 
L 0 3.5 
" style="stroke: #000000; stroke-width: 0.8"/>
      </defs>
      <g>
       <use xlink:href="#m27756e750f" x="60.182054" y="185.24" style="stroke: #000000; stroke-width: 0.8"/>
      </g>
     </g>
     <g id="text_1">
      <!-- 0 -->
      <g transform="translate(56.364554 201.358125) scale(0.12 -0.12)">
       <defs>
        <path id="DejaVuSans-30" d="M 2034 4250 
Q 1547 4250 1301 3770 
Q 1056 3291 1056 2328 
Q 1056 1369 1301 889 
Q 1547 409 2034 409 
Q 2525 409 2770 889 
Q 3016 1369 3016 2328 
Q 3016 3291 2770 3770 
Q 2525 4250 2034 4250 
z
M 2034 4750 
Q 2819 4750 3233 4129 
Q 3647 3509 3647 2328 
Q 3647 1150 3233 529 
Q 2819 -91 2034 -91 
Q 1250 -91 836 529 
Q 422 1150 422 2328 
Q 422 3509 836 4129 
Q 1250 4750 2034 4750 
z
" transform="scale(0.015625)"/>
       </defs>
       <use xlink:href="#DejaVuSans-30"/>
      </g>
     </g>
    </g>
    <g id="xtick_2">
     <g id="line2d_2">
      <g>
       <use xlink:href="#m27756e750f" x="98.132151" y="185.24" style="stroke: #000000; stroke-width: 0.8"/>
      </g>
     </g>
     <g id="text_2">
      <!-- 2 -->
      <g transform="translate(94.314651 201.358125) scale(0.12 -0.12)">
       <defs>
        <path id="DejaVuSans-32" d="M 1228 531 
L 3431 531 
L 3431 0 
L 469 0 
L 469 531 
Q 828 903 1448 1529 
Q 2069 2156 2228 2338 
Q 2531 2678 2651 2914 
Q 2772 3150 2772 3378 
Q 2772 3750 2511 3984 
Q 2250 4219 1831 4219 
Q 1534 4219 1204 4116 
Q 875 4013 500 3803 
L 500 4441 
Q 881 4594 1212 4672 
Q 1544 4750 1819 4750 
Q 2544 4750 2975 4387 
Q 3406 4025 3406 3419 
Q 3406 3131 3298 2873 
Q 3191 2616 2906 2266 
Q 2828 2175 2409 1742 
Q 1991 1309 1228 531 
z
" transform="scale(0.015625)"/>
       </defs>
       <use xlink:href="#DejaVuSans-32"/>
      </g>
     </g>
    </g>
    <g id="xtick_3">
     <g id="line2d_3">
      <g>
       <use xlink:href="#m27756e750f" x="136.082248" y="185.24" style="stroke: #000000; stroke-width: 0.8"/>
      </g>
     </g>
     <g id="text_3">
      <!-- 4 -->
      <g transform="translate(132.264748 201.358125) scale(0.12 -0.12)">
       <defs>
        <path id="DejaVuSans-34" d="M 2419 4116 
L 825 1625 
L 2419 1625 
L 2419 4116 
z
M 2253 4666 
L 3047 4666 
L 3047 1625 
L 3713 1625 
L 3713 1100 
L 3047 1100 
L 3047 0 
L 2419 0 
L 2419 1100 
L 313 1100 
L 313 1709 
L 2253 4666 
z
" transform="scale(0.015625)"/>
       </defs>
       <use xlink:href="#DejaVuSans-34"/>
      </g>
     </g>
    </g>
    <g id="xtick_4">
     <g id="line2d_4">
      <g>
       <use xlink:href="#m27756e750f" x="174.032345" y="185.24" style="stroke: #000000; stroke-width: 0.8"/>
      </g>
     </g>
     <g id="text_4">
      <!-- 6 -->
      <g transform="translate(170.214845 201.358125) scale(0.12 -0.12)">
       <defs>
        <path id="DejaVuSans-36" d="M 2113 2584 
Q 1688 2584 1439 2293 
Q 1191 2003 1191 1497 
Q 1191 994 1439 701 
Q 1688 409 2113 409 
Q 2538 409 2786 701 
Q 3034 994 3034 1497 
Q 3034 2003 2786 2293 
Q 2538 2584 2113 2584 
z
M 3366 4563 
L 3366 3988 
Q 3128 4100 2886 4159 
Q 2644 4219 2406 4219 
Q 1781 4219 1451 3797 
Q 1122 3375 1075 2522 
Q 1259 2794 1537 2939 
Q 1816 3084 2150 3084 
Q 2853 3084 3261 2657 
Q 3669 2231 3669 1497 
Q 3669 778 3244 343 
Q 2819 -91 2113 -91 
Q 1303 -91 875 529 
Q 447 1150 447 2328 
Q 447 3434 972 4092 
Q 1497 4750 2381 4750 
Q 2619 4750 2861 4703 
Q 3103 4656 3366 4563 
z
" transform="scale(0.015625)"/>
       </defs>
       <use xlink:href="#DejaVuSans-36"/>
      </g>
     </g>
    </g>
    <g id="xtick_5">
     <g id="line2d_5">
      <g>
       <use xlink:href="#m27756e750f" x="211.982441" y="185.24" style="stroke: #000000; stroke-width: 0.8"/>
      </g>
     </g>
     <g id="text_5">
      <!-- 8 -->
      <g transform="translate(208.164941 201.358125) scale(0.12 -0.12)">
       <defs>
        <path id="DejaVuSans-38" d="M 2034 2216 
Q 1584 2216 1326 1975 
Q 1069 1734 1069 1313 
Q 1069 891 1326 650 
Q 1584 409 2034 409 
Q 2484 409 2743 651 
Q 3003 894 3003 1313 
Q 3003 1734 2745 1975 
Q 2488 2216 2034 2216 
z
M 1403 2484 
Q 997 2584 770 2862 
Q 544 3141 544 3541 
Q 544 4100 942 4425 
Q 1341 4750 2034 4750 
Q 2731 4750 3128 4425 
Q 3525 4100 3525 3541 
Q 3525 3141 3298 2862 
Q 3072 2584 2669 2484 
Q 3125 2378 3379 2068 
Q 3634 1759 3634 1313 
Q 3634 634 3220 271 
Q 2806 -91 2034 -91 
Q 1263 -91 848 271 
Q 434 634 434 1313 
Q 434 1759 690 2068 
Q 947 2378 1403 2484 
z
M 1172 3481 
Q 1172 3119 1398 2916 
Q 1625 2713 2034 2713 
Q 2441 2713 2670 2916 
Q 2900 3119 2900 3481 
Q 2900 3844 2670 4047 
Q 2441 4250 2034 4250 
Q 1625 4250 1398 4047 
Q 1172 3844 1172 3481 
z
" transform="scale(0.015625)"/>
       </defs>
       <use xlink:href="#DejaVuSans-38"/>
      </g>
     </g>
    </g>
    <g id="xtick_6">
     <g id="line2d_6">
      <g>
       <use xlink:href="#m27756e750f" x="249.932538" y="185.24" style="stroke: #000000; stroke-width: 0.8"/>
      </g>
     </g>
     <g id="text_6">
      <!-- 10 -->
      <g transform="translate(242.297538 201.358125) scale(0.12 -0.12)">
       <defs>
        <path id="DejaVuSans-31" d="M 794 531 
L 1825 531 
L 1825 4091 
L 703 3866 
L 703 4441 
L 1819 4666 
L 2450 4666 
L 2450 531 
L 3481 531 
L 3481 0 
L 794 0 
L 794 531 
z
" transform="scale(0.015625)"/>
       </defs>
       <use xlink:href="#DejaVuSans-31"/>
       <use xlink:href="#DejaVuSans-30" x="63.623047"/>
      </g>
     </g>
    </g>
   </g>
   <g id="matplotlib.axis_2">
    <g id="ytick_1">
     <g id="line2d_7">
      <defs>
       <path id="m33ae287978" d="M 0 0 
L -3.5 0 
" style="stroke: #000000; stroke-width: 0.8"/>
      </defs>
      <g>
       <use xlink:href="#m33ae287978" x="60.182054" y="178.107273" style="stroke: #000000; stroke-width: 0.8"/>
      </g>
     </g>
     <g id="text_7">
      <!-- $\mathdefault{10^{-3}}$ -->
      <g transform="translate(29.682054 181.906491) scale(0.1 -0.1)">
       <defs>
        <path id="DejaVuSans-2212" d="M 678 2272 
L 4684 2272 
L 4684 1741 
L 678 1741 
L 678 2272 
z
" transform="scale(0.015625)"/>
        <path id="DejaVuSans-33" d="M 2597 2516 
Q 3050 2419 3304 2112 
Q 3559 1806 3559 1356 
Q 3559 666 3084 287 
Q 2609 -91 1734 -91 
Q 1441 -91 1130 -33 
Q 819 25 488 141 
L 488 750 
Q 750 597 1062 519 
Q 1375 441 1716 441 
Q 2309 441 2620 675 
Q 2931 909 2931 1356 
Q 2931 1769 2642 2001 
Q 2353 2234 1838 2234 
L 1294 2234 
L 1294 2753 
L 1863 2753 
Q 2328 2753 2575 2939 
Q 2822 3125 2822 3475 
Q 2822 3834 2567 4026 
Q 2313 4219 1838 4219 
Q 1578 4219 1281 4162 
Q 984 4106 628 3988 
L 628 4550 
Q 988 4650 1302 4700 
Q 1616 4750 1894 4750 
Q 2613 4750 3031 4423 
Q 3450 4097 3450 3541 
Q 3450 3153 3228 2886 
Q 3006 2619 2597 2516 
z
" transform="scale(0.015625)"/>
       </defs>
       <use xlink:href="#DejaVuSans-31" transform="translate(0 0.765625)"/>
       <use xlink:href="#DejaVuSans-30" transform="translate(63.623047 0.765625)"/>
       <use xlink:href="#DejaVuSans-2212" transform="translate(128.203125 39.046875) scale(0.7)"/>
       <use xlink:href="#DejaVuSans-33" transform="translate(186.855469 39.046875) scale(0.7)"/>
      </g>
     </g>
    </g>
    <g id="ytick_2">
     <g id="line2d_8">
      <g>
       <use xlink:href="#m33ae287978" x="60.182054" y="130.555758" style="stroke: #000000; stroke-width: 0.8"/>
      </g>
     </g>
     <g id="text_8">
      <!-- $\mathdefault{10^{-2}}$ -->
      <g transform="translate(29.682054 134.354976) scale(0.1 -0.1)">
       <use xlink:href="#DejaVuSans-31" transform="translate(0 0.765625)"/>
       <use xlink:href="#DejaVuSans-30" transform="translate(63.623047 0.765625)"/>
       <use xlink:href="#DejaVuSans-2212" transform="translate(128.203125 39.046875) scale(0.7)"/>
       <use xlink:href="#DejaVuSans-32" transform="translate(186.855469 39.046875) scale(0.7)"/>
      </g>
     </g>
    </g>
    <g id="ytick_3">
     <g id="line2d_9">
      <g>
       <use xlink:href="#m33ae287978" x="60.182054" y="83.004242" style="stroke: #000000; stroke-width: 0.8"/>
      </g>
     </g>
     <g id="text_9">
      <!-- $\mathdefault{10^{-1}}$ -->
      <g transform="translate(29.682054 86.803461) scale(0.1 -0.1)">
       <use xlink:href="#DejaVuSans-31" transform="translate(0 0.684375)"/>
       <use xlink:href="#DejaVuSans-30" transform="translate(63.623047 0.684375)"/>
       <use xlink:href="#DejaVuSans-2212" transform="translate(128.203125 38.965625) scale(0.7)"/>
       <use xlink:href="#DejaVuSans-31" transform="translate(186.855469 38.965625) scale(0.7)"/>
      </g>
     </g>
    </g>
    <g id="ytick_4">
     <g id="line2d_10">
      <g>
       <use xlink:href="#m33ae287978" x="60.182054" y="35.452727" style="stroke: #000000; stroke-width: 0.8"/>
      </g>
     </g>
     <g id="text_10">
      <!-- $\mathdefault{10^{0}}$ -->
      <g transform="translate(35.582054 39.251946) scale(0.1 -0.1)">
       <use xlink:href="#DejaVuSans-31" transform="translate(0 0.765625)"/>
       <use xlink:href="#DejaVuSans-30" transform="translate(63.623047 0.765625)"/>
       <use xlink:href="#DejaVuSans-30" transform="translate(128.203125 39.046875) scale(0.7)"/>
      </g>
     </g>
    </g>
    <g id="ytick_5">
     <g id="line2d_11">
      <defs>
       <path id="m54f06fdb23" d="M 0 0 
L -2 0 
" style="stroke: #000000; stroke-width: 0.6"/>
      </defs>
      <g>
       <use xlink:href="#m54f06fdb23" x="60.182054" y="182.715491" style="stroke: #000000; stroke-width: 0.6"/>
      </g>
     </g>
    </g>
    <g id="ytick_6">
     <g id="line2d_12">
      <g>
       <use xlink:href="#m54f06fdb23" x="60.182054" y="180.283111" style="stroke: #000000; stroke-width: 0.6"/>
      </g>
     </g>
    </g>
    <g id="ytick_7">
     <g id="line2d_13">
      <g>
       <use xlink:href="#m54f06fdb23" x="60.182054" y="163.79284" style="stroke: #000000; stroke-width: 0.6"/>
      </g>
     </g>
    </g>
    <g id="ytick_8">
     <g id="line2d_14">
      <g>
       <use xlink:href="#m54f06fdb23" x="60.182054" y="155.419434" style="stroke: #000000; stroke-width: 0.6"/>
      </g>
     </g>
    </g>
    <g id="ytick_9">
     <g id="line2d_15">
      <g>
       <use xlink:href="#m54f06fdb23" x="60.182054" y="149.478408" style="stroke: #000000; stroke-width: 0.6"/>
      </g>
     </g>
    </g>
    <g id="ytick_10">
     <g id="line2d_16">
      <g>
       <use xlink:href="#m54f06fdb23" x="60.182054" y="144.87019" style="stroke: #000000; stroke-width: 0.6"/>
      </g>
     </g>
    </g>
    <g id="ytick_11">
     <g id="line2d_17">
      <g>
       <use xlink:href="#m54f06fdb23" x="60.182054" y="141.105002" style="stroke: #000000; stroke-width: 0.6"/>
      </g>
     </g>
    </g>
    <g id="ytick_12">
     <g id="line2d_18">
      <g>
       <use xlink:href="#m54f06fdb23" x="60.182054" y="137.92158" style="stroke: #000000; stroke-width: 0.6"/>
      </g>
     </g>
    </g>
    <g id="ytick_13">
     <g id="line2d_19">
      <g>
       <use xlink:href="#m54f06fdb23" x="60.182054" y="135.163976" style="stroke: #000000; stroke-width: 0.6"/>
      </g>
     </g>
    </g>
    <g id="ytick_14">
     <g id="line2d_20">
      <g>
       <use xlink:href="#m54f06fdb23" x="60.182054" y="132.731596" style="stroke: #000000; stroke-width: 0.6"/>
      </g>
     </g>
    </g>
    <g id="ytick_15">
     <g id="line2d_21">
      <g>
       <use xlink:href="#m54f06fdb23" x="60.182054" y="116.241325" style="stroke: #000000; stroke-width: 0.6"/>
      </g>
     </g>
    </g>
    <g id="ytick_16">
     <g id="line2d_22">
      <g>
       <use xlink:href="#m54f06fdb23" x="60.182054" y="107.867919" style="stroke: #000000; stroke-width: 0.6"/>
      </g>
     </g>
    </g>
    <g id="ytick_17">
     <g id="line2d_23">
      <g>
       <use xlink:href="#m54f06fdb23" x="60.182054" y="101.926893" style="stroke: #000000; stroke-width: 0.6"/>
      </g>
     </g>
    </g>
    <g id="ytick_18">
     <g id="line2d_24">
      <g>
       <use xlink:href="#m54f06fdb23" x="60.182054" y="97.318675" style="stroke: #000000; stroke-width: 0.6"/>
      </g>
     </g>
    </g>
    <g id="ytick_19">
     <g id="line2d_25">
      <g>
       <use xlink:href="#m54f06fdb23" x="60.182054" y="93.553487" style="stroke: #000000; stroke-width: 0.6"/>
      </g>
     </g>
    </g>
    <g id="ytick_20">
     <g id="line2d_26">
      <g>
       <use xlink:href="#m54f06fdb23" x="60.182054" y="90.370065" style="stroke: #000000; stroke-width: 0.6"/>
      </g>
     </g>
    </g>
    <g id="ytick_21">
     <g id="line2d_27">
      <g>
       <use xlink:href="#m54f06fdb23" x="60.182054" y="87.61246" style="stroke: #000000; stroke-width: 0.6"/>
      </g>
     </g>
    </g>
    <g id="ytick_22">
     <g id="line2d_28">
      <g>
       <use xlink:href="#m54f06fdb23" x="60.182054" y="85.18008" style="stroke: #000000; stroke-width: 0.6"/>
      </g>
     </g>
    </g>
    <g id="ytick_23">
     <g id="line2d_29">
      <g>
       <use xlink:href="#m54f06fdb23" x="60.182054" y="68.68981" style="stroke: #000000; stroke-width: 0.6"/>
      </g>
     </g>
    </g>
    <g id="ytick_24">
     <g id="line2d_30">
      <g>
       <use xlink:href="#m54f06fdb23" x="60.182054" y="60.316404" style="stroke: #000000; stroke-width: 0.6"/>
      </g>
     </g>
    </g>
    <g id="ytick_25">
     <g id="line2d_31">
      <g>
       <use xlink:href="#m54f06fdb23" x="60.182054" y="54.375378" style="stroke: #000000; stroke-width: 0.6"/>
      </g>
     </g>
    </g>
    <g id="ytick_26">
     <g id="line2d_32">
      <g>
       <use xlink:href="#m54f06fdb23" x="60.182054" y="49.76716" style="stroke: #000000; stroke-width: 0.6"/>
      </g>
     </g>
    </g>
    <g id="ytick_27">
     <g id="line2d_33">
      <g>
       <use xlink:href="#m54f06fdb23" x="60.182054" y="46.001971" style="stroke: #000000; stroke-width: 0.6"/>
      </g>
     </g>
    </g>
    <g id="ytick_28">
     <g id="line2d_34">
      <g>
       <use xlink:href="#m54f06fdb23" x="60.182054" y="42.81855" style="stroke: #000000; stroke-width: 0.6"/>
      </g>
     </g>
    </g>
    <g id="ytick_29">
     <g id="line2d_35">
      <g>
       <use xlink:href="#m54f06fdb23" x="60.182054" y="40.060945" style="stroke: #000000; stroke-width: 0.6"/>
      </g>
     </g>
    </g>
    <g id="ytick_30">
     <g id="line2d_36">
      <g>
       <use xlink:href="#m54f06fdb23" x="60.182054" y="37.628565" style="stroke: #000000; stroke-width: 0.6"/>
      </g>
     </g>
    </g>
    <g id="text_11">
     <!-- Failure rate -->
     <g transform="translate(22.354554 151.8925) rotate(-90) scale(0.16 -0.16)">
      <defs>
       <path id="DejaVuSans-46" d="M 628 4666 
L 3309 4666 
L 3309 4134 
L 1259 4134 
L 1259 2759 
L 3109 2759 
L 3109 2228 
L 1259 2228 
L 1259 0 
L 628 0 
L 628 4666 
z
" transform="scale(0.015625)"/>
       <path id="DejaVuSans-61" d="M 2194 1759 
Q 1497 1759 1228 1600 
Q 959 1441 959 1056 
Q 959 750 1161 570 
Q 1363 391 1709 391 
Q 2188 391 2477 730 
Q 2766 1069 2766 1631 
L 2766 1759 
L 2194 1759 
z
M 3341 1997 
L 3341 0 
L 2766 0 
L 2766 531 
Q 2569 213 2275 61 
Q 1981 -91 1556 -91 
Q 1019 -91 701 211 
Q 384 513 384 1019 
Q 384 1609 779 1909 
Q 1175 2209 1959 2209 
L 2766 2209 
L 2766 2266 
Q 2766 2663 2505 2880 
Q 2244 3097 1772 3097 
Q 1472 3097 1187 3025 
Q 903 2953 641 2809 
L 641 3341 
Q 956 3463 1253 3523 
Q 1550 3584 1831 3584 
Q 2591 3584 2966 3190 
Q 3341 2797 3341 1997 
z
" transform="scale(0.015625)"/>
       <path id="DejaVuSans-69" d="M 603 3500 
L 1178 3500 
L 1178 0 
L 603 0 
L 603 3500 
z
M 603 4863 
L 1178 4863 
L 1178 4134 
L 603 4134 
L 603 4863 
z
" transform="scale(0.015625)"/>
       <path id="DejaVuSans-6c" d="M 603 4863 
L 1178 4863 
L 1178 0 
L 603 0 
L 603 4863 
z
" transform="scale(0.015625)"/>
       <path id="DejaVuSans-75" d="M 544 1381 
L 544 3500 
L 1119 3500 
L 1119 1403 
Q 1119 906 1312 657 
Q 1506 409 1894 409 
Q 2359 409 2629 706 
Q 2900 1003 2900 1516 
L 2900 3500 
L 3475 3500 
L 3475 0 
L 2900 0 
L 2900 538 
Q 2691 219 2414 64 
Q 2138 -91 1772 -91 
Q 1169 -91 856 284 
Q 544 659 544 1381 
z
M 1991 3584 
L 1991 3584 
z
" transform="scale(0.015625)"/>
       <path id="DejaVuSans-72" d="M 2631 2963 
Q 2534 3019 2420 3045 
Q 2306 3072 2169 3072 
Q 1681 3072 1420 2755 
Q 1159 2438 1159 1844 
L 1159 0 
L 581 0 
L 581 3500 
L 1159 3500 
L 1159 2956 
Q 1341 3275 1631 3429 
Q 1922 3584 2338 3584 
Q 2397 3584 2469 3576 
Q 2541 3569 2628 3553 
L 2631 2963 
z
" transform="scale(0.015625)"/>
       <path id="DejaVuSans-65" d="M 3597 1894 
L 3597 1613 
L 953 1613 
Q 991 1019 1311 708 
Q 1631 397 2203 397 
Q 2534 397 2845 478 
Q 3156 559 3463 722 
L 3463 178 
Q 3153 47 2828 -22 
Q 2503 -91 2169 -91 
Q 1331 -91 842 396 
Q 353 884 353 1716 
Q 353 2575 817 3079 
Q 1281 3584 2069 3584 
Q 2775 3584 3186 3129 
Q 3597 2675 3597 1894 
z
M 3022 2063 
Q 3016 2534 2758 2815 
Q 2500 3097 2075 3097 
Q 1594 3097 1305 2825 
Q 1016 2553 972 2059 
L 3022 2063 
z
" transform="scale(0.015625)"/>
       <path id="DejaVuSans-20" transform="scale(0.015625)"/>
       <path id="DejaVuSans-74" d="M 1172 4494 
L 1172 3500 
L 2356 3500 
L 2356 3053 
L 1172 3053 
L 1172 1153 
Q 1172 725 1289 603 
Q 1406 481 1766 481 
L 2356 481 
L 2356 0 
L 1766 0 
Q 1100 0 847 248 
Q 594 497 594 1153 
L 594 3053 
L 172 3053 
L 172 3500 
L 594 3500 
L 594 4494 
L 1172 4494 
z
" transform="scale(0.015625)"/>
      </defs>
      <use xlink:href="#DejaVuSans-46"/>
      <use xlink:href="#DejaVuSans-61" x="48.394531"/>
      <use xlink:href="#DejaVuSans-69" x="109.673828"/>
      <use xlink:href="#DejaVuSans-6c" x="137.457031"/>
      <use xlink:href="#DejaVuSans-75" x="165.240234"/>
      <use xlink:href="#DejaVuSans-72" x="228.619141"/>
      <use xlink:href="#DejaVuSans-65" x="267.482422"/>
      <use xlink:href="#DejaVuSans-20" x="329.005859"/>
      <use xlink:href="#DejaVuSans-72" x="360.792969"/>
      <use xlink:href="#DejaVuSans-61" x="401.90625"/>
      <use xlink:href="#DejaVuSans-74" x="463.185547"/>
      <use xlink:href="#DejaVuSans-65" x="502.394531"/>
     </g>
    </g>
   </g>
   <g id="line2d_37">
    <path d="M 60.182054 79.4553 
L 79.157102 79.7619 
L 98.132151 79.939167 
L 117.107199 80.343667 
L 136.082248 80.802605 
L 155.057296 80.253091 
L 174.032345 79.153185 
L 193.007393 79.025048 
L 211.982441 79.983722 
L 230.95749 77.946619 
L 249.932538 79.067672 
" clip-path="url(#p4393fddb4c)" style="fill: none; stroke: #0173b2; stroke-width: 1.5; stroke-linecap: square"/>
   </g>
   <g id="line2d_38">
    <path d="M 60.182054 79.673835 
L 79.157102 82.645969 
L 98.132151 93.900575 
L 117.107199 75.048048 
L 136.082248 74.942952 
L 155.057296 71.359097 
L 174.032345 74.665283 
L 193.007393 82.443998 
L 211.982441 95.729324 
L 230.95749 71.154482 
L 249.932538 94.703538 
" clip-path="url(#p4393fddb4c)" style="fill: none; stroke: #de8f05; stroke-width: 1.5; stroke-linecap: square"/>
   </g>
   <g id="line2d_39">
    <path d="M 60.182054 80.16291 
L 79.157102 64.56212 
L 98.132151 48.27364 
L 117.107199 57.310757 
L 136.082248 58.207792 
L 155.057296 54.349579 
L 174.032345 77.349141 
L 193.007393 60.076866 
L 211.982441 93.988267 
L 230.95749 59.958131 
L 249.932538 52.454081 
" clip-path="url(#p4393fddb4c)" style="fill: none; stroke: #029e73; stroke-width: 1.5; stroke-linecap: square"/>
   </g>
   <g id="line2d_40">
    <path d="M 60.182054 79.673835 
L 79.157102 85.761846 
L 98.132151 81.80091 
L 117.107199 106.535109 
L 136.082248 80.073122 
L 155.057296 81.996658 
L 174.032345 77.427814 
L 193.007393 61.759646 
L 211.982441 73.427503 
L 230.95749 76.315401 
L 249.932538 94.978282 
" clip-path="url(#p4393fddb4c)" style="fill: none; stroke: #d55e00; stroke-width: 1.5; stroke-linecap: square"/>
   </g>
   <g id="line2d_41"/>
   <g id="line2d_42"/>
   <g id="line2d_43"/>
   <g id="line2d_44"/>
   <g id="patch_3">
    <path d="M 60.182054 185.24 
L 60.182054 28.32 
" style="fill: none; stroke: #000000; stroke-width: 0.8; stroke-linejoin: miter; stroke-linecap: square"/>
   </g>
   <g id="patch_4">
    <path d="M 60.182054 185.24 
L 249.932538 185.24 
" style="fill: none; stroke: #000000; stroke-width: 0.8; stroke-linejoin: miter; stroke-linecap: square"/>
   </g>
   <g id="text_12">
    <!-- AV (highway) -->
    <g transform="translate(102.216046 22.32) scale(0.16 -0.16)">
     <defs>
      <path id="DejaVuSans-41" d="M 2188 4044 
L 1331 1722 
L 3047 1722 
L 2188 4044 
z
M 1831 4666 
L 2547 4666 
L 4325 0 
L 3669 0 
L 3244 1197 
L 1141 1197 
L 716 0 
L 50 0 
L 1831 4666 
z
" transform="scale(0.015625)"/>
      <path id="DejaVuSans-56" d="M 1831 0 
L 50 4666 
L 709 4666 
L 2188 738 
L 3669 4666 
L 4325 4666 
L 2547 0 
L 1831 0 
z
" transform="scale(0.015625)"/>
      <path id="DejaVuSans-28" d="M 1984 4856 
Q 1566 4138 1362 3434 
Q 1159 2731 1159 2009 
Q 1159 1288 1364 580 
Q 1569 -128 1984 -844 
L 1484 -844 
Q 1016 -109 783 600 
Q 550 1309 550 2009 
Q 550 2706 781 3412 
Q 1013 4119 1484 4856 
L 1984 4856 
z
" transform="scale(0.015625)"/>
      <path id="DejaVuSans-68" d="M 3513 2113 
L 3513 0 
L 2938 0 
L 2938 2094 
Q 2938 2591 2744 2837 
Q 2550 3084 2163 3084 
Q 1697 3084 1428 2787 
Q 1159 2491 1159 1978 
L 1159 0 
L 581 0 
L 581 4863 
L 1159 4863 
L 1159 2956 
Q 1366 3272 1645 3428 
Q 1925 3584 2291 3584 
Q 2894 3584 3203 3211 
Q 3513 2838 3513 2113 
z
" transform="scale(0.015625)"/>
      <path id="DejaVuSans-67" d="M 2906 1791 
Q 2906 2416 2648 2759 
Q 2391 3103 1925 3103 
Q 1463 3103 1205 2759 
Q 947 2416 947 1791 
Q 947 1169 1205 825 
Q 1463 481 1925 481 
Q 2391 481 2648 825 
Q 2906 1169 2906 1791 
z
M 3481 434 
Q 3481 -459 3084 -895 
Q 2688 -1331 1869 -1331 
Q 1566 -1331 1297 -1286 
Q 1028 -1241 775 -1147 
L 775 -588 
Q 1028 -725 1275 -790 
Q 1522 -856 1778 -856 
Q 2344 -856 2625 -561 
Q 2906 -266 2906 331 
L 2906 616 
Q 2728 306 2450 153 
Q 2172 0 1784 0 
Q 1141 0 747 490 
Q 353 981 353 1791 
Q 353 2603 747 3093 
Q 1141 3584 1784 3584 
Q 2172 3584 2450 3431 
Q 2728 3278 2906 2969 
L 2906 3500 
L 3481 3500 
L 3481 434 
z
" transform="scale(0.015625)"/>
      <path id="DejaVuSans-77" d="M 269 3500 
L 844 3500 
L 1563 769 
L 2278 3500 
L 2956 3500 
L 3675 769 
L 4391 3500 
L 4966 3500 
L 4050 0 
L 3372 0 
L 2619 2869 
L 1863 0 
L 1184 0 
L 269 3500 
z
" transform="scale(0.015625)"/>
      <path id="DejaVuSans-79" d="M 2059 -325 
Q 1816 -950 1584 -1140 
Q 1353 -1331 966 -1331 
L 506 -1331 
L 506 -850 
L 844 -850 
Q 1081 -850 1212 -737 
Q 1344 -625 1503 -206 
L 1606 56 
L 191 3500 
L 800 3500 
L 1894 763 
L 2988 3500 
L 3597 3500 
L 2059 -325 
z
" transform="scale(0.015625)"/>
      <path id="DejaVuSans-29" d="M 513 4856 
L 1013 4856 
Q 1481 4119 1714 3412 
Q 1947 2706 1947 2009 
Q 1947 1309 1714 600 
Q 1481 -109 1013 -844 
L 513 -844 
Q 928 -128 1133 580 
Q 1338 1288 1338 2009 
Q 1338 2731 1133 3434 
Q 928 4138 513 4856 
z
" transform="scale(0.015625)"/>
     </defs>
     <use xlink:href="#DejaVuSans-41"/>
     <use xlink:href="#DejaVuSans-56" x="62.033203"/>
     <use xlink:href="#DejaVuSans-20" x="130.441406"/>
     <use xlink:href="#DejaVuSans-28" x="162.228516"/>
     <use xlink:href="#DejaVuSans-68" x="201.242188"/>
     <use xlink:href="#DejaVuSans-69" x="264.621094"/>
     <use xlink:href="#DejaVuSans-67" x="292.404297"/>
     <use xlink:href="#DejaVuSans-68" x="355.880859"/>
     <use xlink:href="#DejaVuSans-77" x="419.259766"/>
     <use xlink:href="#DejaVuSans-61" x="501.046875"/>
     <use xlink:href="#DejaVuSans-79" x="562.326172"/>
     <use xlink:href="#DejaVuSans-29" x="621.505859"/>
    </g>
   </g>
  </g>
  <g id="axes_2">
   <g id="patch_5">
    <path d="M 316.33865 185.24 
L 506.089134 185.24 
L 506.089134 28.32 
L 316.33865 28.32 
z
" style="fill: #ffffff"/>
   </g>
   <g id="PolyCollection_5">
    <defs>
     <path id="m52738f256a" d="M 316.33865 -177.345347 
L 316.33865 -176.526554 
L 354.288747 -149.04277 
L 392.238844 -164.790564 
L 430.18894 -141.25568 
L 468.139037 -154.026744 
L 506.089134 -159.279862 
L 506.089134 -179.13087 
L 506.089134 -179.13087 
L 468.139037 -179.104272 
L 430.18894 -179.501825 
L 392.238844 -176.344816 
L 354.288747 -177.193734 
L 316.33865 -177.345347 
z
" style="stroke: #0173b2; stroke-opacity: 0.2"/>
    </defs>
    <g clip-path="url(#p30d243a042)">
     <use xlink:href="#m52738f256a" x="0" y="216" style="fill: #0173b2; fill-opacity: 0.2; stroke: #0173b2; stroke-opacity: 0.2"/>
    </g>
   </g>
   <g id="PolyCollection_6">
    <defs>
     <path id="mb00d979f1a" d="M 316.33865 -177.262703 
L 316.33865 -176.442943 
L 354.288747 -176.847498 
L 392.238844 -136.115827 
L 430.18894 -121.745274 
L 468.139037 -109.834041 
L 506.089134 -111.824593 
L 506.089134 -172.258858 
L 506.089134 -172.258858 
L 468.139037 -180.495499 
L 430.18894 -180.521394 
L 392.238844 -179.501824 
L 354.288747 -180.547273 
L 316.33865 -177.262703 
z
" style="stroke: #de8f05; stroke-opacity: 0.2"/>
    </defs>
    <g clip-path="url(#p30d243a042)">
     <use xlink:href="#mb00d979f1a" x="0" y="216" style="fill: #de8f05; fill-opacity: 0.2; stroke: #de8f05; stroke-opacity: 0.2"/>
    </g>
   </g>
   <g id="PolyCollection_7">
    <defs>
     <path id="mfe4537c1bc" d="M 316.33865 -177.290266 
L 316.33865 -176.400911 
L 354.288747 -180.547273 
L 392.238844 -180.547273 
L 430.18894 -180.547273 
L 468.139037 -180.547273 
L 506.089134 -180.547273 
L 506.089134 -180.547273 
L 506.089134 -180.547273 
L 468.139037 -180.547273 
L 430.18894 -180.547273 
L 392.238844 -180.547273 
L 354.288747 -180.547273 
L 316.33865 -177.290266 
z
" style="stroke: #029e73; stroke-opacity: 0.2"/>
    </defs>
    <g clip-path="url(#p30d243a042)">
     <use xlink:href="#mfe4537c1bc" x="0" y="216" style="fill: #029e73; fill-opacity: 0.2; stroke: #029e73; stroke-opacity: 0.2"/>
    </g>
   </g>
   <g id="PolyCollection_8">
    <defs>
     <path id="md6e4756e66" d="M 316.33865 -177.138492 
L 316.33865 -176.442943 
L 354.288747 -107.605187 
L 392.238844 -107.605187 
L 430.18894 -110.865003 
L 468.139037 -37.892727 
L 506.089134 -66.793492 
L 506.089134 -166.00414 
L 506.089134 -166.00414 
L 468.139037 -174.4878 
L 430.18894 -180.495499 
L 392.238844 -178.676818 
L 354.288747 -179.620496 
L 316.33865 -177.138492 
z
" style="stroke: #d55e00; stroke-opacity: 0.2"/>
    </defs>
    <g clip-path="url(#p30d243a042)">
     <use xlink:href="#md6e4756e66" x="0" y="216" style="fill: #d55e00; fill-opacity: 0.2; stroke: #d55e00; stroke-opacity: 0.2"/>
    </g>
   </g>
   <g id="matplotlib.axis_3">
    <g id="xtick_7">
     <g id="line2d_45">
      <g>
       <use xlink:href="#m27756e750f" x="316.33865" y="185.24" style="stroke: #000000; stroke-width: 0.8"/>
      </g>
     </g>
     <g id="text_13">
      <!-- 0 -->
      <g transform="translate(312.52115 201.358125) scale(0.12 -0.12)">
       <use xlink:href="#DejaVuSans-30"/>
      </g>
     </g>
    </g>
    <g id="xtick_8">
     <g id="line2d_46">
      <g>
       <use xlink:href="#m27756e750f" x="354.288747" y="185.24" style="stroke: #000000; stroke-width: 0.8"/>
      </g>
     </g>
     <g id="text_14">
      <!-- 1 -->
      <g transform="translate(350.471247 201.358125) scale(0.12 -0.12)">
       <use xlink:href="#DejaVuSans-31"/>
      </g>
     </g>
    </g>
    <g id="xtick_9">
     <g id="line2d_47">
      <g>
       <use xlink:href="#m27756e750f" x="392.238844" y="185.24" style="stroke: #000000; stroke-width: 0.8"/>
      </g>
     </g>
     <g id="text_15">
      <!-- 2 -->
      <g transform="translate(388.421344 201.358125) scale(0.12 -0.12)">
       <use xlink:href="#DejaVuSans-32"/>
      </g>
     </g>
    </g>
    <g id="xtick_10">
     <g id="line2d_48">
      <g>
       <use xlink:href="#m27756e750f" x="430.18894" y="185.24" style="stroke: #000000; stroke-width: 0.8"/>
      </g>
     </g>
     <g id="text_16">
      <!-- 3 -->
      <g transform="translate(426.37144 201.358125) scale(0.12 -0.12)">
       <use xlink:href="#DejaVuSans-33"/>
      </g>
     </g>
    </g>
    <g id="xtick_11">
     <g id="line2d_49">
      <g>
       <use xlink:href="#m27756e750f" x="468.139037" y="185.24" style="stroke: #000000; stroke-width: 0.8"/>
      </g>
     </g>
     <g id="text_17">
      <!-- 4 -->
      <g transform="translate(464.321537 201.358125) scale(0.12 -0.12)">
       <use xlink:href="#DejaVuSans-34"/>
      </g>
     </g>
    </g>
    <g id="xtick_12">
     <g id="line2d_50">
      <g>
       <use xlink:href="#m27756e750f" x="506.089134" y="185.24" style="stroke: #000000; stroke-width: 0.8"/>
      </g>
     </g>
     <g id="text_18">
      <!-- 5 -->
      <g transform="translate(502.271634 201.358125) scale(0.12 -0.12)">
       <defs>
        <path id="DejaVuSans-35" d="M 691 4666 
L 3169 4666 
L 3169 4134 
L 1269 4134 
L 1269 2991 
Q 1406 3038 1543 3061 
Q 1681 3084 1819 3084 
Q 2600 3084 3056 2656 
Q 3513 2228 3513 1497 
Q 3513 744 3044 326 
Q 2575 -91 1722 -91 
Q 1428 -91 1123 -41 
Q 819 9 494 109 
L 494 744 
Q 775 591 1075 516 
Q 1375 441 1709 441 
Q 2250 441 2565 725 
Q 2881 1009 2881 1497 
Q 2881 1984 2565 2268 
Q 2250 2553 1709 2553 
Q 1456 2553 1204 2497 
Q 953 2441 691 2322 
L 691 4666 
z
" transform="scale(0.015625)"/>
       </defs>
       <use xlink:href="#DejaVuSans-35"/>
      </g>
     </g>
    </g>
   </g>
   <g id="matplotlib.axis_4">
    <g id="ytick_31">
     <g id="line2d_51">
      <g>
       <use xlink:href="#m33ae287978" x="316.33865" y="154.606936" style="stroke: #000000; stroke-width: 0.8"/>
      </g>
     </g>
     <g id="text_19">
      <!-- $\mathdefault{10^{-1}}$ -->
      <g transform="translate(285.83865 158.406154) scale(0.1 -0.1)">
       <use xlink:href="#DejaVuSans-31" transform="translate(0 0.684375)"/>
       <use xlink:href="#DejaVuSans-30" transform="translate(63.623047 0.684375)"/>
       <use xlink:href="#DejaVuSans-2212" transform="translate(128.203125 38.965625) scale(0.7)"/>
       <use xlink:href="#DejaVuSans-31" transform="translate(186.855469 38.965625) scale(0.7)"/>
      </g>
     </g>
    </g>
    <g id="ytick_32">
     <g id="line2d_52">
      <g>
       <use xlink:href="#m33ae287978" x="316.33865" y="35.452727" style="stroke: #000000; stroke-width: 0.8"/>
      </g>
     </g>
     <g id="text_20">
      <!-- $\mathdefault{10^{0}}$ -->
      <g transform="translate(291.73865 39.251946) scale(0.1 -0.1)">
       <use xlink:href="#DejaVuSans-31" transform="translate(0 0.765625)"/>
       <use xlink:href="#DejaVuSans-30" transform="translate(63.623047 0.765625)"/>
       <use xlink:href="#DejaVuSans-30" transform="translate(128.203125 39.046875) scale(0.7)"/>
      </g>
     </g>
    </g>
    <g id="ytick_33">
     <g id="line2d_53">
      <g>
       <use xlink:href="#m54f06fdb23" x="316.33865" y="181.041148" style="stroke: #000000; stroke-width: 0.6"/>
      </g>
     </g>
    </g>
    <g id="ytick_34">
     <g id="line2d_54">
      <g>
       <use xlink:href="#m54f06fdb23" x="316.33865" y="173.064156" style="stroke: #000000; stroke-width: 0.6"/>
      </g>
     </g>
    </g>
    <g id="ytick_35">
     <g id="line2d_55">
      <g>
       <use xlink:href="#m54f06fdb23" x="316.33865" y="166.154172" style="stroke: #000000; stroke-width: 0.6"/>
      </g>
     </g>
    </g>
    <g id="ytick_36">
     <g id="line2d_56">
      <g>
       <use xlink:href="#m54f06fdb23" x="316.33865" y="160.059133" style="stroke: #000000; stroke-width: 0.6"/>
      </g>
     </g>
    </g>
    <g id="ytick_37">
     <g id="line2d_57">
      <g>
       <use xlink:href="#m54f06fdb23" x="316.33865" y="118.737945" style="stroke: #000000; stroke-width: 0.6"/>
      </g>
     </g>
    </g>
    <g id="ytick_38">
     <g id="line2d_58">
      <g>
       <use xlink:href="#m54f06fdb23" x="316.33865" y="97.75593" style="stroke: #000000; stroke-width: 0.6"/>
      </g>
     </g>
    </g>
    <g id="ytick_39">
     <g id="line2d_59">
      <g>
       <use xlink:href="#m54f06fdb23" x="316.33865" y="82.868954" style="stroke: #000000; stroke-width: 0.6"/>
      </g>
     </g>
    </g>
    <g id="ytick_40">
     <g id="line2d_60">
      <g>
       <use xlink:href="#m54f06fdb23" x="316.33865" y="71.321718" style="stroke: #000000; stroke-width: 0.6"/>
      </g>
     </g>
    </g>
    <g id="ytick_41">
     <g id="line2d_61">
      <g>
       <use xlink:href="#m54f06fdb23" x="316.33865" y="61.886939" style="stroke: #000000; stroke-width: 0.6"/>
      </g>
     </g>
    </g>
    <g id="ytick_42">
     <g id="line2d_62">
      <g>
       <use xlink:href="#m54f06fdb23" x="316.33865" y="53.909948" style="stroke: #000000; stroke-width: 0.6"/>
      </g>
     </g>
    </g>
    <g id="ytick_43">
     <g id="line2d_63">
      <g>
       <use xlink:href="#m54f06fdb23" x="316.33865" y="46.999963" style="stroke: #000000; stroke-width: 0.6"/>
      </g>
     </g>
    </g>
    <g id="ytick_44">
     <g id="line2d_64">
      <g>
       <use xlink:href="#m54f06fdb23" x="316.33865" y="40.904925" style="stroke: #000000; stroke-width: 0.6"/>
      </g>
     </g>
    </g>
   </g>
   <g id="line2d_65">
    <path d="M 316.33865 39.138608 
L 354.288747 47.782062 
L 392.238844 44.413598 
L 430.18894 47.93003 
L 468.139037 44.76862 
L 506.089134 43.71078 
" clip-path="url(#p30d243a042)" style="fill: none; stroke: #0173b2; stroke-width: 1.5; stroke-linecap: square"/>
   </g>
   <g id="line2d_66">
    <path d="M 316.33865 39.194206 
L 354.288747 37.269557 
L 392.238844 51.121802 
L 430.18894 48.776609 
L 468.139037 59.609152 
L 506.089134 70.347728 
" clip-path="url(#p30d243a042)" style="fill: none; stroke: #de8f05; stroke-width: 1.5; stroke-linecap: square"/>
   </g>
   <g id="line2d_67">
    <path d="M 316.33865 39.235943 
L 354.288747 35.452727 
L 392.238844 35.452727 
L 430.18894 35.452727 
L 468.139037 35.452727 
L 506.089134 35.452727 
" clip-path="url(#p30d243a042)" style="fill: none; stroke: #029e73; stroke-width: 1.5; stroke-linecap: square"/>
   </g>
   <g id="line2d_68">
    <path d="M 316.33865 39.235943 
L 354.288747 52.578089 
L 392.238844 55.33395 
L 430.18894 54.039478 
L 468.139037 71.295849 
L 506.089134 78.766722 
" clip-path="url(#p30d243a042)" style="fill: none; stroke: #d55e00; stroke-width: 1.5; stroke-linecap: square"/>
   </g>
   <g id="line2d_69"/>
   <g id="line2d_70"/>
   <g id="line2d_71"/>
   <g id="line2d_72"/>
   <g id="patch_6">
    <path d="M 316.33865 185.24 
L 316.33865 28.32 
" style="fill: none; stroke: #000000; stroke-width: 0.8; stroke-linejoin: miter; stroke-linecap: square"/>
   </g>
   <g id="patch_7">
    <path d="M 316.33865 185.24 
L 506.089134 185.24 
" style="fill: none; stroke: #000000; stroke-width: 0.8; stroke-linejoin: miter; stroke-linecap: square"/>
   </g>
   <g id="text_21">
    <!-- AV (intersection) -->
    <g transform="translate(344.541392 22.32) scale(0.16 -0.16)">
     <defs>
      <path id="DejaVuSans-6e" d="M 3513 2113 
L 3513 0 
L 2938 0 
L 2938 2094 
Q 2938 2591 2744 2837 
Q 2550 3084 2163 3084 
Q 1697 3084 1428 2787 
Q 1159 2491 1159 1978 
L 1159 0 
L 581 0 
L 581 3500 
L 1159 3500 
L 1159 2956 
Q 1366 3272 1645 3428 
Q 1925 3584 2291 3584 
Q 2894 3584 3203 3211 
Q 3513 2838 3513 2113 
z
" transform="scale(0.015625)"/>
      <path id="DejaVuSans-73" d="M 2834 3397 
L 2834 2853 
Q 2591 2978 2328 3040 
Q 2066 3103 1784 3103 
Q 1356 3103 1142 2972 
Q 928 2841 928 2578 
Q 928 2378 1081 2264 
Q 1234 2150 1697 2047 
L 1894 2003 
Q 2506 1872 2764 1633 
Q 3022 1394 3022 966 
Q 3022 478 2636 193 
Q 2250 -91 1575 -91 
Q 1294 -91 989 -36 
Q 684 19 347 128 
L 347 722 
Q 666 556 975 473 
Q 1284 391 1588 391 
Q 1994 391 2212 530 
Q 2431 669 2431 922 
Q 2431 1156 2273 1281 
Q 2116 1406 1581 1522 
L 1381 1569 
Q 847 1681 609 1914 
Q 372 2147 372 2553 
Q 372 3047 722 3315 
Q 1072 3584 1716 3584 
Q 2034 3584 2315 3537 
Q 2597 3491 2834 3397 
z
" transform="scale(0.015625)"/>
      <path id="DejaVuSans-63" d="M 3122 3366 
L 3122 2828 
Q 2878 2963 2633 3030 
Q 2388 3097 2138 3097 
Q 1578 3097 1268 2742 
Q 959 2388 959 1747 
Q 959 1106 1268 751 
Q 1578 397 2138 397 
Q 2388 397 2633 464 
Q 2878 531 3122 666 
L 3122 134 
Q 2881 22 2623 -34 
Q 2366 -91 2075 -91 
Q 1284 -91 818 406 
Q 353 903 353 1747 
Q 353 2603 823 3093 
Q 1294 3584 2113 3584 
Q 2378 3584 2631 3529 
Q 2884 3475 3122 3366 
z
" transform="scale(0.015625)"/>
      <path id="DejaVuSans-6f" d="M 1959 3097 
Q 1497 3097 1228 2736 
Q 959 2375 959 1747 
Q 959 1119 1226 758 
Q 1494 397 1959 397 
Q 2419 397 2687 759 
Q 2956 1122 2956 1747 
Q 2956 2369 2687 2733 
Q 2419 3097 1959 3097 
z
M 1959 3584 
Q 2709 3584 3137 3096 
Q 3566 2609 3566 1747 
Q 3566 888 3137 398 
Q 2709 -91 1959 -91 
Q 1206 -91 779 398 
Q 353 888 353 1747 
Q 353 2609 779 3096 
Q 1206 3584 1959 3584 
z
" transform="scale(0.015625)"/>
     </defs>
     <use xlink:href="#DejaVuSans-41"/>
     <use xlink:href="#DejaVuSans-56" x="62.033203"/>
     <use xlink:href="#DejaVuSans-20" x="130.441406"/>
     <use xlink:href="#DejaVuSans-28" x="162.228516"/>
     <use xlink:href="#DejaVuSans-69" x="201.242188"/>
     <use xlink:href="#DejaVuSans-6e" x="229.025391"/>
     <use xlink:href="#DejaVuSans-74" x="292.404297"/>
     <use xlink:href="#DejaVuSans-65" x="331.613281"/>
     <use xlink:href="#DejaVuSans-72" x="393.136719"/>
     <use xlink:href="#DejaVuSans-73" x="434.25"/>
     <use xlink:href="#DejaVuSans-65" x="486.349609"/>
     <use xlink:href="#DejaVuSans-63" x="547.873047"/>
     <use xlink:href="#DejaVuSans-74" x="602.853516"/>
     <use xlink:href="#DejaVuSans-69" x="642.0625"/>
     <use xlink:href="#DejaVuSans-6f" x="669.845703"/>
     <use xlink:href="#DejaVuSans-6e" x="731.027344"/>
     <use xlink:href="#DejaVuSans-29" x="794.40625"/>
    </g>
   </g>
  </g>
  <g id="axes_3">
   <g id="patch_8">
    <path d="M 572.495246 185.24 
L 762.24573 185.24 
L 762.24573 28.32 
L 572.495246 28.32 
z
" style="fill: #ffffff"/>
   </g>
   <g id="PolyCollection_9">
    <defs>
     <path id="m65dd370235" d="M 572.495246 -124.760963 
L 572.495246 -118.291938 
L 591.470294 -118.809248 
L 610.445343 -121.522992 
L 629.420391 -119.674142 
L 648.395439 -119.244118 
L 667.370488 -120.698971 
L 686.345536 -119.305844 
L 705.320585 -117.344896 
L 724.295633 -119.305843 
L 743.270682 -117.924535 
L 762.24573 -118.933997 
L 762.24573 -124.16737 
L 762.24573 -124.16737 
L 743.270682 -122.158319 
L 724.295633 -124.112953 
L 705.320585 -121.9285 
L 686.345536 -123.342932 
L 667.370488 -123.287338 
L 648.395439 -124.275978 
L 629.420391 -124.221714 
L 610.445343 -122.386779 
L 591.470294 -121.347891 
L 572.495246 -124.760963 
z
" style="stroke: #0173b2; stroke-opacity: 0.2"/>
    </defs>
    <g clip-path="url(#p002f622178)">
     <use xlink:href="#m65dd370235" x="0" y="216" style="fill: #0173b2; fill-opacity: 0.2; stroke: #0173b2; stroke-opacity: 0.2"/>
    </g>
   </g>
   <g id="PolyCollection_10">
    <defs>
     <path id="m5b613961ce" d="M 572.495246 -123.839705 
L 572.495246 -118.306182 
L 591.470294 -111.39318 
L 610.445343 -125.134007 
L 629.420391 -85.676548 
L 648.395439 -97.837756 
L 667.370488 -69.427646 
L 686.345536 -84.479253 
L 705.320585 -107.241031 
L 724.295633 -78.043157 
L 743.270682 -101.955137 
L 762.24573 -95.964736 
L 762.24573 -148.343401 
L 762.24573 -148.343401 
L 743.270682 -131.791422 
L 724.295633 -132.717572 
L 705.320585 -128.387276 
L 686.345536 -123.949237 
L 667.370488 -144.941605 
L 648.395439 -141.55902 
L 629.420391 -152.865122 
L 610.445343 -153.378897 
L 591.470294 -122.613896 
L 572.495246 -123.839705 
z
" style="stroke: #de8f05; stroke-opacity: 0.2"/>
    </defs>
    <g clip-path="url(#p002f622178)">
     <use xlink:href="#m5b613961ce" x="0" y="216" style="fill: #de8f05; fill-opacity: 0.2; stroke: #de8f05; stroke-opacity: 0.2"/>
    </g>
   </g>
   <g id="PolyCollection_11">
    <defs>
     <path id="m9a0aced59e" d="M 572.495246 -123.839705 
L 572.495246 -118.558537 
L 591.470294 -65.159656 
L 610.445343 -64.400095 
L 629.420391 -41.756921 
L 648.395439 -41.75692 
L 667.370488 -37.892727 
L 686.345536 -54.550527 
L 705.320585 -41.75692 
L 724.295633 -62.02742 
L 743.270682 -69.427646 
L 762.24573 -62.567424 
L 762.24573 -178.843626 
L 762.24573 -178.843626 
L 743.270682 -179.315762 
L 724.295633 -180.128355 
L 705.320585 -174.974568 
L 686.345536 -179.49393 
L 667.370488 -179.198268 
L 648.395439 -176.223161 
L 629.420391 -177.949254 
L 610.445343 -180.509375 
L 591.470294 -180.547273 
L 572.495246 -123.839705 
z
" style="stroke: #029e73; stroke-opacity: 0.2"/>
    </defs>
    <g clip-path="url(#p002f622178)">
     <use xlink:href="#m9a0aced59e" x="0" y="216" style="fill: #029e73; fill-opacity: 0.2; stroke: #029e73; stroke-opacity: 0.2"/>
    </g>
   </g>
   <g id="PolyCollection_12">
    <defs>
     <path id="me239af04dd" d="M 572.495246 -125.450914 
L 572.495246 -118.558537 
L 591.470294 -101.527432 
L 610.445343 -79.280188 
L 629.420391 -125.97338 
L 648.395439 -97.077484 
L 667.370488 -123.839706 
L 686.345536 -95.851677 
L 705.320585 -90.647511 
L 724.295633 -84.479252 
L 743.270682 -76.392134 
L 762.24573 -76.204251 
L 762.24573 -101.035582 
L 762.24573 -101.035582 
L 743.270682 -134.630387 
L 724.295633 -139.090306 
L 705.320585 -142.585026 
L 686.345536 -168.528635 
L 667.370488 -149.319462 
L 648.395439 -168.80344 
L 629.420391 -164.210918 
L 610.445343 -172.889217 
L 591.470294 -141.9727 
L 572.495246 -125.450914 
z
" style="stroke: #d55e00; stroke-opacity: 0.2"/>
    </defs>
    <g clip-path="url(#p002f622178)">
     <use xlink:href="#me239af04dd" x="0" y="216" style="fill: #d55e00; fill-opacity: 0.2; stroke: #d55e00; stroke-opacity: 0.2"/>
    </g>
   </g>
   <g id="matplotlib.axis_5">
    <g id="xtick_13">
     <g id="line2d_73">
      <g>
       <use xlink:href="#m27756e750f" x="572.495246" y="185.24" style="stroke: #000000; stroke-width: 0.8"/>
      </g>
     </g>
     <g id="text_22">
      <!-- 0 -->
      <g transform="translate(568.677746 201.358125) scale(0.12 -0.12)">
       <use xlink:href="#DejaVuSans-30"/>
      </g>
     </g>
    </g>
    <g id="xtick_14">
     <g id="line2d_74">
      <g>
       <use xlink:href="#m27756e750f" x="610.445343" y="185.24" style="stroke: #000000; stroke-width: 0.8"/>
      </g>
     </g>
     <g id="text_23">
      <!-- 2 -->
      <g transform="translate(606.627843 201.358125) scale(0.12 -0.12)">
       <use xlink:href="#DejaVuSans-32"/>
      </g>
     </g>
    </g>
    <g id="xtick_15">
     <g id="line2d_75">
      <g>
       <use xlink:href="#m27756e750f" x="648.395439" y="185.24" style="stroke: #000000; stroke-width: 0.8"/>
      </g>
     </g>
     <g id="text_24">
      <!-- 4 -->
      <g transform="translate(644.577939 201.358125) scale(0.12 -0.12)">
       <use xlink:href="#DejaVuSans-34"/>
      </g>
     </g>
    </g>
    <g id="xtick_16">
     <g id="line2d_76">
      <g>
       <use xlink:href="#m27756e750f" x="686.345536" y="185.24" style="stroke: #000000; stroke-width: 0.8"/>
      </g>
     </g>
     <g id="text_25">
      <!-- 6 -->
      <g transform="translate(682.528036 201.358125) scale(0.12 -0.12)">
       <use xlink:href="#DejaVuSans-36"/>
      </g>
     </g>
    </g>
    <g id="xtick_17">
     <g id="line2d_77">
      <g>
       <use xlink:href="#m27756e750f" x="724.295633" y="185.24" style="stroke: #000000; stroke-width: 0.8"/>
      </g>
     </g>
     <g id="text_26">
      <!-- 8 -->
      <g transform="translate(720.478133 201.358125) scale(0.12 -0.12)">
       <use xlink:href="#DejaVuSans-38"/>
      </g>
     </g>
    </g>
    <g id="xtick_18">
     <g id="line2d_78">
      <g>
       <use xlink:href="#m27756e750f" x="762.24573" y="185.24" style="stroke: #000000; stroke-width: 0.8"/>
      </g>
     </g>
     <g id="text_27">
      <!-- 10 -->
      <g transform="translate(754.61073 201.358125) scale(0.12 -0.12)">
       <use xlink:href="#DejaVuSans-31"/>
       <use xlink:href="#DejaVuSans-30" x="63.623047"/>
      </g>
     </g>
    </g>
   </g>
   <g id="matplotlib.axis_6">
    <g id="ytick_45">
     <g id="line2d_79">
      <g>
       <use xlink:href="#m33ae287978" x="572.495246" y="113.986906" style="stroke: #000000; stroke-width: 0.8"/>
      </g>
     </g>
     <g id="text_28">
      <!-- $\mathdefault{10^{-1}}$ -->
      <g transform="translate(541.995246 117.786124) scale(0.1 -0.1)">
       <use xlink:href="#DejaVuSans-31" transform="translate(0 0.684375)"/>
       <use xlink:href="#DejaVuSans-30" transform="translate(63.623047 0.684375)"/>
       <use xlink:href="#DejaVuSans-2212" transform="translate(128.203125 38.965625) scale(0.7)"/>
       <use xlink:href="#DejaVuSans-31" transform="translate(186.855469 38.965625) scale(0.7)"/>
      </g>
     </g>
    </g>
    <g id="ytick_46">
     <g id="line2d_80">
      <g>
       <use xlink:href="#m54f06fdb23" x="572.495246" y="176.126855" style="stroke: #000000; stroke-width: 0.6"/>
      </g>
     </g>
    </g>
    <g id="ytick_47">
     <g id="line2d_81">
      <g>
       <use xlink:href="#m54f06fdb23" x="572.495246" y="160.47196" style="stroke: #000000; stroke-width: 0.6"/>
      </g>
     </g>
    </g>
    <g id="ytick_48">
     <g id="line2d_82">
      <g>
       <use xlink:href="#m54f06fdb23" x="572.495246" y="149.364636" style="stroke: #000000; stroke-width: 0.6"/>
      </g>
     </g>
    </g>
    <g id="ytick_49">
     <g id="line2d_83">
      <g>
       <use xlink:href="#m54f06fdb23" x="572.495246" y="140.749125" style="stroke: #000000; stroke-width: 0.6"/>
      </g>
     </g>
    </g>
    <g id="ytick_50">
     <g id="line2d_84">
      <g>
       <use xlink:href="#m54f06fdb23" x="572.495246" y="133.709741" style="stroke: #000000; stroke-width: 0.6"/>
      </g>
     </g>
    </g>
    <g id="ytick_51">
     <g id="line2d_85">
      <g>
       <use xlink:href="#m54f06fdb23" x="572.495246" y="127.758026" style="stroke: #000000; stroke-width: 0.6"/>
      </g>
     </g>
    </g>
    <g id="ytick_52">
     <g id="line2d_86">
      <g>
       <use xlink:href="#m54f06fdb23" x="572.495246" y="122.602416" style="stroke: #000000; stroke-width: 0.6"/>
      </g>
     </g>
    </g>
    <g id="ytick_53">
     <g id="line2d_87">
      <g>
       <use xlink:href="#m54f06fdb23" x="572.495246" y="118.054846" style="stroke: #000000; stroke-width: 0.6"/>
      </g>
     </g>
    </g>
    <g id="ytick_54">
     <g id="line2d_88">
      <g>
       <use xlink:href="#m54f06fdb23" x="572.495246" y="87.224686" style="stroke: #000000; stroke-width: 0.6"/>
      </g>
     </g>
    </g>
    <g id="ytick_55">
     <g id="line2d_89">
      <g>
       <use xlink:href="#m54f06fdb23" x="572.495246" y="71.569791" style="stroke: #000000; stroke-width: 0.6"/>
      </g>
     </g>
    </g>
    <g id="ytick_56">
     <g id="line2d_90">
      <g>
       <use xlink:href="#m54f06fdb23" x="572.495246" y="60.462466" style="stroke: #000000; stroke-width: 0.6"/>
      </g>
     </g>
    </g>
    <g id="ytick_57">
     <g id="line2d_91">
      <g>
       <use xlink:href="#m54f06fdb23" x="572.495246" y="51.846956" style="stroke: #000000; stroke-width: 0.6"/>
      </g>
     </g>
    </g>
    <g id="ytick_58">
     <g id="line2d_92">
      <g>
       <use xlink:href="#m54f06fdb23" x="572.495246" y="44.807571" style="stroke: #000000; stroke-width: 0.6"/>
      </g>
     </g>
    </g>
    <g id="ytick_59">
     <g id="line2d_93">
      <g>
       <use xlink:href="#m54f06fdb23" x="572.495246" y="38.855856" style="stroke: #000000; stroke-width: 0.6"/>
      </g>
     </g>
    </g>
    <g id="ytick_60">
     <g id="line2d_94">
      <g>
       <use xlink:href="#m54f06fdb23" x="572.495246" y="33.700246" style="stroke: #000000; stroke-width: 0.6"/>
      </g>
     </g>
    </g>
    <g id="ytick_61">
     <g id="line2d_95">
      <g>
       <use xlink:href="#m54f06fdb23" x="572.495246" y="29.152676" style="stroke: #000000; stroke-width: 0.6"/>
      </g>
     </g>
    </g>
   </g>
   <g id="line2d_96">
    <path d="M 572.495246 94.360714 
L 591.470294 95.840194 
L 610.445343 94.071501 
L 629.420391 94.535287 
L 648.395439 94.360713 
L 667.370488 94.302699 
L 686.345536 94.828008 
L 705.320585 96.021602 
L 724.295633 94.652109 
L 743.270682 95.900569 
L 762.24573 94.013918 
" clip-path="url(#p002f622178)" style="fill: none; stroke: #0173b2; stroke-width: 1.5; stroke-linecap: square"/>
   </g>
   <g id="line2d_97">
    <path d="M 572.495246 94.828009 
L 591.470294 98.075466 
L 610.445343 74.96439 
L 629.420391 86.412823 
L 648.395439 91.669835 
L 667.370488 100.44814 
L 686.345536 107.596438 
L 705.320585 96.879632 
L 724.295633 106.867165 
L 743.270682 97.128327 
L 762.24573 85.571417 
" clip-path="url(#p002f622178)" style="fill: none; stroke: #de8f05; stroke-width: 1.5; stroke-linecap: square"/>
   </g>
   <g id="line2d_98">
    <path d="M 572.495246 94.710653 
L 591.470294 69.993662 
L 610.445343 72.088049 
L 629.420391 74.095939 
L 648.395439 78.919294 
L 667.370488 76.541979 
L 686.345536 74.510357 
L 705.320585 79.745412 
L 724.295633 72.153323 
L 743.270682 68.301573 
L 762.24573 75.105172 
" clip-path="url(#p002f622178)" style="fill: none; stroke: #029e73; stroke-width: 1.5; stroke-linecap: square"/>
   </g>
   <g id="line2d_99">
    <path d="M 572.495246 94.360713 
L 591.470294 91.132085 
L 610.445343 66.623883 
L 629.420391 68.867403 
L 648.395439 68.360745 
L 667.370488 77.355624 
L 686.345536 74.061603 
L 705.320585 95.241583 
L 724.295633 100.789519 
L 743.270682 104.682598 
L 762.24573 123.703875 
" clip-path="url(#p002f622178)" style="fill: none; stroke: #d55e00; stroke-width: 1.5; stroke-linecap: square"/>
   </g>
   <g id="line2d_100"/>
   <g id="line2d_101"/>
   <g id="line2d_102"/>
   <g id="line2d_103"/>
   <g id="patch_9">
    <path d="M 572.495246 185.24 
L 572.495246 28.32 
" style="fill: none; stroke: #000000; stroke-width: 0.8; stroke-linejoin: miter; stroke-linecap: square"/>
   </g>
   <g id="patch_10">
    <path d="M 572.495246 185.24 
L 762.24573 185.24 
" style="fill: none; stroke: #000000; stroke-width: 0.8; stroke-linejoin: miter; stroke-linecap: square"/>
   </g>
   <g id="text_29">
    <!-- Drone (static) -->
    <g transform="translate(612.465488 22.32) scale(0.16 -0.16)">
     <defs>
      <path id="DejaVuSans-44" d="M 1259 4147 
L 1259 519 
L 2022 519 
Q 2988 519 3436 956 
Q 3884 1394 3884 2338 
Q 3884 3275 3436 3711 
Q 2988 4147 2022 4147 
L 1259 4147 
z
M 628 4666 
L 1925 4666 
Q 3281 4666 3915 4102 
Q 4550 3538 4550 2338 
Q 4550 1131 3912 565 
Q 3275 0 1925 0 
L 628 0 
L 628 4666 
z
" transform="scale(0.015625)"/>
     </defs>
     <use xlink:href="#DejaVuSans-44"/>
     <use xlink:href="#DejaVuSans-72" x="77.001953"/>
     <use xlink:href="#DejaVuSans-6f" x="115.865234"/>
     <use xlink:href="#DejaVuSans-6e" x="177.046875"/>
     <use xlink:href="#DejaVuSans-65" x="240.425781"/>
     <use xlink:href="#DejaVuSans-20" x="301.949219"/>
     <use xlink:href="#DejaVuSans-28" x="333.736328"/>
     <use xlink:href="#DejaVuSans-73" x="372.75"/>
     <use xlink:href="#DejaVuSans-74" x="424.849609"/>
     <use xlink:href="#DejaVuSans-61" x="464.058594"/>
     <use xlink:href="#DejaVuSans-74" x="525.337891"/>
     <use xlink:href="#DejaVuSans-69" x="564.546875"/>
     <use xlink:href="#DejaVuSans-63" x="592.330078"/>
     <use xlink:href="#DejaVuSans-29" x="647.310547"/>
    </g>
   </g>
  </g>
  <g id="axes_4">
   <g id="patch_11">
    <path d="M 828.651842 185.24 
L 1018.402326 185.24 
L 1018.402326 28.32 
L 828.651842 28.32 
z
" style="fill: #ffffff"/>
   </g>
   <g id="PolyCollection_13">
    <defs>
     <path id="m4c014d5c9a" d="M 828.651842 -164.813679 
L 828.651842 -58.322438 
L 866.601938 -75.014727 
L 904.552035 -75.014727 
L 942.502132 -75.014727 
L 980.452229 -75.014727 
L 1018.402326 -58.322438 
L 1018.402326 -164.813679 
L 1018.402326 -164.813679 
L 980.452229 -164.813679 
L 942.502132 -164.813679 
L 904.552035 -164.813679 
L 866.601938 -164.813679 
L 828.651842 -164.813679 
z
" style="stroke: #0173b2; stroke-opacity: 0.2"/>
    </defs>
    <g clip-path="url(#p4d81a6a7b7)">
     <use xlink:href="#m4c014d5c9a" x="0" y="216" style="fill: #0173b2; fill-opacity: 0.2; stroke: #0173b2; stroke-opacity: 0.2"/>
    </g>
   </g>
   <g id="PolyCollection_14">
    <defs>
     <path id="mc334da3c78" d="M 828.651842 -164.813679 
L 828.651842 -75.014727 
L 866.601938 -37.892729 
L 904.552035 -37.892729 
L 942.502132 -37.892729 
L 980.452229 -37.892727 
L 1018.402326 -37.892727 
L 1018.402326 -37.892727 
L 1018.402326 -37.892727 
L 980.452229 -37.892731 
L 942.502132 -101.353205 
L 904.552035 -138.475199 
L 866.601938 -164.813681 
L 828.651842 -164.813679 
z
" style="stroke: #de8f05; stroke-opacity: 0.2"/>
    </defs>
    <g clip-path="url(#p4d81a6a7b7)">
     <use xlink:href="#mc334da3c78" x="0" y="216" style="fill: #de8f05; fill-opacity: 0.2; stroke: #de8f05; stroke-opacity: 0.2"/>
    </g>
   </g>
   <g id="PolyCollection_15">
    <defs>
     <path id="m311c5e800b" d="M 828.651842 -164.813679 
L 828.651842 -75.014727 
L 866.601938 -75.014727 
L 904.552035 -58.322438 
L 942.502132 -75.014727 
L 980.452229 -75.014727 
L 1018.402326 -75.014727 
L 1018.402326 -164.813679 
L 1018.402326 -164.813679 
L 980.452229 -164.813679 
L 942.502132 -164.813679 
L 904.552035 -164.813679 
L 866.601938 -164.813679 
L 828.651842 -164.813679 
z
" style="stroke: #029e73; stroke-opacity: 0.2"/>
    </defs>
    <g clip-path="url(#p4d81a6a7b7)">
     <use xlink:href="#m311c5e800b" x="0" y="216" style="fill: #029e73; fill-opacity: 0.2; stroke: #029e73; stroke-opacity: 0.2"/>
    </g>
   </g>
   <g id="PolyCollection_16">
    <defs>
     <path id="m060803f18a" d="M 828.651842 -164.813679 
L 828.651842 -75.014727 
L 866.601938 -37.892728 
L 904.552035 -37.892729 
L 942.502132 -58.322438 
L 980.452229 -37.892727 
L 1018.402326 -37.892727 
L 1018.402326 -121.782911 
L 1018.402326 -121.782911 
L 980.452229 -37.892732 
L 942.502132 -130.50895 
L 904.552035 -180.547273 
L 866.601938 -164.813681 
L 828.651842 -164.813679 
z
" style="stroke: #d55e00; stroke-opacity: 0.2"/>
    </defs>
    <g clip-path="url(#p4d81a6a7b7)">
     <use xlink:href="#m060803f18a" x="0" y="216" style="fill: #d55e00; fill-opacity: 0.2; stroke: #d55e00; stroke-opacity: 0.2"/>
    </g>
   </g>
   <g id="matplotlib.axis_7">
    <g id="xtick_19">
     <g id="line2d_104">
      <g>
       <use xlink:href="#m27756e750f" x="828.651842" y="185.24" style="stroke: #000000; stroke-width: 0.8"/>
      </g>
     </g>
     <g id="text_30">
      <!-- 0 -->
      <g transform="translate(824.834342 201.358125) scale(0.12 -0.12)">
       <use xlink:href="#DejaVuSans-30"/>
      </g>
     </g>
    </g>
    <g id="xtick_20">
     <g id="line2d_105">
      <g>
       <use xlink:href="#m27756e750f" x="866.601938" y="185.24" style="stroke: #000000; stroke-width: 0.8"/>
      </g>
     </g>
     <g id="text_31">
      <!-- 1 -->
      <g transform="translate(862.784438 201.358125) scale(0.12 -0.12)">
       <use xlink:href="#DejaVuSans-31"/>
      </g>
     </g>
    </g>
    <g id="xtick_21">
     <g id="line2d_106">
      <g>
       <use xlink:href="#m27756e750f" x="904.552035" y="185.24" style="stroke: #000000; stroke-width: 0.8"/>
      </g>
     </g>
     <g id="text_32">
      <!-- 2 -->
      <g transform="translate(900.734535 201.358125) scale(0.12 -0.12)">
       <use xlink:href="#DejaVuSans-32"/>
      </g>
     </g>
    </g>
    <g id="xtick_22">
     <g id="line2d_107">
      <g>
       <use xlink:href="#m27756e750f" x="942.502132" y="185.24" style="stroke: #000000; stroke-width: 0.8"/>
      </g>
     </g>
     <g id="text_33">
      <!-- 3 -->
      <g transform="translate(938.684632 201.358125) scale(0.12 -0.12)">
       <use xlink:href="#DejaVuSans-33"/>
      </g>
     </g>
    </g>
    <g id="xtick_23">
     <g id="line2d_108">
      <g>
       <use xlink:href="#m27756e750f" x="980.452229" y="185.24" style="stroke: #000000; stroke-width: 0.8"/>
      </g>
     </g>
     <g id="text_34">
      <!-- 4 -->
      <g transform="translate(976.634729 201.358125) scale(0.12 -0.12)">
       <use xlink:href="#DejaVuSans-34"/>
      </g>
     </g>
    </g>
    <g id="xtick_24">
     <g id="line2d_109">
      <g>
       <use xlink:href="#m27756e750f" x="1018.402326" y="185.24" style="stroke: #000000; stroke-width: 0.8"/>
      </g>
     </g>
     <g id="text_35">
      <!-- 5 -->
      <g transform="translate(1014.584826 201.358125) scale(0.12 -0.12)">
       <use xlink:href="#DejaVuSans-35"/>
      </g>
     </g>
    </g>
   </g>
   <g id="matplotlib.axis_8">
    <g id="ytick_62">
     <g id="line2d_110">
      <g>
       <use xlink:href="#m33ae287978" x="828.651842" y="178.107273" style="stroke: #000000; stroke-width: 0.8"/>
      </g>
     </g>
     <g id="text_36">
      <!-- $\mathdefault{10^{-3}}$ -->
      <g transform="translate(798.151842 181.906491) scale(0.1 -0.1)">
       <use xlink:href="#DejaVuSans-31" transform="translate(0 0.765625)"/>
       <use xlink:href="#DejaVuSans-30" transform="translate(63.623047 0.765625)"/>
       <use xlink:href="#DejaVuSans-2212" transform="translate(128.203125 39.046875) scale(0.7)"/>
       <use xlink:href="#DejaVuSans-33" transform="translate(186.855469 39.046875) scale(0.7)"/>
      </g>
     </g>
    </g>
    <g id="ytick_63">
     <g id="line2d_111">
      <g>
       <use xlink:href="#m54f06fdb23" x="828.651842" y="114.646799" style="stroke: #000000; stroke-width: 0.6"/>
      </g>
     </g>
     <g id="text_37">
      <!-- $\mathdefault{2\times10^{-3}}$ -->
      <g transform="translate(781.151842 118.446018) scale(0.1 -0.1)">
       <defs>
        <path id="DejaVuSans-d7" d="M 4488 3438 
L 3059 2003 
L 4488 575 
L 4116 197 
L 2681 1631 
L 1247 197 
L 878 575 
L 2303 2003 
L 878 3438 
L 1247 3816 
L 2681 2381 
L 4116 3816 
L 4488 3438 
z
" transform="scale(0.015625)"/>
       </defs>
       <use xlink:href="#DejaVuSans-32" transform="translate(0 0.765625)"/>
       <use xlink:href="#DejaVuSans-d7" transform="translate(83.105469 0.765625)"/>
       <use xlink:href="#DejaVuSans-31" transform="translate(186.376953 0.765625)"/>
       <use xlink:href="#DejaVuSans-30" transform="translate(250 0.765625)"/>
       <use xlink:href="#DejaVuSans-2212" transform="translate(314.580078 39.046875) scale(0.7)"/>
       <use xlink:href="#DejaVuSans-33" transform="translate(373.232422 39.046875) scale(0.7)"/>
      </g>
     </g>
    </g>
    <g id="ytick_64">
     <g id="line2d_112">
      <g>
       <use xlink:href="#m54f06fdb23" x="828.651842" y="77.524802" style="stroke: #000000; stroke-width: 0.6"/>
      </g>
     </g>
     <g id="text_38">
      <!-- $\mathdefault{3\times10^{-3}}$ -->
      <g transform="translate(781.151842 81.324021) scale(0.1 -0.1)">
       <use xlink:href="#DejaVuSans-33" transform="translate(0 0.765625)"/>
       <use xlink:href="#DejaVuSans-d7" transform="translate(83.105469 0.765625)"/>
       <use xlink:href="#DejaVuSans-31" transform="translate(186.376953 0.765625)"/>
       <use xlink:href="#DejaVuSans-30" transform="translate(250 0.765625)"/>
       <use xlink:href="#DejaVuSans-2212" transform="translate(314.580078 39.046875) scale(0.7)"/>
       <use xlink:href="#DejaVuSans-33" transform="translate(373.232422 39.046875) scale(0.7)"/>
      </g>
     </g>
    </g>
    <g id="ytick_65">
     <g id="line2d_113">
      <g>
       <use xlink:href="#m54f06fdb23" x="828.651842" y="51.186326" style="stroke: #000000; stroke-width: 0.6"/>
      </g>
     </g>
     <g id="text_39">
      <!-- $\mathdefault{4\times10^{-3}}$ -->
      <g transform="translate(781.151842 54.985544) scale(0.1 -0.1)">
       <use xlink:href="#DejaVuSans-34" transform="translate(0 0.765625)"/>
       <use xlink:href="#DejaVuSans-d7" transform="translate(83.105469 0.765625)"/>
       <use xlink:href="#DejaVuSans-31" transform="translate(186.376953 0.765625)"/>
       <use xlink:href="#DejaVuSans-30" transform="translate(250 0.765625)"/>
       <use xlink:href="#DejaVuSans-2212" transform="translate(314.580078 39.046875) scale(0.7)"/>
       <use xlink:href="#DejaVuSans-33" transform="translate(373.232422 39.046875) scale(0.7)"/>
      </g>
     </g>
    </g>
    <g id="ytick_66">
     <g id="line2d_114">
      <g>
       <use xlink:href="#m54f06fdb23" x="828.651842" y="30.756616" style="stroke: #000000; stroke-width: 0.6"/>
      </g>
     </g>
    </g>
   </g>
   <g id="line2d_115">
    <path d="M 828.651842 85.491047 
L 866.601938 85.491047 
L 904.552035 85.491047 
L 942.502132 85.491047 
L 980.452229 85.491047 
L 1018.402326 85.491047 
" clip-path="url(#p4d81a6a7b7)" style="fill: none; stroke: #0173b2; stroke-width: 1.5; stroke-linecap: square"/>
   </g>
   <g id="line2d_116">
    <path d="M 828.651842 85.491047 
L 866.601938 103.863273 
L 904.552035 114.646798 
L 942.502132 140.985272 
L 980.452229 178.107272 
L 1018.402326 178.107273 
" clip-path="url(#p4d81a6a7b7)" style="fill: none; stroke: #de8f05; stroke-width: 1.5; stroke-linecap: square"/>
   </g>
   <g id="line2d_117">
    <path d="M 828.651842 85.491047 
L 866.601938 85.491047 
L 904.552035 85.491047 
L 942.502132 85.491047 
L 980.452229 85.491047 
L 1018.402326 85.491047 
" clip-path="url(#p4d81a6a7b7)" style="fill: none; stroke: #029e73; stroke-width: 1.5; stroke-linecap: square"/>
   </g>
   <g id="line2d_118">
    <path d="M 828.651842 85.491047 
L 866.601938 103.863273 
L 904.552035 94.217088 
L 942.502132 114.646797 
L 980.452229 178.107271 
L 1018.402326 140.985274 
" clip-path="url(#p4d81a6a7b7)" style="fill: none; stroke: #d55e00; stroke-width: 1.5; stroke-linecap: square"/>
   </g>
   <g id="line2d_119"/>
   <g id="line2d_120"/>
   <g id="line2d_121"/>
   <g id="line2d_122"/>
   <g id="patch_12">
    <path d="M 828.651842 185.24 
L 828.651842 28.32 
" style="fill: none; stroke: #000000; stroke-width: 0.8; stroke-linejoin: miter; stroke-linecap: square"/>
   </g>
   <g id="patch_13">
    <path d="M 828.651842 185.24 
L 1018.402326 185.24 
" style="fill: none; stroke: #000000; stroke-width: 0.8; stroke-linejoin: miter; stroke-linecap: square"/>
   </g>
   <g id="text_40">
    <!-- Grasping (bowl) -->
    <g transform="translate(859.995834 22.32) scale(0.16 -0.16)">
     <defs>
      <path id="DejaVuSans-47" d="M 3809 666 
L 3809 1919 
L 2778 1919 
L 2778 2438 
L 4434 2438 
L 4434 434 
Q 4069 175 3628 42 
Q 3188 -91 2688 -91 
Q 1594 -91 976 548 
Q 359 1188 359 2328 
Q 359 3472 976 4111 
Q 1594 4750 2688 4750 
Q 3144 4750 3555 4637 
Q 3966 4525 4313 4306 
L 4313 3634 
Q 3963 3931 3569 4081 
Q 3175 4231 2741 4231 
Q 1884 4231 1454 3753 
Q 1025 3275 1025 2328 
Q 1025 1384 1454 906 
Q 1884 428 2741 428 
Q 3075 428 3337 486 
Q 3600 544 3809 666 
z
" transform="scale(0.015625)"/>
      <path id="DejaVuSans-70" d="M 1159 525 
L 1159 -1331 
L 581 -1331 
L 581 3500 
L 1159 3500 
L 1159 2969 
Q 1341 3281 1617 3432 
Q 1894 3584 2278 3584 
Q 2916 3584 3314 3078 
Q 3713 2572 3713 1747 
Q 3713 922 3314 415 
Q 2916 -91 2278 -91 
Q 1894 -91 1617 61 
Q 1341 213 1159 525 
z
M 3116 1747 
Q 3116 2381 2855 2742 
Q 2594 3103 2138 3103 
Q 1681 3103 1420 2742 
Q 1159 2381 1159 1747 
Q 1159 1113 1420 752 
Q 1681 391 2138 391 
Q 2594 391 2855 752 
Q 3116 1113 3116 1747 
z
" transform="scale(0.015625)"/>
      <path id="DejaVuSans-62" d="M 3116 1747 
Q 3116 2381 2855 2742 
Q 2594 3103 2138 3103 
Q 1681 3103 1420 2742 
Q 1159 2381 1159 1747 
Q 1159 1113 1420 752 
Q 1681 391 2138 391 
Q 2594 391 2855 752 
Q 3116 1113 3116 1747 
z
M 1159 2969 
Q 1341 3281 1617 3432 
Q 1894 3584 2278 3584 
Q 2916 3584 3314 3078 
Q 3713 2572 3713 1747 
Q 3713 922 3314 415 
Q 2916 -91 2278 -91 
Q 1894 -91 1617 61 
Q 1341 213 1159 525 
L 1159 0 
L 581 0 
L 581 4863 
L 1159 4863 
L 1159 2969 
z
" transform="scale(0.015625)"/>
     </defs>
     <use xlink:href="#DejaVuSans-47"/>
     <use xlink:href="#DejaVuSans-72" x="77.490234"/>
     <use xlink:href="#DejaVuSans-61" x="118.603516"/>
     <use xlink:href="#DejaVuSans-73" x="179.882812"/>
     <use xlink:href="#DejaVuSans-70" x="231.982422"/>
     <use xlink:href="#DejaVuSans-69" x="295.458984"/>
     <use xlink:href="#DejaVuSans-6e" x="323.242188"/>
     <use xlink:href="#DejaVuSans-67" x="386.621094"/>
     <use xlink:href="#DejaVuSans-20" x="450.097656"/>
     <use xlink:href="#DejaVuSans-28" x="481.884766"/>
     <use xlink:href="#DejaVuSans-62" x="520.898438"/>
     <use xlink:href="#DejaVuSans-6f" x="584.375"/>
     <use xlink:href="#DejaVuSans-77" x="645.556641"/>
     <use xlink:href="#DejaVuSans-6c" x="727.34375"/>
     <use xlink:href="#DejaVuSans-29" x="755.126953"/>
    </g>
   </g>
  </g>
  <g id="axes_5">
   <g id="patch_14">
    <path d="M 1084.808437 185.24 
L 1274.558922 185.24 
L 1274.558922 28.32 
L 1084.808437 28.32 
z
" style="fill: #ffffff"/>
   </g>
   <g id="PolyCollection_17">
    <defs>
     <path id="me3f0d0d5e6" d="M 1084.808437 -162.530974 
L 1084.808437 -143.875111 
L 1122.758534 -143.875111 
L 1160.708631 -143.875111 
L 1198.658728 -143.875111 
L 1236.608825 -143.875111 
L 1274.558922 -146.483025 
L 1274.558922 -162.530974 
L 1274.558922 -162.530974 
L 1236.608825 -161.635374 
L 1198.658728 -162.530974 
L 1160.708631 -163.432582 
L 1122.758534 -162.530974 
L 1084.808437 -162.530974 
z
" style="stroke: #0173b2; stroke-opacity: 0.2"/>
    </defs>
    <g clip-path="url(#pf37097765e)">
     <use xlink:href="#me3f0d0d5e6" x="0" y="216" style="fill: #0173b2; fill-opacity: 0.2; stroke: #0173b2; stroke-opacity: 0.2"/>
    </g>
   </g>
   <g id="PolyCollection_18">
    <defs>
     <path id="mea411fa1ff" d="M 1084.808437 -162.530974 
L 1084.808437 -146.483025 
L 1122.758534 -153.554395 
L 1160.708631 -90.88392 
L 1198.658728 -104.760167 
L 1236.608825 -82.089702 
L 1274.558922 -37.892727 
L 1274.558922 -148.957139 
L 1274.558922 -148.957139 
L 1236.608825 -152.445501 
L 1198.658728 -170.096218 
L 1160.708631 -162.530974 
L 1122.758534 -180.547273 
L 1084.808437 -162.530974 
z
" style="stroke: #de8f05; stroke-opacity: 0.2"/>
    </defs>
    <g clip-path="url(#pf37097765e)">
     <use xlink:href="#mea411fa1ff" x="0" y="216" style="fill: #de8f05; fill-opacity: 0.2; stroke: #de8f05; stroke-opacity: 0.2"/>
    </g>
   </g>
   <g id="PolyCollection_19">
    <defs>
     <path id="m41e684fcb8" d="M 1084.808437 -162.530974 
L 1084.808437 -143.875111 
L 1122.758534 -143.875111 
L 1160.708631 -143.875111 
L 1198.658728 -143.875111 
L 1236.608825 -143.875111 
L 1274.558922 -143.875111 
L 1274.558922 -163.432582 
L 1274.558922 -163.432582 
L 1236.608825 -162.553721 
L 1198.658728 -162.553721 
L 1160.708631 -162.530974 
L 1122.758534 -162.530974 
L 1084.808437 -162.530974 
z
" style="stroke: #029e73; stroke-opacity: 0.2"/>
    </defs>
    <g clip-path="url(#pf37097765e)">
     <use xlink:href="#m41e684fcb8" x="0" y="216" style="fill: #029e73; fill-opacity: 0.2; stroke: #029e73; stroke-opacity: 0.2"/>
    </g>
   </g>
   <g id="PolyCollection_20">
    <defs>
     <path id="mb202ad3978" d="M 1084.808437 -162.530974 
L 1084.808437 -143.875111 
L 1122.758534 -153.554395 
L 1160.708631 -86.686956 
L 1198.658728 -71.326449 
L 1236.608825 -57.450201 
L 1274.558922 -37.892727 
L 1274.558922 -131.753046 
L 1274.558922 -131.753046 
L 1236.608825 -159.720392 
L 1198.658728 -153.554393 
L 1160.708631 -155.698509 
L 1122.758534 -179.916745 
L 1084.808437 -162.530974 
z
" style="stroke: #d55e00; stroke-opacity: 0.2"/>
    </defs>
    <g clip-path="url(#pf37097765e)">
     <use xlink:href="#mb202ad3978" x="0" y="216" style="fill: #d55e00; fill-opacity: 0.2; stroke: #d55e00; stroke-opacity: 0.2"/>
    </g>
   </g>
   <g id="matplotlib.axis_9">
    <g id="xtick_25">
     <g id="line2d_123">
      <g>
       <use xlink:href="#m27756e750f" x="1084.808437" y="185.24" style="stroke: #000000; stroke-width: 0.8"/>
      </g>
     </g>
     <g id="text_41">
      <!-- 0 -->
      <g transform="translate(1080.990937 201.358125) scale(0.12 -0.12)">
       <use xlink:href="#DejaVuSans-30"/>
      </g>
     </g>
    </g>
    <g id="xtick_26">
     <g id="line2d_124">
      <g>
       <use xlink:href="#m27756e750f" x="1122.758534" y="185.24" style="stroke: #000000; stroke-width: 0.8"/>
      </g>
     </g>
     <g id="text_42">
      <!-- 1 -->
      <g transform="translate(1118.941034 201.358125) scale(0.12 -0.12)">
       <use xlink:href="#DejaVuSans-31"/>
      </g>
     </g>
    </g>
    <g id="xtick_27">
     <g id="line2d_125">
      <g>
       <use xlink:href="#m27756e750f" x="1160.708631" y="185.24" style="stroke: #000000; stroke-width: 0.8"/>
      </g>
     </g>
     <g id="text_43">
      <!-- 2 -->
      <g transform="translate(1156.891131 201.358125) scale(0.12 -0.12)">
       <use xlink:href="#DejaVuSans-32"/>
      </g>
     </g>
    </g>
    <g id="xtick_28">
     <g id="line2d_126">
      <g>
       <use xlink:href="#m27756e750f" x="1198.658728" y="185.24" style="stroke: #000000; stroke-width: 0.8"/>
      </g>
     </g>
     <g id="text_44">
      <!-- 3 -->
      <g transform="translate(1194.841228 201.358125) scale(0.12 -0.12)">
       <use xlink:href="#DejaVuSans-33"/>
      </g>
     </g>
    </g>
    <g id="xtick_29">
     <g id="line2d_127">
      <g>
       <use xlink:href="#m27756e750f" x="1236.608825" y="185.24" style="stroke: #000000; stroke-width: 0.8"/>
      </g>
     </g>
     <g id="text_45">
      <!-- 4 -->
      <g transform="translate(1232.791325 201.358125) scale(0.12 -0.12)">
       <use xlink:href="#DejaVuSans-34"/>
      </g>
     </g>
    </g>
    <g id="xtick_30">
     <g id="line2d_128">
      <g>
       <use xlink:href="#m27756e750f" x="1274.558922" y="185.24" style="stroke: #000000; stroke-width: 0.8"/>
      </g>
     </g>
     <g id="text_46">
      <!-- 5 -->
      <g transform="translate(1270.741422 201.358125) scale(0.12 -0.12)">
       <use xlink:href="#DejaVuSans-35"/>
      </g>
     </g>
    </g>
   </g>
   <g id="matplotlib.axis_10">
    <g id="ytick_67">
     <g id="line2d_129">
      <g>
       <use xlink:href="#m33ae287978" x="1084.808437" y="178.107273" style="stroke: #000000; stroke-width: 0.8"/>
      </g>
     </g>
     <g id="text_47">
      <!-- $\mathdefault{10^{-3}}$ -->
      <g transform="translate(1054.308437 181.906491) scale(0.1 -0.1)">
       <use xlink:href="#DejaVuSans-31" transform="translate(0 0.765625)"/>
       <use xlink:href="#DejaVuSans-30" transform="translate(63.623047 0.765625)"/>
       <use xlink:href="#DejaVuSans-2212" transform="translate(128.203125 39.046875) scale(0.7)"/>
       <use xlink:href="#DejaVuSans-33" transform="translate(186.855469 39.046875) scale(0.7)"/>
      </g>
     </g>
    </g>
    <g id="ytick_68">
     <g id="line2d_130">
      <g>
       <use xlink:href="#m33ae287978" x="1084.808437" y="67.042862" style="stroke: #000000; stroke-width: 0.8"/>
      </g>
     </g>
     <g id="text_48">
      <!-- $\mathdefault{10^{-2}}$ -->
      <g transform="translate(1054.308437 70.842081) scale(0.1 -0.1)">
       <use xlink:href="#DejaVuSans-31" transform="translate(0 0.765625)"/>
       <use xlink:href="#DejaVuSans-30" transform="translate(63.623047 0.765625)"/>
       <use xlink:href="#DejaVuSans-2212" transform="translate(128.203125 39.046875) scale(0.7)"/>
       <use xlink:href="#DejaVuSans-32" transform="translate(186.855469 39.046875) scale(0.7)"/>
      </g>
     </g>
    </g>
    <g id="ytick_69">
     <g id="line2d_131">
      <g>
       <use xlink:href="#m54f06fdb23" x="1084.808437" y="183.189301" style="stroke: #000000; stroke-width: 0.6"/>
      </g>
     </g>
    </g>
    <g id="ytick_70">
     <g id="line2d_132">
      <g>
       <use xlink:href="#m54f06fdb23" x="1084.808437" y="144.673554" style="stroke: #000000; stroke-width: 0.6"/>
      </g>
     </g>
    </g>
    <g id="ytick_71">
     <g id="line2d_133">
      <g>
       <use xlink:href="#m54f06fdb23" x="1084.808437" y="125.116082" style="stroke: #000000; stroke-width: 0.6"/>
      </g>
     </g>
    </g>
    <g id="ytick_72">
     <g id="line2d_134">
      <g>
       <use xlink:href="#m54f06fdb23" x="1084.808437" y="111.239835" style="stroke: #000000; stroke-width: 0.6"/>
      </g>
     </g>
    </g>
    <g id="ytick_73">
     <g id="line2d_135">
      <g>
       <use xlink:href="#m54f06fdb23" x="1084.808437" y="100.476581" style="stroke: #000000; stroke-width: 0.6"/>
      </g>
     </g>
    </g>
    <g id="ytick_74">
     <g id="line2d_136">
      <g>
       <use xlink:href="#m54f06fdb23" x="1084.808437" y="91.682363" style="stroke: #000000; stroke-width: 0.6"/>
      </g>
     </g>
    </g>
    <g id="ytick_75">
     <g id="line2d_137">
      <g>
       <use xlink:href="#m54f06fdb23" x="1084.808437" y="84.246957" style="stroke: #000000; stroke-width: 0.6"/>
      </g>
     </g>
    </g>
    <g id="ytick_76">
     <g id="line2d_138">
      <g>
       <use xlink:href="#m54f06fdb23" x="1084.808437" y="77.806116" style="stroke: #000000; stroke-width: 0.6"/>
      </g>
     </g>
    </g>
    <g id="ytick_77">
     <g id="line2d_139">
      <g>
       <use xlink:href="#m54f06fdb23" x="1084.808437" y="72.124891" style="stroke: #000000; stroke-width: 0.6"/>
      </g>
     </g>
    </g>
    <g id="ytick_78">
     <g id="line2d_140">
      <g>
       <use xlink:href="#m54f06fdb23" x="1084.808437" y="33.609143" style="stroke: #000000; stroke-width: 0.6"/>
      </g>
     </g>
    </g>
   </g>
   <g id="line2d_141">
    <path d="M 1084.808437 61.361636 
L 1122.758534 61.361636 
L 1160.708631 61.361636 
L 1198.658728 61.361636 
L 1236.608825 61.361636 
L 1274.558922 61.361636 
" clip-path="url(#pf37097765e)" style="fill: none; stroke: #0173b2; stroke-width: 1.5; stroke-linecap: square"/>
   </g>
   <g id="line2d_142">
    <path d="M 1084.808437 61.361636 
L 1122.758534 49.120618 
L 1160.708631 76.321853 
L 1198.658728 68.264056 
L 1236.608825 87.821528 
L 1274.558922 100.47658 
" clip-path="url(#pf37097765e)" style="fill: none; stroke: #de8f05; stroke-width: 1.5; stroke-linecap: square"/>
   </g>
   <g id="line2d_143">
    <path d="M 1084.808437 61.361636 
L 1122.758534 61.361636 
L 1160.708631 61.361636 
L 1198.658728 61.361636 
L 1236.608825 61.361636 
L 1274.558922 61.361636 
" clip-path="url(#pf37097765e)" style="fill: none; stroke: #029e73; stroke-width: 1.5; stroke-linecap: square"/>
   </g>
   <g id="line2d_144">
    <path d="M 1084.808437 61.361636 
L 1122.758534 49.120618 
L 1160.708631 82.554338 
L 1198.658728 91.682362 
L 1236.608825 84.246956 
L 1274.558922 111.239832 
" clip-path="url(#pf37097765e)" style="fill: none; stroke: #d55e00; stroke-width: 1.5; stroke-linecap: square"/>
   </g>
   <g id="line2d_145"/>
   <g id="line2d_146"/>
   <g id="line2d_147"/>
   <g id="line2d_148"/>
   <g id="patch_15">
    <path d="M 1084.808437 185.24 
L 1084.808437 28.32 
" style="fill: none; stroke: #000000; stroke-width: 0.8; stroke-linejoin: miter; stroke-linecap: square"/>
   </g>
   <g id="patch_16">
    <path d="M 1084.808437 185.24 
L 1274.558922 185.24 
" style="fill: none; stroke: #000000; stroke-width: 0.8; stroke-linejoin: miter; stroke-linecap: square"/>
   </g>
   <g id="text_49">
    <!-- Grasping (mug) -->
    <g transform="translate(1116.94993 22.32) scale(0.16 -0.16)">
     <defs>
      <path id="DejaVuSans-6d" d="M 3328 2828 
Q 3544 3216 3844 3400 
Q 4144 3584 4550 3584 
Q 5097 3584 5394 3201 
Q 5691 2819 5691 2113 
L 5691 0 
L 5113 0 
L 5113 2094 
Q 5113 2597 4934 2840 
Q 4756 3084 4391 3084 
Q 3944 3084 3684 2787 
Q 3425 2491 3425 1978 
L 3425 0 
L 2847 0 
L 2847 2094 
Q 2847 2600 2669 2842 
Q 2491 3084 2119 3084 
Q 1678 3084 1418 2786 
Q 1159 2488 1159 1978 
L 1159 0 
L 581 0 
L 581 3500 
L 1159 3500 
L 1159 2956 
Q 1356 3278 1631 3431 
Q 1906 3584 2284 3584 
Q 2666 3584 2933 3390 
Q 3200 3197 3328 2828 
z
" transform="scale(0.015625)"/>
     </defs>
     <use xlink:href="#DejaVuSans-47"/>
     <use xlink:href="#DejaVuSans-72" x="77.490234"/>
     <use xlink:href="#DejaVuSans-61" x="118.603516"/>
     <use xlink:href="#DejaVuSans-73" x="179.882812"/>
     <use xlink:href="#DejaVuSans-70" x="231.982422"/>
     <use xlink:href="#DejaVuSans-69" x="295.458984"/>
     <use xlink:href="#DejaVuSans-6e" x="323.242188"/>
     <use xlink:href="#DejaVuSans-67" x="386.621094"/>
     <use xlink:href="#DejaVuSans-20" x="450.097656"/>
     <use xlink:href="#DejaVuSans-28" x="481.884766"/>
     <use xlink:href="#DejaVuSans-6d" x="520.898438"/>
     <use xlink:href="#DejaVuSans-75" x="618.310547"/>
     <use xlink:href="#DejaVuSans-67" x="681.689453"/>
     <use xlink:href="#DejaVuSans-29" x="745.166016"/>
    </g>
   </g>
  </g>
  <g id="axes_6">
   <g id="patch_17">
    <path d="M 1340.965033 185.24 
L 1530.715518 185.24 
L 1530.715518 28.32 
L 1340.965033 28.32 
z
" style="fill: #ffffff"/>
   </g>
   <g id="PolyCollection_21">
    <defs>
     <path id="mf186712da4" d="M 1340.965033 -154.410556 
L 1340.965033 -140.98652 
L 1378.91513 -140.98652 
L 1416.865227 -140.98652 
L 1454.815324 -140.98652 
L 1492.765421 -140.98652 
L 1530.715518 -140.98652 
L 1530.715518 -154.410556 
L 1530.715518 -154.410556 
L 1492.765421 -154.410556 
L 1454.815324 -154.410556 
L 1416.865227 -154.410556 
L 1378.91513 -154.410556 
L 1340.965033 -154.410556 
z
" style="stroke: #0173b2; stroke-opacity: 0.2"/>
    </defs>
    <g clip-path="url(#p835cc1e61d)">
     <use xlink:href="#mf186712da4" x="0" y="216" style="fill: #0173b2; fill-opacity: 0.2; stroke: #0173b2; stroke-opacity: 0.2"/>
    </g>
   </g>
   <g id="PolyCollection_22">
    <defs>
     <path id="mbce968d325" d="M 1340.965033 -154.410556 
L 1340.965033 -140.98652 
L 1378.91513 -73.358045 
L 1416.865227 -84.775326 
L 1454.815324 -66.525825 
L 1492.765421 -73.358043 
L 1530.715518 -73.358043 
L 1530.715518 -135.595683 
L 1530.715518 -135.595683 
L 1492.765421 -154.410553 
L 1454.815324 -144.288675 
L 1416.865227 -167.123238 
L 1378.91513 -120.240643 
L 1340.965033 -154.410556 
z
" style="stroke: #de8f05; stroke-opacity: 0.2"/>
    </defs>
    <g clip-path="url(#p835cc1e61d)">
     <use xlink:href="#mbce968d325" x="0" y="216" style="fill: #de8f05; fill-opacity: 0.2; stroke: #de8f05; stroke-opacity: 0.2"/>
    </g>
   </g>
   <g id="PolyCollection_23">
    <defs>
     <path id="mb11f7d79ff" d="M 1340.965033 -153.081504 
L 1340.965033 -140.98652 
L 1378.91513 -142.664233 
L 1416.865227 -140.98652 
L 1454.815324 -140.98652 
L 1492.765421 -140.98652 
L 1530.715518 -140.98652 
L 1530.715518 -154.410556 
L 1530.715518 -154.410556 
L 1492.765421 -153.115154 
L 1454.815324 -154.410556 
L 1416.865227 -154.410556 
L 1378.91513 -154.410556 
L 1340.965033 -153.081504 
z
" style="stroke: #029e73; stroke-opacity: 0.2"/>
    </defs>
    <g clip-path="url(#p835cc1e61d)">
     <use xlink:href="#mb11f7d79ff" x="0" y="216" style="fill: #029e73; fill-opacity: 0.2; stroke: #029e73; stroke-opacity: 0.2"/>
    </g>
   </g>
   <g id="PolyCollection_24">
    <defs>
     <path id="maa155da259" d="M 1340.965033 -154.410556 
L 1340.965033 -140.98652 
L 1378.91513 -66.525825 
L 1416.865227 -79.384487 
L 1454.815324 -94.103924 
L 1492.765421 -37.892728 
L 1530.715518 -37.892727 
L 1530.715518 -131.657923 
L 1530.715518 -131.657923 
L 1492.765421 -125.117246 
L 1454.815324 -180.547273 
L 1416.865227 -151.717006 
L 1378.91513 -120.240643 
L 1340.965033 -154.410556 
z
" style="stroke: #d55e00; stroke-opacity: 0.2"/>
    </defs>
    <g clip-path="url(#p835cc1e61d)">
     <use xlink:href="#maa155da259" x="0" y="216" style="fill: #d55e00; fill-opacity: 0.2; stroke: #d55e00; stroke-opacity: 0.2"/>
    </g>
   </g>
   <g id="matplotlib.axis_11">
    <g id="xtick_31">
     <g id="line2d_149">
      <g>
       <use xlink:href="#m27756e750f" x="1340.965033" y="185.24" style="stroke: #000000; stroke-width: 0.8"/>
      </g>
     </g>
     <g id="text_50">
      <!-- 0 -->
      <g transform="translate(1337.147533 201.358125) scale(0.12 -0.12)">
       <use xlink:href="#DejaVuSans-30"/>
      </g>
     </g>
    </g>
    <g id="xtick_32">
     <g id="line2d_150">
      <g>
       <use xlink:href="#m27756e750f" x="1378.91513" y="185.24" style="stroke: #000000; stroke-width: 0.8"/>
      </g>
     </g>
     <g id="text_51">
      <!-- 1 -->
      <g transform="translate(1375.09763 201.358125) scale(0.12 -0.12)">
       <use xlink:href="#DejaVuSans-31"/>
      </g>
     </g>
    </g>
    <g id="xtick_33">
     <g id="line2d_151">
      <g>
       <use xlink:href="#m27756e750f" x="1416.865227" y="185.24" style="stroke: #000000; stroke-width: 0.8"/>
      </g>
     </g>
     <g id="text_52">
      <!-- 2 -->
      <g transform="translate(1413.047727 201.358125) scale(0.12 -0.12)">
       <use xlink:href="#DejaVuSans-32"/>
      </g>
     </g>
    </g>
    <g id="xtick_34">
     <g id="line2d_152">
      <g>
       <use xlink:href="#m27756e750f" x="1454.815324" y="185.24" style="stroke: #000000; stroke-width: 0.8"/>
      </g>
     </g>
     <g id="text_53">
      <!-- 3 -->
      <g transform="translate(1450.997824 201.358125) scale(0.12 -0.12)">
       <use xlink:href="#DejaVuSans-33"/>
      </g>
     </g>
    </g>
    <g id="xtick_35">
     <g id="line2d_153">
      <g>
       <use xlink:href="#m27756e750f" x="1492.765421" y="185.24" style="stroke: #000000; stroke-width: 0.8"/>
      </g>
     </g>
     <g id="text_54">
      <!-- 4 -->
      <g transform="translate(1488.947921 201.358125) scale(0.12 -0.12)">
       <use xlink:href="#DejaVuSans-34"/>
      </g>
     </g>
    </g>
    <g id="xtick_36">
     <g id="line2d_154">
      <g>
       <use xlink:href="#m27756e750f" x="1530.715518" y="185.24" style="stroke: #000000; stroke-width: 0.8"/>
      </g>
     </g>
     <g id="text_55">
      <!-- 5 -->
      <g transform="translate(1526.898018 201.358125) scale(0.12 -0.12)">
       <use xlink:href="#DejaVuSans-35"/>
      </g>
     </g>
    </g>
   </g>
   <g id="matplotlib.axis_12">
    <g id="ytick_79">
     <g id="line2d_155">
      <g>
       <use xlink:href="#m33ae287978" x="1340.965033" y="178.107273" style="stroke: #000000; stroke-width: 0.8"/>
      </g>
     </g>
     <g id="text_56">
      <!-- $\mathdefault{10^{-3}}$ -->
      <g transform="translate(1310.465033 181.906491) scale(0.1 -0.1)">
       <use xlink:href="#DejaVuSans-31" transform="translate(0 0.765625)"/>
       <use xlink:href="#DejaVuSans-30" transform="translate(63.623047 0.765625)"/>
       <use xlink:href="#DejaVuSans-2212" transform="translate(128.203125 39.046875) scale(0.7)"/>
       <use xlink:href="#DejaVuSans-33" transform="translate(186.855469 39.046875) scale(0.7)"/>
      </g>
     </g>
    </g>
    <g id="ytick_80">
     <g id="line2d_156">
      <g>
       <use xlink:href="#m33ae287978" x="1340.965033" y="60.294046" style="stroke: #000000; stroke-width: 0.8"/>
      </g>
     </g>
     <g id="text_57">
      <!-- $\mathdefault{10^{-2}}$ -->
      <g transform="translate(1310.465033 64.093265) scale(0.1 -0.1)">
       <use xlink:href="#DejaVuSans-31" transform="translate(0 0.765625)"/>
       <use xlink:href="#DejaVuSans-30" transform="translate(63.623047 0.765625)"/>
       <use xlink:href="#DejaVuSans-2212" transform="translate(128.203125 39.046875) scale(0.7)"/>
       <use xlink:href="#DejaVuSans-32" transform="translate(186.855469 39.046875) scale(0.7)"/>
      </g>
     </g>
    </g>
    <g id="ytick_81">
     <g id="line2d_157">
      <g>
       <use xlink:href="#m54f06fdb23" x="1340.965033" y="183.49811" style="stroke: #000000; stroke-width: 0.6"/>
      </g>
     </g>
    </g>
    <g id="ytick_82">
     <g id="line2d_158">
      <g>
       <use xlink:href="#m54f06fdb23" x="1340.965033" y="142.641958" style="stroke: #000000; stroke-width: 0.6"/>
      </g>
     </g>
    </g>
    <g id="ytick_83">
     <g id="line2d_159">
      <g>
       <use xlink:href="#m54f06fdb23" x="1340.965033" y="121.896078" style="stroke: #000000; stroke-width: 0.6"/>
      </g>
     </g>
    </g>
    <g id="ytick_84">
     <g id="line2d_160">
      <g>
       <use xlink:href="#m54f06fdb23" x="1340.965033" y="107.176642" style="stroke: #000000; stroke-width: 0.6"/>
      </g>
     </g>
    </g>
    <g id="ytick_85">
     <g id="line2d_161">
      <g>
       <use xlink:href="#m54f06fdb23" x="1340.965033" y="95.759361" style="stroke: #000000; stroke-width: 0.6"/>
      </g>
     </g>
    </g>
    <g id="ytick_86">
     <g id="line2d_162">
      <g>
       <use xlink:href="#m54f06fdb23" x="1340.965033" y="86.430763" style="stroke: #000000; stroke-width: 0.6"/>
      </g>
     </g>
    </g>
    <g id="ytick_87">
     <g id="line2d_163">
      <g>
       <use xlink:href="#m54f06fdb23" x="1340.965033" y="78.543546" style="stroke: #000000; stroke-width: 0.6"/>
      </g>
     </g>
    </g>
    <g id="ytick_88">
     <g id="line2d_164">
      <g>
       <use xlink:href="#m54f06fdb23" x="1340.965033" y="71.711327" style="stroke: #000000; stroke-width: 0.6"/>
      </g>
     </g>
    </g>
    <g id="ytick_89">
     <g id="line2d_165">
      <g>
       <use xlink:href="#m54f06fdb23" x="1340.965033" y="65.684884" style="stroke: #000000; stroke-width: 0.6"/>
      </g>
     </g>
    </g>
   </g>
   <g id="line2d_166">
    <path d="M 1340.965033 67.126261 
L 1378.91513 67.126261 
L 1416.865227 67.126261 
L 1454.815324 67.126261 
L 1492.765421 67.126261 
L 1530.715518 67.126261 
" clip-path="url(#p835cc1e61d)" style="fill: none; stroke: #0173b2; stroke-width: 1.5; stroke-linecap: square"/>
   </g>
   <g id="line2d_167">
    <path d="M 1340.965033 67.126261 
L 1378.91513 110.478794 
L 1416.865227 75.013479 
L 1454.815324 93.262979 
L 1492.765421 90.882755 
L 1530.715518 104.074743 
" clip-path="url(#p835cc1e61d)" style="fill: none; stroke: #de8f05; stroke-width: 1.5; stroke-linecap: square"/>
   </g>
   <g id="line2d_168">
    <path d="M 1340.965033 67.126261 
L 1378.91513 67.126261 
L 1416.865227 67.126261 
L 1454.815324 67.126261 
L 1492.765421 67.126261 
L 1530.715518 67.126261 
" clip-path="url(#p835cc1e61d)" style="fill: none; stroke: #029e73; stroke-width: 1.5; stroke-linecap: square"/>
   </g>
   <g id="line2d_169">
    <path d="M 1340.965033 67.126261 
L 1378.91513 110.478794 
L 1416.865227 90.882753 
L 1454.815324 64.282995 
L 1492.765421 121.896077 
L 1530.715518 117.800641 
" clip-path="url(#p835cc1e61d)" style="fill: none; stroke: #d55e00; stroke-width: 1.5; stroke-linecap: square"/>
   </g>
   <g id="line2d_170"/>
   <g id="line2d_171"/>
   <g id="line2d_172"/>
   <g id="line2d_173"/>
   <g id="patch_18">
    <path d="M 1340.965033 185.24 
L 1340.965033 28.32 
" style="fill: none; stroke: #000000; stroke-width: 0.8; stroke-linejoin: miter; stroke-linecap: square"/>
   </g>
   <g id="patch_19">
    <path d="M 1340.965033 185.24 
L 1530.715518 185.24 
" style="fill: none; stroke: #000000; stroke-width: 0.8; stroke-linejoin: miter; stroke-linecap: square"/>
   </g>
   <g id="text_58">
    <!-- Grasping (box) -->
    <g transform="translate(1376.589025 22.32) scale(0.16 -0.16)">
     <defs>
      <path id="DejaVuSans-78" d="M 3513 3500 
L 2247 1797 
L 3578 0 
L 2900 0 
L 1881 1375 
L 863 0 
L 184 0 
L 1544 1831 
L 300 3500 
L 978 3500 
L 1906 2253 
L 2834 3500 
L 3513 3500 
z
" transform="scale(0.015625)"/>
     </defs>
     <use xlink:href="#DejaVuSans-47"/>
     <use xlink:href="#DejaVuSans-72" x="77.490234"/>
     <use xlink:href="#DejaVuSans-61" x="118.603516"/>
     <use xlink:href="#DejaVuSans-73" x="179.882812"/>
     <use xlink:href="#DejaVuSans-70" x="231.982422"/>
     <use xlink:href="#DejaVuSans-69" x="295.458984"/>
     <use xlink:href="#DejaVuSans-6e" x="323.242188"/>
     <use xlink:href="#DejaVuSans-67" x="386.621094"/>
     <use xlink:href="#DejaVuSans-20" x="450.097656"/>
     <use xlink:href="#DejaVuSans-28" x="481.884766"/>
     <use xlink:href="#DejaVuSans-62" x="520.898438"/>
     <use xlink:href="#DejaVuSans-6f" x="584.375"/>
     <use xlink:href="#DejaVuSans-78" x="642.431641"/>
     <use xlink:href="#DejaVuSans-29" x="701.611328"/>
    </g>
   </g>
  </g>
  <g id="legend_1">
   <g id="line2d_174">
    <path d="M 653.507759 201.420312 
L 663.507759 201.420312 
L 673.507759 201.420312 
" style="fill: none; stroke: #0173b2; stroke-width: 1.5; stroke-linecap: square"/>
   </g>
   <g id="text_59">
    <!-- $L2C$ -->
    <g transform="translate(681.507759 204.920312) scale(0.1 -0.1)">
     <defs>
      <path id="DejaVuSans-Oblique-4c" d="M 1075 4666 
L 1709 4666 
L 909 525 
L 3181 525 
L 3078 0 
L 172 0 
L 1075 4666 
z
" transform="scale(0.015625)"/>
      <path id="DejaVuSans-Oblique-43" d="M 4447 4306 
L 4319 3641 
Q 4019 3944 3683 4091 
Q 3347 4238 2956 4238 
Q 2422 4238 2017 3981 
Q 1613 3725 1319 3200 
Q 1131 2863 1032 2486 
Q 934 2109 934 1728 
Q 934 1091 1264 756 
Q 1594 422 2222 422 
Q 2656 422 3056 561 
Q 3456 700 3834 978 
L 3688 231 
Q 3316 72 2936 -9 
Q 2556 -91 2175 -91 
Q 1278 -91 773 396 
Q 269 884 269 1753 
Q 269 2309 461 2846 
Q 653 3384 1013 3828 
Q 1394 4300 1883 4525 
Q 2372 4750 3022 4750 
Q 3422 4750 3780 4639 
Q 4138 4528 4447 4306 
z
" transform="scale(0.015625)"/>
     </defs>
     <use xlink:href="#DejaVuSans-Oblique-4c" transform="translate(0 0.78125)"/>
     <use xlink:href="#DejaVuSans-32" transform="translate(55.712891 0.78125)"/>
     <use xlink:href="#DejaVuSans-Oblique-43" transform="translate(119.335938 0.78125)"/>
    </g>
   </g>
   <g id="line2d_175">
    <path d="M 720.507759 201.420312 
L 730.507759 201.420312 
L 740.507759 201.420312 
" style="fill: none; stroke: #de8f05; stroke-width: 1.5; stroke-linecap: square"/>
   </g>
   <g id="text_60">
    <!-- $R_0$ -->
    <g transform="translate(748.507759 204.920312) scale(0.1 -0.1)">
     <defs>
      <path id="DejaVuSans-Oblique-52" d="M 1613 4147 
L 1294 2491 
L 2106 2491 
Q 2584 2491 2879 2755 
Q 3175 3019 3175 3444 
Q 3175 3784 2976 3965 
Q 2778 4147 2406 4147 
L 1613 4147 
z
M 2772 2241 
Q 2972 2194 3105 2009 
Q 3238 1825 3413 1275 
L 3809 0 
L 3144 0 
L 2778 1197 
Q 2638 1659 2453 1815 
Q 2269 1972 1888 1972 
L 1191 1972 
L 806 0 
L 172 0 
L 1081 4666 
L 2503 4666 
Q 3150 4666 3495 4373 
Q 3841 4081 3841 3531 
Q 3841 3044 3547 2687 
Q 3253 2331 2772 2241 
z
" transform="scale(0.015625)"/>
     </defs>
     <use xlink:href="#DejaVuSans-Oblique-52" transform="translate(0 0.09375)"/>
     <use xlink:href="#DejaVuSans-30" transform="translate(69.482422 -16.3125) scale(0.7)"/>
    </g>
   </g>
   <g id="line2d_176">
    <path d="M 780.207759 201.420312 
L 790.207759 201.420312 
L 800.207759 201.420312 
" style="fill: none; stroke: #029e73; stroke-width: 1.5; stroke-linecap: square"/>
   </g>
   <g id="text_61">
    <!-- $GD_a$ -->
    <g transform="translate(808.207759 204.920312) scale(0.1 -0.1)">
     <defs>
      <path id="DejaVuSans-Oblique-47" d="M 3494 697 
L 3738 1919 
L 2700 1919 
L 2797 2438 
L 4453 2438 
L 4050 384 
Q 3634 156 3143 32 
Q 2653 -91 2156 -91 
Q 1278 -91 783 396 
Q 288 884 288 1753 
Q 288 2475 589 3126 
Q 891 3778 1422 4213 
Q 1756 4484 2153 4617 
Q 2550 4750 3034 4750 
Q 3472 4750 3873 4639 
Q 4275 4528 4641 4306 
L 4513 3634 
Q 4231 3928 3853 4083 
Q 3475 4238 3047 4238 
Q 2550 4238 2172 4048 
Q 1794 3859 1497 3463 
Q 1244 3125 1098 2667 
Q 953 2209 953 1734 
Q 953 1081 1287 751 
Q 1622 422 2284 422 
Q 2616 422 2925 492 
Q 3234 563 3494 697 
z
" transform="scale(0.015625)"/>
      <path id="DejaVuSans-Oblique-44" d="M 1081 4666 
L 2438 4666 
Q 3519 4666 4070 4208 
Q 4622 3750 4622 2847 
Q 4622 2250 4412 1698 
Q 4203 1147 3834 769 
Q 3463 381 2891 190 
Q 2319 0 1538 0 
L 172 0 
L 1081 4666 
z
M 1613 4147 
L 909 519 
L 1734 519 
Q 2794 519 3375 1128 
Q 3956 1738 3956 2847 
Q 3956 3519 3581 3833 
Q 3206 4147 2406 4147 
L 1613 4147 
z
" transform="scale(0.015625)"/>
      <path id="DejaVuSans-Oblique-61" d="M 3438 1997 
L 3047 0 
L 2472 0 
L 2578 531 
Q 2325 219 2001 64 
Q 1678 -91 1281 -91 
Q 834 -91 548 182 
Q 263 456 263 884 
Q 263 1497 752 1853 
Q 1241 2209 2100 2209 
L 2900 2209 
L 2931 2363 
Q 2938 2388 2941 2417 
Q 2944 2447 2944 2509 
Q 2944 2788 2717 2942 
Q 2491 3097 2081 3097 
Q 1800 3097 1504 3025 
Q 1209 2953 897 2809 
L 997 3341 
Q 1322 3463 1633 3523 
Q 1944 3584 2234 3584 
Q 2853 3584 3176 3315 
Q 3500 3047 3500 2534 
Q 3500 2431 3484 2292 
Q 3469 2153 3438 1997 
z
M 2816 1759 
L 2241 1759 
Q 1534 1759 1195 1570 
Q 856 1381 856 984 
Q 856 709 1029 553 
Q 1203 397 1509 397 
Q 1978 397 2328 733 
Q 2678 1069 2791 1631 
L 2816 1759 
z
" transform="scale(0.015625)"/>
     </defs>
     <use xlink:href="#DejaVuSans-Oblique-47" transform="translate(0 0.78125)"/>
     <use xlink:href="#DejaVuSans-Oblique-44" transform="translate(77.490234 0.78125)"/>
     <use xlink:href="#DejaVuSans-Oblique-61" transform="translate(154.492188 -15.625) scale(0.7)"/>
    </g>
   </g>
   <g id="line2d_177">
    <path d="M 848.307759 201.420312 
L 858.307759 201.420312 
L 868.307759 201.420312 
" style="fill: none; stroke: #d55e00; stroke-width: 1.5; stroke-linecap: square"/>
   </g>
   <g id="text_62">
    <!-- $R_1$ -->
    <g transform="translate(876.307759 204.920312) scale(0.1 -0.1)">
     <use xlink:href="#DejaVuSans-Oblique-52" transform="translate(0 0.09375)"/>
     <use xlink:href="#DejaVuSans-31" transform="translate(69.482422 -16.3125) scale(0.7)"/>
    </g>
   </g>
  </g>
 </g>
 <defs>
  <clipPath id="p4393fddb4c">
   <rect x="60.182054" y="28.32" width="189.750484" height="156.92"/>
  </clipPath>
  <clipPath id="p30d243a042">
   <rect x="316.33865" y="28.32" width="189.750484" height="156.92"/>
  </clipPath>
  <clipPath id="p002f622178">
   <rect x="572.495246" y="28.32" width="189.750484" height="156.92"/>
  </clipPath>
  <clipPath id="p4d81a6a7b7">
   <rect x="828.651842" y="28.32" width="189.750484" height="156.92"/>
  </clipPath>
  <clipPath id="pf37097765e">
   <rect x="1084.808437" y="28.32" width="189.750484" height="156.92"/>
  </clipPath>
  <clipPath id="p835cc1e61d">
   <rect x="1340.965033" y="28.32" width="189.750484" height="156.92"/>
  </clipPath>
 </defs>
</svg>
